SplineFontDB: 3.0
FontName: Typeface
FullName: Typeface
FamilyName: grafana-icons
Weight: Book
Copyright: SIL Open Font License
Version: 1.0
ItalicAngle: 0
UnderlinePosition: -2
UnderlineWidth: 1
Ascent: 960
Descent: 64
InvalidEm: 0
sfntRevision: 0x00010000
LayerCount: 2
Layer: 0 1 "Back" 1
Layer: 1 1 "Fore" 0
XUID: [1021 408 649236180 15093290]
StyleMap: 0x0040
FSType: 0
OS2Version: 2
OS2_WeightWidthSlopeOnly: 0
OS2_UseTypoMetrics: 0
CreationTime: 1493825231
ModificationTime: 1493901129
PfmFamily: 81
TTFWeight: 400
TTFWidth: 5
LineGap: 0
VLineGap: 0
Panose: 0 0 0 0 0 0 0 0 0 0
OS2TypoAscent: 960
OS2TypoAOffset: 0
OS2TypoDescent: -64
OS2TypoDOffset: 0
OS2TypoLinegap: 100
OS2WinAscent: 960
OS2WinAOffset: 0
OS2WinDescent: 64
OS2WinDOffset: 0
HheadAscent: 960
HheadAOffset: 0
HheadDescent: -64
HheadDOffset: 0
OS2SubXSize: 40
OS2SubYSize: 40
OS2SubXOff: 40
OS2SubYOff: 40
OS2SupXSize: 40
OS2SupYSize: 40
OS2SupXOff: 40
OS2SupYOff: 40
OS2StrikeYSize: 40
OS2StrikeYPos: 200
OS2CapHeight: 960
OS2XHeight: 573
OS2Vendor: 'Bird'
OS2CodePages: 00020001.00000000
OS2UnicodeRanges: 00000001.00000000.00000000.00000000
Lookup: 258 0 0 "'kern' Horizontal Kerning lookup 0" { "'kern' Horizontal Kerning lookup 0 subtable"  } [' RQD' ('DFLT' <'dflt' > ) 'kern' ('DFLT' <'dflt' > ) ]
DEI: 91125
ShortTable: maxp 16
  1
  0
  58
  1594
  26
  0
  0
  1
  0
  0
  0
  0
  0
  0
  0
  0
EndShort
LangName: 1033 "" "" "Regular" "Typeface" "" "Version 1.0" "" "" "" "" "" "" "" "SIL Open Font License" "http://scripts.sil.org/OFL"
GaspTable: 1 65535 2 0
Encoding: UnicodeFull
UnicodeInterp: none
NameList: AGL For New Fonts
DisplaySize: -128
AntiAlias: 1
FitToEm: 0
WinInfo: 59631 11 6
BeginChars: 1114114 58

StartChar: .notdef
Encoding: 1114112 -1 0
Width: 543
Flags: W
LayerCount: 2
Fore
SplineSet
51 102 m 1,0,1
 154 102 154 102 358 102 c 1,2,3
 358 280 358 280 358 635 c 1,4,5
 256 635 256 635 51 635 c 1,6,7
 51 590 51 590 51 501 c 0,8,9
 51 368 51 368 51 102 c 1,0,1
0 686 m 1,10,11
 137 686 137 686 410 686 c 1,12,13
 410 474 410 474 410 51 c 1,14,15
 273 51 273 51 0 51 c 1,16,17
 0 263 0 263 0 686 c 1,10,11
EndSplineSet
Validated: 1
EndChar

StartChar: unie600
Encoding: 58880 58880 4
Width: 3917
Flags: W
LayerCount: 2
Fore
SplineSet
453 661 m 1,0,1
 431 669 431 669 407 674 c 0,2,3
 382 679 382 679 359 679 c 0,4,5
 279 679 279 679 244 648 c 256,6,7
 209 617 209 617 195 594 c 0,8,9
 194 594 194 594 193 594 c 1,10,11
 193 616 193 616 193 661 c 1,12,13
 136 661 136 661 24 661 c 1,14,15
 24 460 24 460 24 58 c 1,16,17
 84 58 84 58 203 58 c 1,18,19
 203 167 203 167 203 385 c 0,20,21
 203 403 203 403 207 433 c 0,22,23
 210 462 210 462 232 484 c 0,24,25
 243 495 243 495 262 503 c 0,26,27
 280 510 280 510 307 510 c 0,28,29
 309 510 309 510 311 510 c 256,30,31
 313 510 313 510 315 510 c 0,32,33
 336 559 336 559 371 599 c 0,34,35
 406 638 406 638 453 661 c 1,0,1
786 596 m 1,36,37
 768 624 768 624 725 653 c 0,38,39
 683 682 683 682 609 682 c 0,40,41
 530 682 530 682 462 644 c 0,42,43
 393 607 393 607 352 538 c 0,44,45
 330 501 330 501 317 456 c 256,46,47
 304 411 304 411 304 359 c 0,48,49
 304 314 304 314 315 272 c 0,50,51
 325 229 325 229 344 192 c 0,52,53
 381 123 381 123 448 80 c 256,54,55
 515 37 515 37 609 37 c 0,56,57
 662 37 662 37 712 57 c 0,58,59
 762 78 762 78 786 123 c 1,60,61
 786 123 786 123 788 123 c 1,62,63
 788 101 788 101 788 58 c 1,64,65
 848 58 848 58 967 58 c 1,66,67
 967 259 967 259 967 661 c 1,68,69
 908 661 908 661 788 661 c 1,70,71
 788 640 788 640 788 596 c 1,72,73
 787 596 787 596 786 596 c 1,74,75
 786 596 786 596 786 596 c 1,36,37
634 204 m 0,76,77
 606 204 606 204 583 212 c 256,78,79
 560 220 560 220 543 233 c 0,80,81
 512 258 512 258 498 293 c 256,82,83
 484 328 484 328 484 354 c 0,84,85
 484 405 484 405 520 458 c 256,86,87
 556 511 556 511 632 511 c 256,88,89
 708 511 708 511 745 461 c 0,90,91
 783 412 783 412 783 357 c 0,92,93
 783 354 783 354 783 351 c 0,94,95
 783 339 783 339 780 324 c 0,96,97
 777 306 777 306 770 288 c 0,98,99
 755 255 755 255 723 230 c 0,100,101
 690 204 690 204 634 204 c 0,76,77
993 661 m 1,102,103
 1053 661 1053 661 1173 661 c 1,104,105
 1173 460 1173 460 1173 58 c 1,106,107
 1113 58 1113 58 993 58 c 1,108,109
 993 259 993 259 993 661 c 1,102,103
993 862 m 1,110,111
 1053 862 1053 862 1173 862 c 1,112,113
 1173 816 1173 816 1173 724 c 1,114,115
 1113 724 1113 724 993 724 c 1,116,117
 993 770 993 770 993 862 c 1,110,111
2216 661 m 1,118,119
 2152 661 2152 661 2026 661 c 1,120,121
 2026 728 2026 728 2026 862 c 1,122,123
 1966 862 1966 862 1847 862 c 1,124,125
 1847 795 1847 795 1847 661 c 1,126,127
 1793 661 1793 661 1686 661 c 1,128,129
 1692 657 1692 657 1697 653 c 0,130,131
 1703 650 1703 650 1706 645 c 0,132,133
 1726 628 1726 628 1745 600 c 256,134,135
 1764 572 1764 572 1774 523 c 1,136,137
 1797 523 1797 523 1844 523 c 1,138,139
 1844 368 1844 368 1844 58 c 1,140,141
 1904 58 1904 58 2024 58 c 1,142,143
 2024 213 2024 213 2024 523 c 1,144,145
 2045 523 2045 523 2089 523 c 1,146,147
 2111 566 2111 566 2143 601 c 256,148,149
 2175 636 2175 636 2216 661 c 1,118,119
2564 596 m 1,150,151
 2546 624 2546 624 2504 653 c 0,152,153
 2461 682 2461 682 2387 682 c 0,154,155
 2309 682 2309 682 2240 644 c 0,156,157
 2172 607 2172 607 2130 538 c 0,158,159
 2108 501 2108 501 2095 456 c 0,160,161
 2083 411 2083 411 2083 359 c 0,162,163
 2083 314 2083 314 2093 272 c 0,164,165
 2103 229 2103 229 2122 192 c 0,166,167
 2159 123 2159 123 2226 80 c 256,168,169
 2293 37 2293 37 2387 37 c 0,170,171
 2440 37 2440 37 2490 57 c 0,172,173
 2540 78 2540 78 2564 123 c 0,174,175
 2565 123 2565 123 2566 123 c 1,176,177
 2566 101 2566 101 2566 58 c 1,178,179
 2626 58 2626 58 2746 58 c 1,180,181
 2746 259 2746 259 2746 661 c 1,182,183
 2686 661 2686 661 2567 661 c 1,184,185
 2567 640 2567 640 2567 596 c 1,186,187
 2566 596 2566 596 2564 596 c 1,188,189
 2564 596 2564 596 2564 596 c 1,150,151
2413 204 m 256,190,191
 2384 204 2384 204 2362 212 c 0,192,193
 2339 220 2339 220 2322 233 c 0,194,195
 2290 258 2290 258 2276 293 c 256,196,197
 2262 328 2262 328 2262 354 c 0,198,199
 2262 405 2262 405 2298 458 c 0,200,201
 2335 511 2335 511 2411 511 c 256,202,203
 2487 511 2487 511 2524 461 c 0,204,205
 2561 412 2561 412 2561 357 c 0,206,207
 2561 355 2561 355 2561 352 c 0,208,209
 2561 326 2561 326 2550 294 c 0,210,211
 2537 258 2537 258 2505 233 c 0,212,213
 2488 220 2488 220 2465 212 c 256,214,215
 2442 204 2442 204 2413 204 c 256,190,191
3261 627 m 0,216,217
 3235 649 3235 649 3193 664 c 0,218,219
 3150 679 3150 679 3107 679 c 0,220,221
 3027 679 3027 679 2992 648 c 256,222,223
 2957 617 2957 617 2943 594 c 0,224,225
 2942 594 2942 594 2940 594 c 1,226,227
 2940 616 2940 616 2940 661 c 1,228,229
 2884 661 2884 661 2772 661 c 1,230,231
 2772 460 2772 460 2772 58 c 1,232,233
 2831 58 2831 58 2951 58 c 1,234,235
 2951 167 2951 167 2951 385 c 0,236,237
 2951 403 2951 403 2954 433 c 0,238,239
 2958 462 2958 462 2979 484 c 0,240,241
 2991 495 2991 495 3009 503 c 0,242,243
 3028 510 3028 510 3055 510 c 0,244,245
 3079 510 3079 510 3096 503 c 0,246,247
 3112 496 3112 496 3123 485 c 0,248,249
 3142 464 3142 464 3145 435 c 256,250,251
 3148 406 3148 406 3148 385 c 0,252,253
 3148 276 3148 276 3148 58 c 1,254,255
 3208 58 3208 58 3328 58 c 1,256,257
 3328 184 3328 184 3328 435 c 0,258,259
 3328 438 3328 438 3328 441 c 0,260,261
 3328 524 3328 524 3306 565 c 0,262,263
 3284 608 3284 608 3261 627 c 0,216,217
3918 661 m 1,264,265
 3847 661 3847 661 3703 661 c 1,266,267
 3647 588 3647 588 3536 443 c 1,268,269
 3536 443 3536 443 3534 443 c 1,270,271
 3534 582 3534 582 3534 862 c 1,272,273
 3474 862 3474 862 3354 862 c 1,274,275
 3354 594 3354 594 3354 58 c 1,276,277
 3414 58 3414 58 3534 58 c 1,278,279
 3534 154 3534 154 3534 347 c 1,280,281
 3535 347 3535 347 3536 347 c 0,282,283
 3593 250 3593 250 3708 58 c 1,284,285
 3775 58 3775 58 3911 58 c 1,286,287
 3837 171 3837 171 3689 396 c 1,288,289
 3766 484 3766 484 3918 661 c 1,264,265
1685 627 m 0,290,291
 1660 649 1660 649 1617 664 c 0,292,293
 1575 679 1575 679 1532 679 c 0,294,295
 1452 679 1452 679 1417 648 c 0,296,297
 1381 617 1381 617 1368 594 c 0,298,299
 1367 594 1367 594 1365 594 c 1,300,301
 1365 616 1365 616 1365 661 c 1,302,303
 1309 661 1309 661 1196 661 c 1,304,305
 1196 460 1196 460 1196 58 c 1,306,307
 1256 58 1256 58 1376 58 c 1,308,309
 1376 167 1376 167 1376 385 c 0,310,311
 1376 403 1376 403 1379 433 c 0,312,313
 1383 462 1383 462 1404 484 c 0,314,315
 1416 495 1416 495 1434 503 c 0,316,317
 1452 510 1452 510 1479 510 c 0,318,319
 1504 510 1504 510 1520 503 c 0,320,321
 1537 496 1537 496 1547 485 c 0,322,323
 1567 464 1567 464 1570 435 c 256,324,325
 1573 406 1573 406 1573 385 c 0,326,327
 1573 276 1573 276 1573 58 c 1,328,329
 1633 58 1633 58 1752 58 c 1,330,331
 1752 184 1752 184 1752 435 c 0,332,333
 1752 443 1752 443 1752 451 c 0,334,335
 1752 527 1752 527 1732 565 c 0,336,337
 1710 608 1710 608 1685 627 c 0,290,291
EndSplineSet
Validated: 5
EndChar

StartChar: unie601
Encoding: 58881 58881 5
Width: 1325
Flags: W
LayerCount: 2
Fore
SplineSet
663 936 m 0,0,1
 592 936 592 936 527 916 c 0,2,3
 462 897 462 897 406 862 c 0,4,5
 302 797 302 797 239 688 c 0,6,7
 175 579 175 579 175 448 c 0,8,9
 175 377 175 377 194 312 c 0,10,11
 214 247 214 247 248 192 c 0,12,13
 313 88 313 88 423 24 c 0,14,15
 532 -40 532 -40 663 -40 c 0,16,17
 793 -40 793 -40 903 24 c 0,18,19
 1012 88 1012 88 1077 192 c 0,20,21
 1112 247 1112 247 1131 312 c 256,22,23
 1150 377 1150 377 1150 448 c 0,24,25
 1150 579 1150 579 1087 688 c 0,26,27
 1023 797 1023 797 919 862 c 0,28,29
 863 897 863 897 798 916 c 0,30,31
 733 936 733 936 663 936 c 0,0,1
780 555 m 0,32,33
 778 555 778 555 776 555 c 256,34,35
 774 555 774 555 772 555 c 0,36,37
 746 555 746 555 729 548 c 256,38,39
 712 541 712 541 701 530 c 0,40,41
 681 510 681 510 678 482 c 0,42,43
 675 455 675 455 675 438 c 0,44,45
 675 336 675 336 675 131 c 1,46,47
 619 131 619 131 506 131 c 1,48,49
 506 320 506 320 506 697 c 1,50,51
 559 697 559 697 665 697 c 1,52,53
 665 676 665 676 665 636 c 1,54,55
 666 636 666 636 667 636 c 0,56,57
 680 656 680 656 713 686 c 256,58,59
 746 716 746 716 821 716 c 0,60,61
 843 716 843 716 866 711 c 256,62,63
 889 706 889 706 909 699 c 1,64,65
 865 675 865 675 832 638 c 0,66,67
 800 601 800 601 780 555 c 0,32,33
EndSplineSet
Validated: 9
EndChar

StartChar: unie603
Encoding: 58883 58883 6
Width: 1280
Flags: W
LayerCount: 2
Fore
SplineSet
640 919 m 256,0,1
 513 919 513 919 408 858 c 0,2,3
 302 797 302 797 240 696 c 0,4,5
 206 642 206 642 188 579 c 0,6,7
 169 516 169 516 169 448 c 256,8,9
 169 380 169 380 188 317 c 0,10,11
 206 254 206 254 240 200 c 0,12,13
 302 99 302 99 408 38 c 0,14,15
 513 -23 513 -23 640 -23 c 0,16,17
 708 -23 708 -23 771 -4 c 0,18,19
 834 14 834 14 888 48 c 0,20,21
 989 110 989 110 1050 216 c 0,22,23
 1111 321 1111 321 1111 448 c 0,24,25
 1111 516 1111 516 1092 579 c 0,26,27
 1074 642 1074 642 1040 696 c 0,28,29
 978 797 978 797 872 858 c 0,30,31
 767 919 767 919 640 919 c 256,0,1
889 540 m 0,32,33
 780 447 780 447 561 260 c 0,34,35
 557 258 557 258 554 256 c 256,36,37
 551 254 551 254 547 254 c 0,38,39
 542 254 542 254 538 257 c 0,40,41
 533 259 533 259 529 263 c 0,42,43
 519 275 519 275 499 300 c 0,44,45
 470 333 470 333 414 399 c 0,46,47
 408 404 408 404 408 412 c 0,48,49
 408 413 408 413 409 415 c 0,50,51
 410 425 410 425 417 432 c 0,52,53
 429 442 429 442 453 462 c 0,54,55
 455 464 455 464 458 466 c 256,56,57
 461 468 461 468 465 468 c 0,58,59
 472 468 472 468 477 464 c 0,60,61
 481 460 481 460 486 456 c 0,62,63
 509 430 509 430 555 378 c 1,64,65
 646 456 646 456 829 612 c 0,66,67
 833 615 833 615 836 616 c 0,68,69
 839 618 839 618 844 618 c 0,70,71
 848 618 848 618 852 616 c 0,72,73
 857 614 857 614 861 609 c 0,74,75
 871 597 871 597 891 573 c 0,76,77
 897 567 897 567 897 559 c 0,78,79
 898 558 898 558 897 556 c 0,80,81
 896 546 896 546 889 540 c 0,32,33
EndSplineSet
Validated: 9
EndChar

StartChar: unie604
Encoding: 58884 58884 7
Width: 1325
Flags: W
LayerCount: 2
Fore
SplineSet
1121 535 m 1,0,1
 1106 532 1106 532 1076 526 c 1,2,3
 1080 506 1080 506 1082 486 c 0,4,5
 1083 465 1083 465 1083 445 c 0,6,7
 1083 382 1083 382 1066 325 c 0,8,9
 1049 267 1049 267 1019 218 c 0,10,11
 961 126 961 126 865 69 c 0,12,13
 768 13 768 13 652 13 c 0,14,15
 589 13 589 13 531 30 c 0,16,17
 474 47 474 47 424 78 c 0,18,19
 332 135 332 135 276 232 c 256,20,21
 220 329 220 329 220 445 c 0,22,23
 220 507 220 507 237 565 c 256,24,25
 254 623 254 623 285 672 c 0,26,27
 342 764 342 764 439 820 c 0,28,29
 535 877 535 877 652 877 c 0,30,31
 752 877 752 877 841 833 c 256,32,33
 930 789 930 789 991 711 c 1,34,35
 865 597 865 597 612 367 c 1,36,37
 569 423 569 423 483 534 c 1,38,39
 471 525 471 525 447 506 c 1,40,41
 500 437 500 437 606 301 c 1,42,43
 755 435 755 435 1052 705 c 1,44,45
 986 807 986 807 880 865 c 0,46,47
 773 922 773 922 652 922 c 0,48,49
 523 922 523 922 416 860 c 256,50,51
 309 798 309 798 246 696 c 0,52,53
 212 641 212 641 193 577 c 0,54,55
 174 514 174 514 174 444 c 0,56,57
 174 316 174 316 236 209 c 0,58,59
 299 101 299 101 400 38 c 0,60,61
 455 4 455 4 519 -15 c 0,62,63
 583 -33 583 -33 652 -33 c 0,64,65
 722 -33 722 -33 785 -14 c 0,66,67
 849 4 849 4 904 38 c 0,68,69
 1006 102 1006 102 1068 209 c 256,70,71
 1130 316 1130 316 1130 445 c 0,72,73
 1129 468 1129 468 1127 490 c 0,74,75
 1125 513 1125 513 1121 535 c 1,0,1
EndSplineSet
Validated: 9
EndChar

StartChar: unie605
Encoding: 58885 58885 8
Width: 1325
Flags: W
LayerCount: 2
Fore
SplineSet
961 319 m 1,0,1
 977 335 977 335 986 353 c 0,2,3
 996 371 996 371 998 390 c 1,4,5
 1013 407 1013 407 1023 425 c 0,6,7
 1032 443 1032 443 1035 462 c 1,8,9
 1050 478 1050 478 1059 496 c 256,10,11
 1068 514 1068 514 1072 534 c 1,12,13
 1086 550 1086 550 1095 568 c 0,14,15
 1105 586 1105 586 1108 605 c 1,16,17
 1128 628 1128 628 1138 654 c 0,18,19
 1149 680 1149 680 1149 707 c 0,20,21
 1149 776 1149 776 1086 833 c 0,22,23
 1024 890 1024 890 920 923 c 0,24,25
 865 940 865 940 799 950 c 0,26,27
 734 960 734 960 663 960 c 0,28,29
 591 960 591 960 526 950 c 256,30,31
 461 940 461 940 405 923 c 0,32,33
 301 890 301 890 239 833 c 256,34,35
 177 776 177 776 177 707 c 0,36,37
 177 680 177 680 187 654 c 256,38,39
 197 628 197 628 217 605 c 1,40,41
 221 586 221 586 230 568 c 256,42,43
 239 550 239 550 253 534 c 1,44,45
 257 514 257 514 266 496 c 256,46,47
 275 478 275 478 290 462 c 1,48,49
 293 443 293 443 303 425 c 0,50,51
 312 407 312 407 327 390 c 1,52,53
 329 371 329 371 339 353 c 0,54,55
 348 335 348 335 364 319 c 1,56,57
 366 299 366 299 375 281 c 0,58,59
 385 263 385 263 401 247 c 1,60,61
 402 228 402 228 412 210 c 0,62,63
 421 191 421 191 439 176 c 0,64,65
 439 175 439 175 439 174 c 2,66,67
 439 174 439 174 439 173 c 0,68,69
 439 154 439 154 449 136 c 0,70,71
 459 119 459 119 477 104 c 0,72,73
 476 102 476 102 476 100 c 0,74,75
 476 99 476 99 476 97 c 0,76,77
 476 78 476 78 486 62 c 0,78,79
 497 45 497 45 515 32 c 0,80,81
 514 29 514 29 514 26 c 256,82,83
 514 23 514 23 514 20 c 0,84,85
 514 -16 514 -16 556 -40 c 0,86,87
 599 -64 599 -64 663 -64 c 0,88,89
 726 -64 726 -64 769 -40 c 256,90,91
 812 -16 812 -16 812 20 c 0,92,93
 812 23 812 23 811 26 c 0,94,95
 811 29 811 29 810 32 c 0,96,97
 829 45 829 45 839 62 c 0,98,99
 849 78 849 78 849 97 c 0,100,101
 849 99 849 99 849 100 c 0,102,103
 849 102 849 102 848 104 c 0,104,105
 867 119 867 119 877 136 c 0,106,107
 887 154 887 154 887 173 c 0,108,109
 887 174 887 174 887 174 c 2,110,111
 886 175 886 175 886 176 c 0,112,113
 904 191 904 191 914 210 c 0,114,115
 923 228 923 228 924 247 c 1,116,117
 940 263 940 263 950 281 c 256,118,119
 960 299 960 299 961 319 c 1,0,1
663 -25 m 0,120,121
 620 -25 620 -25 592 -13 c 0,122,123
 564 -2 564 -2 556 11 c 1,124,125
 578 3 578 3 605 -2 c 256,126,127
 632 -7 632 -7 663 -7 c 0,128,129
 693 -7 693 -7 720 -2 c 256,130,131
 747 3 747 3 770 11 c 1,132,133
 762 -2 762 -2 733 -13 c 0,134,135
 705 -25 705 -25 663 -25 c 0,120,121
663 33 m 0,136,137
 613 33 613 33 575 46 c 0,138,139
 538 59 538 59 523 77 c 1,140,141
 552 65 552 65 587 58 c 0,142,143
 623 51 623 51 663 51 c 0,144,145
 702 51 702 51 738 58 c 0,146,147
 773 65 773 65 802 77 c 1,148,149
 787 59 787 59 750 46 c 0,150,151
 712 33 712 33 663 33 c 0,136,137
663 90 m 0,152,153
 602 90 602 90 558 105 c 0,154,155
 514 121 514 121 493 142 c 1,156,157
 527 126 527 126 570 117 c 0,158,159
 614 109 614 109 663 109 c 256,160,161
 712 109 712 109 755 117 c 0,162,163
 798 126 798 126 832 142 c 1,164,165
 812 121 812 121 767 105 c 0,166,167
 723 90 723 90 663 90 c 0,152,153
215 707 m 0,168,169
 215 764 215 764 275 812 c 0,170,171
 334 860 334 860 429 888 c 0,172,173
 481 904 481 904 540 912 c 0,174,175
 599 921 599 921 663 921 c 0,176,177
 781 921 781 921 882 893 c 0,178,179
 982 864 982 864 1042 819 c 0,180,181
 1074 794 1074 794 1092 766 c 256,182,183
 1110 738 1110 738 1110 707 c 0,184,185
 1110 677 1110 677 1092 648 c 0,186,187
 1074 620 1074 620 1042 595 c 0,188,189
 982 550 982 550 882 522 c 0,190,191
 781 493 781 493 663 493 c 0,192,193
 544 493 544 493 444 522 c 0,194,195
 343 550 343 550 283 595 c 0,196,197
 251 620 251 620 233 648 c 0,198,199
 215 677 215 677 215 707 c 0,168,169
663 205 m 0,200,201
 583 205 583 205 523 224 c 0,202,203
 464 244 464 244 433 271 c 1,204,205
 477 249 477 249 536 237 c 0,206,207
 595 224 595 224 663 224 c 0,208,209
 730 224 730 224 789 237 c 0,210,211
 848 249 848 249 892 271 c 1,212,213
 861 243 861 243 802 224 c 0,214,215
 742 205 742 205 663 205 c 0,200,201
663 148 m 0,216,217
 604 148 604 148 547 164 c 256,218,219
 490 180 490 180 461 207 c 1,220,221
 501 188 501 188 552 177 c 0,222,223
 604 166 604 166 663 166 c 0,224,225
 721 166 721 166 773 177 c 0,226,227
 824 188 824 188 864 207 c 1,228,229
 835 180 835 180 778 164 c 256,230,231
 721 148 721 148 663 148 c 0,216,217
663 263 m 0,232,233
 579 263 579 263 510 283 c 0,234,235
 440 304 440 304 402 336 c 1,236,237
 452 311 452 311 519 296 c 0,238,239
 586 282 586 282 663 282 c 256,240,241
 740 282 740 282 806 296 c 0,242,243
 873 311 873 311 924 336 c 1,244,245
 885 304 885 304 816 283 c 0,246,247
 746 263 746 263 663 263 c 0,232,233
663 455 m 0,248,249
 765 455 765 455 854 474 c 0,250,251
 943 494 943 494 1009 528 c 1,252,253
 954 487 954 487 862 461 c 0,254,255
 770 436 770 436 663 436 c 0,256,257
 555 436 555 436 463 461 c 0,258,259
 371 487 371 487 316 528 c 1,260,261
 382 494 382 494 471 474 c 0,262,263
 560 455 560 455 663 455 c 0,248,249
663 397 m 0,264,265
 757 397 757 397 839 415 c 0,266,267
 920 433 920 433 981 464 c 1,268,269
 931 426 931 426 847 402 c 0,270,271
 762 378 762 378 663 378 c 0,272,273
 563 378 563 378 478 402 c 0,274,275
 394 426 394 426 344 464 c 1,276,277
 405 433 405 433 487 415 c 0,278,279
 568 397 568 397 663 397 c 0,264,265
663 339 m 0,280,281
 748 339 748 339 822 356 c 0,282,283
 897 372 897 372 952 400 c 1,284,285
 908 365 908 365 831 343 c 256,286,287
 754 321 754 321 663 321 c 0,288,289
 571 321 571 321 494 343 c 256,290,291
 417 365 417 365 373 400 c 1,292,293
 428 372 428 372 503 356 c 0,294,295
 577 339 577 339 663 339 c 0,280,281
EndSplineSet
Validated: 9
EndChar

StartChar: unie606
Encoding: 58886 58886 9
Width: 1325
Flags: W
LayerCount: 2
Fore
SplineSet
287 953 m 1,0,1
 241 907 241 907 149 815 c 1,2,3
 149 778 149 778 149 704 c 1,4,5
 232 787 232 787 398 953 c 1,6,7
 361 953 361 953 287 953 c 1,0,1
542 953 m 0,8,9
 507 953 507 953 437 953 c 1,10,11
 341 857 341 857 149 665 c 1,12,13
 149 630 149 630 149 560 c 0,14,15
 149 559 149 559 149 557 c 0,16,17
 149 556 149 556 150 554 c 1,18,19
 282 687 282 687 548 952 c 1,20,21
 546 953 546 953 545 953 c 0,22,23
 543 953 543 953 542 953 c 0,8,9
579 945 m 1,24,25
 438 805 438 805 157 523 c 1,26,27
 165 504 165 504 180 490 c 0,28,29
 194 476 194 476 214 469 c 1,30,31
 354 609 354 609 633 889 c 1,32,33
 626 908 626 908 612 923 c 256,34,35
 598 938 598 938 579 945 c 1,24,25
639 556 m 1,36,37
 608 525 608 525 546 463 c 1,38,39
 584 465 584 465 611 491 c 0,40,41
 638 518 638 518 639 556 c 1,36,37
247 463 m 1,42,43
 284 463 284 463 357 463 c 1,44,45
 451 557 451 557 639 745 c 1,46,47
 639 781 639 781 639 855 c 2,48,49
 639 855 639 855 639 856 c 1,50,51
 639 856 639 856 639 856 c 1,52,53
 508 725 508 725 246 463 c 1,54,55
 246 463 246 463 247 463 c 1,56,57
 247 463 247 463 247 463 c 1,42,43
396 463 m 1,58,59
 433 463 433 463 507 463 c 1,60,61
 551 507 551 507 639 595 c 1,62,63
 639 632 639 632 639 706 c 1,64,65
 558 625 558 625 396 463 c 1,58,59
247 953 m 0,66,67
 207 953 207 953 178 924 c 256,68,69
 149 895 149 895 149 855 c 2,70,71
 149 855 149 855 149 854 c 1,72,73
 182 887 182 887 248 953 c 1,74,75
 248 953 248 953 247 953 c 0,66,67
684 560 m 1,76,77
 684 545 684 545 688 532 c 0,78,79
 692 518 692 518 700 506 c 1,80,81
 844 650 844 650 1131 936 c 1,82,83
 1119 944 1119 944 1105 949 c 0,84,85
 1091 953 1091 953 1076 953 c 0,86,87
 1063 953 1063 953 1036 953 c 1,88,89
 918 836 918 836 684 601 c 1,90,91
 684 587 684 587 684 560 c 1,92,93
 684 560 684 560 684 560 c 1,76,77
782 463 m 0,94,95
 790 463 790 463 807 463 c 1,96,97
 929 585 929 585 1174 830 c 1,98,99
 1174 838 1174 838 1174 855 c 0,100,101
 1174 873 1174 873 1168 889 c 256,102,103
 1162 905 1162 905 1151 918 c 1,104,105
 1007 774 1007 774 718 486 c 1,106,107
 731 475 731 475 747 469 c 256,108,109
 763 463 763 463 782 463 c 0,94,95
782 953 m 0,110,111
 741 953 741 953 712 924 c 0,112,113
 684 895 684 895 684 855 c 0,114,115
 684 833 684 833 684 789 c 1,116,117
 738 844 738 844 847 953 c 1,118,119
 826 953 826 953 782 953 c 0,110,111
684 639 m 1,120,121
 788 744 788 744 997 953 c 1,122,123
 960 953 960 953 886 953 c 1,124,125
 819 885 819 885 684 751 c 1,126,127
 684 714 684 714 684 639 c 1,120,121
1076 463 m 1,128,129
 1086 463 1086 463 1095 465 c 0,130,131
 1105 467 1105 467 1114 470 c 1,132,133
 1131 488 1131 488 1166 523 c 0,134,135
 1170 532 1170 532 1172 541 c 256,136,137
 1174 550 1174 550 1174 560 c 0,138,139
 1174 587 1174 587 1174 642 c 1,140,141
 1114 582 1114 582 995 463 c 1,142,143
 1022 463 1022 463 1076 463 c 1,144,145
 1076 463 1076 463 1076 463 c 1,128,129
956 463 m 1,146,147
 1029 535 1029 535 1174 680 c 1,148,149
 1174 717 1174 717 1174 792 c 1,150,151
 1064 682 1064 682 845 463 c 1,152,153
 882 463 882 463 956 463 c 1,146,147
247 431 m 0,154,155
 235 431 235 431 225 428 c 0,156,157
 214 426 214 426 204 421 c 0,158,159
 189 406 189 406 159 376 c 1,160,161
 155 366 155 366 152 355 c 0,162,163
 149 345 149 345 149 333 c 0,164,165
 149 307 149 307 149 255 c 1,166,167
 208 313 208 313 325 431 c 1,168,169
 299 431 299 431 247 431 c 0,154,155
542 -59 m 0,170,171
 582 -59 582 -59 611 -30 c 0,172,173
 639 -2 639 -2 639 39 c 0,174,175
 639 61 639 61 639 107 c 1,176,177
 584 52 584 52 473 -59 c 1,178,179
 496 -59 496 -59 542 -59 c 0,170,171
639 257 m 1,180,181
 534 152 534 152 323 -59 c 1,182,183
 360 -59 360 -59 434 -59 c 1,184,185
 503 9 503 9 639 146 c 1,186,187
 639 183 639 183 639 257 c 1,180,181
542 431 m 0,188,189
 532 431 532 431 514 431 c 1,190,191
 392 309 392 309 149 67 c 1,192,193
 149 57 149 57 149 39 c 256,194,195
 149 21 149 21 155 5 c 0,196,197
 161 -10 161 -10 171 -23 c 1,198,199
 315 121 315 121 603 409 c 1,200,201
 591 419 591 419 575 425 c 256,202,203
 559 431 559 431 542 431 c 0,188,189
364 431 m 1,204,205
 292 359 292 359 149 216 c 1,206,207
 149 179 149 179 149 105 c 1,208,209
 258 214 258 214 475 431 c 1,210,211
 438 431 438 431 364 431 c 1,204,205
639 333 m 0,212,213
 639 349 639 349 635 363 c 0,214,215
 630 377 630 377 622 389 c 1,216,217
 478 246 478 246 191 -42 c 1,218,219
 203 -50 203 -50 217 -55 c 0,220,221
 231 -59 231 -59 247 -59 c 0,222,223
 260 -59 260 -59 285 -59 c 1,224,225
 403 59 403 59 639 295 c 1,226,227
 639 308 639 308 639 333 c 0,212,213
1072 -59 m 1,228,229
 1073 -59 1073 -59 1076 -59 c 0,230,231
 1116 -59 1116 -59 1145 -30 c 0,232,233
 1174 -2 1174 -2 1174 39 c 0,234,235
 1174 40 1174 40 1174 43 c 1,236,237
 1140 9 1140 9 1072 -59 c 1,228,229
684 340 m 1,238,239
 714 370 714 370 774 431 c 1,240,241
 738 428 738 428 713 402 c 0,242,243
 687 376 687 376 684 340 c 1,238,239
684 301 m 1,244,245
 684 264 684 264 684 190 c 1,246,247
 764 271 764 271 924 431 c 1,248,249
 887 431 887 431 813 431 c 1,250,251
 770 388 770 388 684 301 c 1,244,245
963 431 m 1,252,253
 870 338 870 338 684 152 c 1,254,255
 684 115 684 115 684 41 c 1,256,257
 814 171 814 171 1074 431 c 1,258,259
 1037 431 1037 431 963 431 c 1,252,253
1174 333 m 1,260,261
 1174 335 1174 335 1174 338 c 0,262,263
 1174 340 1174 340 1173 342 c 1,264,265
 1040 208 1040 208 773 -59 c 1,266,267
 775 -59 775 -59 777 -59 c 256,268,269
 779 -59 779 -59 781 -59 c 0,270,271
 815 -59 815 -59 883 -59 c 1,272,273
 980 37 980 37 1174 231 c 1,274,275
 1174 265 1174 265 1174 333 c 1,276,277
 1174 333 1174 333 1174 333 c 1,260,261
1107 426 m 1,278,279
 968 286 968 286 689 7 c 1,280,281
 696 -12 696 -12 710 -27 c 256,282,283
 724 -42 724 -42 742 -51 c 1,284,285
 883 90 883 90 1166 373 c 1,286,287
 1157 391 1157 391 1142 405 c 256,288,289
 1127 419 1127 419 1107 426 c 1,278,279
1174 193 m 1,290,291
 1090 109 1090 109 922 -59 c 1,292,293
 959 -59 959 -59 1033 -59 c 1,294,295
 1080 -12 1080 -12 1174 81 c 1,296,297
 1174 118 1174 118 1174 193 c 1,290,291
EndSplineSet
Validated: 5
EndChar

StartChar: unie607
Encoding: 58887 58887 10
Width: 1325
Flags: W
LayerCount: 2
Fore
SplineSet
1140 653 m 0,0,1
 1141 660 1141 660 1142 667 c 0,2,3
 1143 673 1143 673 1143 681 c 0,4,5
 1143 736 1143 736 1103 785 c 256,6,7
 1063 834 1063 834 988 871 c 0,8,9
 916 907 916 907 825 926 c 0,10,11
 733 945 733 945 632 945 c 0,12,13
 532 945 532 945 440 926 c 256,14,15
 348 907 348 907 276 871 c 0,16,17
 202 834 202 834 162 785 c 0,18,19
 122 735 122 735 122 681 c 0,20,21
 122 673 122 673 123 667 c 0,22,23
 123 660 123 660 125 653 c 0,24,25
 123 647 123 647 123 640 c 0,26,27
 122 633 122 633 122 626 c 0,28,29
 122 606 122 606 127 588 c 0,30,31
 132 569 132 569 142 551 c 1,32,33
 132 533 132 533 127 514 c 256,34,35
 122 495 122 495 122 476 c 0,36,37
 122 469 122 469 123 462 c 0,38,39
 123 455 123 455 125 448 c 0,40,41
 123 442 123 442 123 435 c 0,42,43
 122 428 122 428 122 421 c 0,44,45
 122 402 122 402 127 383 c 256,46,47
 132 364 132 364 142 346 c 1,48,49
 132 328 132 328 127 309 c 256,50,51
 122 290 122 290 122 271 c 0,52,53
 122 264 122 264 123 257 c 0,54,55
 123 250 123 250 125 244 c 0,56,57
 123 237 123 237 123 230 c 0,58,59
 122 223 122 223 122 216 c 0,60,61
 122 161 122 161 162 112 c 256,62,63
 202 63 202 63 276 26 c 0,64,65
 348 -10 348 -10 440 -29 c 256,66,67
 532 -48 532 -48 632 -48 c 0,68,69
 733 -48 733 -48 825 -29 c 0,70,71
 916 -10 916 -10 988 26 c 0,72,73
 1063 63 1063 63 1103 112 c 0,74,75
 1143 162 1143 162 1143 216 c 0,76,77
 1143 223 1143 223 1142 230 c 256,78,79
 1141 237 1141 237 1140 244 c 0,80,81
 1141 250 1141 250 1142 257 c 256,82,83
 1143 264 1143 264 1143 271 c 0,84,85
 1143 290 1143 290 1138 309 c 0,86,87
 1132 328 1132 328 1123 346 c 1,88,89
 1132 364 1132 364 1138 383 c 0,90,91
 1143 402 1143 402 1143 421 c 0,92,93
 1143 428 1143 428 1142 435 c 256,94,95
 1141 442 1141 442 1140 448 c 0,96,97
 1141 455 1141 455 1142 462 c 256,98,99
 1143 469 1143 469 1143 476 c 0,100,101
 1143 495 1143 495 1138 514 c 0,102,103
 1132 533 1132 533 1123 551 c 1,104,105
 1132 569 1132 569 1138 588 c 0,106,107
 1143 606 1143 606 1143 626 c 0,108,109
 1143 633 1143 633 1142 639 c 0,110,111
 1141 646 1141 646 1140 653 c 0,0,1
971 60 m 0,112,113
 904 26 904 26 816 8 c 0,114,115
 729 -10 729 -10 632 -10 c 0,116,117
 536 -10 536 -10 449 8 c 0,118,119
 361 26 361 26 294 60 c 0,120,121
 260 77 260 77 235 96 c 0,122,123
 210 114 210 114 193 135 c 1,124,125
 210 120 210 120 231 107 c 0,126,127
 252 93 252 93 276 81 c 0,128,129
 348 45 348 45 440 26 c 256,130,131
 532 7 532 7 632 7 c 0,132,133
 733 7 733 7 825 26 c 0,134,135
 916 45 916 45 988 81 c 0,136,137
 1013 93 1013 93 1034 107 c 256,138,139
 1055 121 1055 121 1072 135 c 1,140,141
 1055 114 1055 114 1029 96 c 0,142,143
 1004 77 1004 77 971 60 c 0,112,113
1104 271 m 0,144,145
 1104 227 1104 227 1070 187 c 0,146,147
 1035 147 1035 147 971 114 c 0,148,149
 904 80 904 80 816 62 c 0,150,151
 729 44 729 44 632 44 c 0,152,153
 536 44 536 44 449 62 c 0,154,155
 361 80 361 80 294 114 c 0,156,157
 229 147 229 147 195 187 c 0,158,159
 160 227 160 227 160 271 c 0,160,161
 160 281 160 281 162 291 c 0,162,163
 164 300 164 300 168 310 c 1,164,165
 187 288 187 288 215 267 c 0,166,167
 242 247 242 247 276 230 c 0,168,169
 348 194 348 194 440 175 c 256,170,171
 532 156 532 156 632 156 c 0,172,173
 733 156 733 156 825 175 c 0,174,175
 916 194 916 194 988 230 c 0,176,177
 1023 247 1023 247 1050 267 c 0,178,179
 1077 288 1077 288 1097 310 c 1,180,181
 1100 300 1100 300 1102 291 c 0,182,183
 1104 281 1104 281 1104 271 c 0,144,145
971 265 m 0,184,185
 904 231 904 231 816 213 c 0,186,187
 729 195 729 195 632 195 c 0,188,189
 536 195 536 195 449 213 c 0,190,191
 361 231 361 231 294 265 c 0,192,193
 260 281 260 281 235 300 c 256,194,195
 210 319 210 319 193 340 c 1,196,197
 210 325 210 325 231 311 c 256,198,199
 252 297 252 297 276 285 c 0,200,201
 348 249 348 249 440 230 c 256,202,203
 532 211 532 211 632 211 c 0,204,205
 733 211 733 211 825 230 c 0,206,207
 916 249 916 249 988 285 c 0,208,209
 1013 297 1013 297 1034 311 c 256,210,211
 1055 325 1055 325 1072 340 c 1,212,213
 1055 319 1055 319 1029 300 c 0,214,215
 1004 281 1004 281 971 265 c 0,184,185
1104 476 m 0,216,217
 1104 432 1104 432 1070 392 c 0,218,219
 1035 351 1035 351 971 319 c 0,220,221
 904 285 904 285 816 267 c 0,222,223
 729 249 729 249 632 249 c 0,224,225
 536 249 536 249 449 267 c 0,226,227
 361 285 361 285 294 319 c 0,228,229
 229 351 229 351 195 392 c 0,230,231
 160 432 160 432 160 476 c 0,232,233
 160 486 160 486 162 495 c 0,234,235
 164 505 164 505 168 515 c 1,236,237
 187 492 187 492 215 472 c 0,238,239
 242 452 242 452 276 435 c 0,240,241
 348 399 348 399 440 380 c 256,242,243
 532 361 532 361 632 361 c 0,244,245
 733 361 733 361 825 380 c 0,246,247
 916 399 916 399 988 435 c 0,248,249
 1023 452 1023 452 1050 472 c 256,250,251
 1077 492 1077 492 1097 515 c 1,252,253
 1100 505 1100 505 1102 495 c 0,254,255
 1104 486 1104 486 1104 476 c 0,216,217
294 837 m 0,256,257
 361 871 361 871 449 889 c 0,258,259
 536 907 536 907 632 907 c 0,260,261
 729 907 729 907 816 889 c 256,262,263
 903 871 903 871 971 837 c 0,264,265
 1035 804 1035 804 1070 764 c 0,266,267
 1104 724 1104 724 1104 680 c 0,268,269
 1104 637 1104 637 1070 596 c 0,270,271
 1035 556 1035 556 971 524 c 0,272,273
 904 490 904 490 816 472 c 0,274,275
 729 454 729 454 632 454 c 0,276,277
 536 454 536 454 449 472 c 0,278,279
 361 490 361 490 294 524 c 0,280,281
 229 556 229 556 195 597 c 0,282,283
 160 637 160 637 160 681 c 0,284,285
 160 724 160 724 195 764 c 0,286,287
 229 805 229 805 294 837 c 0,256,257
971 469 m 0,288,289
 904 435 904 435 816 417 c 0,290,291
 729 399 729 399 632 399 c 0,292,293
 536 399 536 399 449 417 c 0,294,295
 361 435 361 435 294 469 c 0,296,297
 260 486 260 486 235 505 c 256,298,299
 210 524 210 524 193 544 c 1,300,301
 210 529 210 529 231 516 c 0,302,303
 252 502 252 502 276 490 c 0,304,305
 348 454 348 454 440 435 c 256,306,307
 532 416 532 416 632 416 c 0,308,309
 733 416 733 416 825 435 c 0,310,311
 916 454 916 454 988 490 c 0,312,313
 1013 502 1013 502 1034 516 c 256,314,315
 1055 530 1055 530 1072 544 c 1,316,317
 1055 524 1055 524 1029 505 c 0,318,319
 1004 486 1004 486 971 469 c 0,288,289
EndSplineSet
Validated: 9
EndChar

StartChar: unie608
Encoding: 58888 58888 11
Width: 1325
Flags: W
LayerCount: 2
Fore
SplineSet
330 815 m 256,0,1
 330 801 330 801 320 791 c 256,2,3
 310 781 310 781 296 781 c 256,4,5
 282 781 282 781 272 791 c 256,6,7
 262 801 262 801 262 815 c 256,8,9
 262 829 262 829 272 839 c 256,10,11
 282 849 282 849 296 849 c 256,12,13
 310 849 310 849 320 839 c 256,14,15
 330 829 330 829 330 815 c 256,0,1
424 815 m 256,16,17
 424 801 424 801 414 791 c 256,18,19
 404 781 404 781 390 781 c 0,20,21
 375 781 375 781 365 791 c 256,22,23
 355 801 355 801 355 815 c 256,24,25
 355 829 355 829 365 839 c 256,26,27
 375 849 375 849 390 849 c 0,28,29
 404 849 404 849 414 839 c 256,30,31
 424 829 424 829 424 815 c 256,16,17
663 567 m 1,32,33
 782 567 782 567 1021 567 c 1,34,35
 1021 539 1021 539 1021 482 c 1,36,37
 902 482 902 482 663 482 c 1,38,39
 663 511 663 511 663 567 c 1,32,33
663 397 m 1,40,41
 782 397 782 397 1021 397 c 1,42,43
 1021 368 1021 368 1021 311 c 1,44,45
 902 311 902 311 663 311 c 1,46,47
 663 340 663 340 663 397 c 1,40,41
663 226 m 1,48,49
 782 226 782 226 1021 226 c 1,50,51
 1021 198 1021 198 1021 141 c 1,52,53
 902 141 902 141 663 141 c 1,54,55
 663 169 663 169 663 226 c 1,48,49
287 141 m 1,56,57
 372 141 372 141 543 141 c 1,58,59
 543 283 543 283 543 567 c 1,60,61
 458 567 458 567 287 567 c 1,62,63
 287 567 287 567 287 512 c 256,64,65
 287 457 287 457 287 386 c 0,66,67
 287 355 287 355 287 325 c 0,68,69
 287 294 287 294 287 266 c 0,70,71
 287 213 287 213 287 177 c 256,72,73
 287 141 287 141 287 141 c 1,56,57
987 960 m 0,74,75
 771 960 771 960 338 960 c 0,76,77
 262 960 262 960 206 905 c 0,78,79
 151 849 151 849 151 772 c 0,80,81
 151 728 151 728 151 638 c 0,82,83
 151 464 151 464 151 115 c 0,84,85
 151 45 151 45 206 -10 c 0,86,87
 262 -64 262 -64 338 -64 c 0,88,89
 557 -64 557 -64 995 -64 c 0,90,91
 1066 -64 1066 -64 1120 -9 c 0,92,93
 1175 47 1175 47 1175 124 c 0,94,95
 1175 340 1175 340 1175 772 c 0,96,97
 1175 849 1175 849 1119 905 c 0,98,99
 1064 960 1064 960 987 960 c 0,74,75
987 -21 m 0,100,101
 771 -21 771 -21 338 -21 c 0,102,103
 281 -21 281 -21 237 22 c 0,104,105
 193 66 193 66 193 124 c 0,106,107
 193 205 193 205 193 367 c 0,108,109
 193 502 193 502 193 772 c 0,110,111
 193 830 193 830 237 874 c 0,112,113
 281 917 281 917 338 917 c 0,114,115
 557 917 557 917 995 917 c 0,116,117
 1053 917 1053 917 1097 874 c 0,118,119
 1140 830 1140 830 1140 772 c 0,120,121
 1140 761 1140 761 1140 738 c 1,122,123
 828 738 828 738 202 738 c 1,124,125
 202 724 202 724 202 695 c 1,126,127
 515 695 515 695 1140 695 c 1,128,129
 1140 505 1140 505 1140 124 c 1,130,131
 1134 60 1134 60 1092 19 c 0,132,133
 1051 -21 1051 -21 987 -21 c 0,100,101
EndSplineSet
Validated: 9
EndChar

StartChar: unie609
Encoding: 58889 58889 12
Width: 1325
Flags: W
LayerCount: 2
Fore
SplineSet
329 819 m 0,0,1
 329 803 329 803 318 793 c 0,2,3
 307 782 307 782 292 782 c 256,4,5
 277 782 277 782 266 793 c 0,6,7
 255 803 255 803 255 819 c 0,8,9
 255 834 255 834 266 845 c 0,10,11
 277 855 277 855 292 855 c 256,12,13
 307 855 307 855 318 845 c 0,14,15
 329 834 329 834 329 819 c 0,0,1
424 819 m 0,16,17
 424 803 424 803 413 793 c 0,18,19
 402 782 402 782 387 782 c 256,20,21
 372 782 372 782 361 793 c 0,22,23
 350 803 350 803 350 819 c 0,24,25
 350 834 350 834 361 845 c 0,26,27
 372 855 372 855 387 855 c 256,28,29
 402 855 402 855 413 845 c 0,30,31
 424 834 424 834 424 819 c 0,16,17
287 577 m 1,32,33
 533 577 533 577 1023 577 c 1,34,35
 1023 563 1023 563 1023 536 c 1,36,37
 778 536 778 536 287 536 c 1,38,39
 287 550 287 550 287 577 c 1,32,33
650 475 m 1,40,41
 774 475 774 475 1021 475 c 1,42,43
 1021 461 1021 461 1021 433 c 1,44,45
 897 433 897 433 650 433 c 1,46,47
 650 447 650 447 650 475 c 1,40,41
650 160 m 1,48,49
 774 160 774 160 1021 160 c 1,50,51
 1021 147 1021 147 1021 119 c 1,52,53
 897 119 897 119 650 119 c 1,54,55
 650 133 650 133 650 160 c 1,48,49
650 265 m 1,56,57
 774 265 774 265 1021 265 c 1,58,59
 1021 251 1021 251 1021 224 c 1,60,61
 897 224 897 224 650 224 c 1,62,63
 650 237 650 237 650 265 c 1,56,57
650 370 m 1,64,65
 774 370 774 370 1021 370 c 1,66,67
 1021 356 1021 356 1021 329 c 1,68,69
 897 329 897 329 650 329 c 1,70,71
 650 342 650 342 650 370 c 1,64,65
287 121 m 1,72,73
 374 121 374 121 548 121 c 1,74,75
 548 239 548 239 548 475 c 1,76,77
 461 475 461 475 287 475 c 1,78,79
 287 459 287 459 287 427 c 0,80,81
 287 325 287 325 287 121 c 1,72,73
326 433 m 1,82,83
 386 433 386 433 506 433 c 1,84,85
 506 343 506 343 506 163 c 1,86,87
 446 163 446 163 326 163 c 1,88,89
 326 231 326 231 326 367 c 0,90,91
 326 389 326 389 326 433 c 1,82,83
989 960 m 0,92,93
 772 960 772 960 336 960 c 0,94,95
 259 960 259 960 205 906 c 256,96,97
 151 852 151 852 151 775 c 0,98,99
 151 730 151 730 151 642 c 0,100,101
 151 468 151 468 151 121 c 0,102,103
 151 44 151 44 205 -10 c 256,104,105
 259 -64 259 -64 336 -64 c 0,106,107
 554 -64 554 -64 989 -64 c 0,108,109
 1066 -64 1066 -64 1120 -10 c 256,110,111
 1174 44 1174 44 1174 121 c 0,112,113
 1174 339 1174 339 1174 775 c 0,114,115
 1175 852 1175 852 1120 906 c 0,116,117
 1066 960 1066 960 989 960 c 0,92,93
989 -23 m 0,118,119
 772 -23 772 -23 336 -23 c 0,120,121
 275 -23 275 -23 234 19 c 0,122,123
 192 61 192 61 192 121 c 0,124,125
 192 203 192 203 192 366 c 0,126,127
 192 503 192 503 192 775 c 0,128,129
 192 835 192 835 234 877 c 0,130,131
 275 919 275 919 336 919 c 0,132,133
 554 919 554 919 989 919 c 0,134,135
 1050 919 1050 919 1091 877 c 0,136,137
 1133 835 1133 835 1133 775 c 0,138,139
 1133 763 1133 763 1133 738 c 1,140,141
 819 738 819 738 192 738 c 1,142,143
 192 724 192 724 192 697 c 1,144,145
 506 697 506 697 1133 697 c 1,146,147
 1133 505 1133 505 1133 121 c 0,148,149
 1133 61 1133 61 1091 19 c 0,150,151
 1050 -23 1050 -23 989 -23 c 0,118,119
EndSplineSet
Validated: 37
EndChar

StartChar: unie60a
Encoding: 58890 58890 13
Width: 1325
Flags: W
LayerCount: 2
Fore
SplineSet
1008 778 m 0,0,1
 770 778 770 778 295 778 c 0,2,3
 264 778 264 778 241 800 c 0,4,5
 219 823 219 823 219 854 c 256,6,7
 219 885 219 885 241 907 c 0,8,9
 264 930 264 930 295 930 c 0,10,11
 533 930 533 930 1011 930 c 0,12,13
 1042 930 1042 930 1065 907 c 0,14,15
 1087 885 1087 885 1087 854 c 0,16,17
 1085 823 1085 823 1062 800 c 0,18,19
 1039 778 1039 778 1008 778 c 0,0,1
295 892 m 1,20,21
 278 892 278 892 266 881 c 0,22,23
 253 870 253 870 253 854 c 0,24,25
 253 837 253 837 266 825 c 0,26,27
 278 813 278 813 295 813 c 0,28,29
 533 813 533 813 1011 813 c 0,30,31
 1028 813 1028 813 1040 825 c 256,32,33
 1052 837 1052 837 1052 854 c 256,34,35
 1052 871 1052 871 1040 883 c 256,36,37
 1028 895 1028 895 1011 895 c 0,38,39
 772 895 772 895 295 895 c 1,40,41
 295 894 295 894 295 892 c 1,20,21
586 -34 m 1,42,43
 586 119 586 119 586 426 c 1,44,45
 490 534 490 534 298 749 c 1,46,47
 538 749 538 749 1017 749 c 1,48,49
 916 639 916 639 713 419 c 1,50,51
 713 310 713 310 713 90 c 1,52,53
 671 49 671 49 586 -34 c 1,42,43
374 714 m 1,54,55
 456 621 456 621 621 435 c 1,56,57
 621 305 621 305 621 45 c 1,58,59
 640 64 640 64 678 102 c 1,60,61
 678 212 678 212 678 432 c 1,62,63
 766 526 766 526 941 714 c 1,64,65
 752 714 752 714 374 714 c 1,54,55
EndSplineSet
Validated: 1
EndChar

StartChar: unie60b
Encoding: 58891 58891 14
Width: 1325
Flags: W
LayerCount: 2
Fore
SplineSet
974 759 m 1,0,1
 904 612 904 612 763 319 c 1,2,3
 706 329 706 329 593 349 c 1,4,5
 588 345 588 345 579 336 c 0,6,7
 504 261 504 261 352 111 c 1,8,9
 423 257 423 257 565 550 c 1,10,11
 622 541 622 541 738 524 c 1,12,13
 742 528 742 528 751 537 c 0,14,15
 825 611 825 611 974 759 c 1,0,1
1098 933 m 1,16,17
 974 809 974 809 725 563 c 1,18,19
 664 572 664 572 543 589 c 1,20,21
 438 372 438 372 227 -64 c 1,22,23
 353 61 353 61 605 310 c 1,24,25
 664 300 664 300 784 278 c 1,26,27
 889 497 889 497 1098 933 c 1,28,29
 1098 933 1098 933 1098 933 c 1,16,17
207 468 m 0,30,31
 207 534 207 534 225 595 c 0,32,33
 243 655 243 655 275 708 c 0,34,35
 335 805 335 805 438 864 c 0,36,37
 540 924 540 924 663 924 c 0,38,39
 731 924 731 924 795 904 c 0,40,41
 858 885 858 885 911 850 c 1,42,43
 920 858 920 858 938 876 c 1,44,45
 879 916 879 916 809 938 c 256,46,47
 739 960 739 960 663 960 c 0,48,49
 591 960 591 960 526 941 c 0,50,51
 460 921 460 921 403 886 c 0,52,53
 298 821 298 821 234 710 c 0,54,55
 170 600 170 600 170 468 c 0,56,57
 170 387 170 387 195 313 c 0,58,59
 220 240 220 240 264 179 c 1,60,61
 270 192 270 192 282 217 c 1,62,63
 247 271 247 271 227 334 c 0,64,65
 207 398 207 398 207 468 c 0,30,31
1119 468 m 0,66,67
 1119 402 1119 402 1101 341 c 256,68,69
 1083 280 1083 280 1050 228 c 0,70,71
 990 131 990 131 887 71 c 0,72,73
 785 12 785 12 663 12 c 0,74,75
 607 12 607 12 555 25 c 256,76,77
 503 38 503 38 457 61 c 1,78,79
 448 52 448 52 430 35 c 1,80,81
 482 6 482 6 540 -9 c 0,82,83
 599 -25 599 -25 663 -25 c 0,84,85
 734 -25 734 -25 800 -5 c 0,86,87
 865 14 865 14 922 49 c 0,88,89
 1027 115 1027 115 1091 225 c 0,90,91
 1155 336 1155 336 1155 468 c 0,92,93
 1155 539 1155 539 1135 605 c 0,94,95
 1116 671 1116 671 1080 728 c 1,96,97
 1074 715 1074 715 1061 689 c 1,98,99
 1089 639 1089 639 1104 584 c 0,100,101
 1119 528 1119 528 1119 468 c 0,66,67
EndSplineSet
Validated: 5
EndChar

StartChar: unie60c
Encoding: 58892 58892 15
Width: 1280
Flags: W
LayerCount: 2
Fore
SplineSet
957 598 m 0,0,1
 957 644 957 644 945 686 c 0,2,3
 932 728 932 728 909 765 c 0,4,5
 867 832 867 832 796 874 c 0,6,7
 725 915 725 915 640 915 c 0,8,9
 594 915 594 915 552 902 c 0,10,11
 509 890 509 890 473 867 c 0,12,13
 406 825 406 825 364 754 c 0,14,15
 323 683 323 683 323 598 c 0,16,17
 323 499 323 499 378 419 c 0,18,19
 433 340 433 340 520 304 c 1,20,21
 523 314 523 314 529 335 c 1,22,23
 452 368 452 368 403 439 c 0,24,25
 355 509 355 509 355 598 c 0,26,27
 355 639 355 639 366 677 c 256,28,29
 377 715 377 715 397 748 c 0,30,31
 435 809 435 809 499 846 c 256,32,33
 563 883 563 883 640 883 c 0,34,35
 681 883 681 883 719 872 c 0,36,37
 758 861 758 861 790 840 c 0,38,39
 851 803 851 803 888 739 c 0,40,41
 925 674 925 674 925 598 c 0,42,43
 925 509 925 509 877 439 c 0,44,45
 828 368 828 368 751 335 c 1,46,47
 754 325 754 325 760 304 c 1,48,49
 847 340 847 340 902 419 c 256,50,51
 957 498 957 498 957 598 c 0,0,1
550 413 m 1,52,53
 499 438 499 438 467 488 c 0,54,55
 435 537 435 537 435 598 c 0,56,57
 435 683 435 683 495 743 c 0,58,59
 556 803 556 803 640 803 c 0,60,61
 725 803 725 803 785 743 c 0,62,63
 846 683 846 683 846 598 c 0,64,65
 846 537 846 537 813 488 c 0,66,67
 781 439 781 439 730 413 c 1,68,69
 733 403 733 403 739 382 c 1,70,71
 800 410 800 410 839 468 c 256,72,73
 878 526 878 526 878 598 c 0,74,75
 878 662 878 662 847 715 c 256,76,77
 816 768 816 768 765 799 c 0,78,79
 738 816 738 816 707 825 c 0,80,81
 675 835 675 835 641 835 c 256,82,83
 607 835 607 835 575 825 c 0,84,85
 543 816 543 816 516 799 c 0,86,87
 465 768 465 768 434 715 c 256,88,89
 403 662 403 662 403 598 c 0,90,91
 403 526 403 526 442 468 c 0,92,93
 480 410 480 410 542 382 c 1,94,95
 545 393 545 393 550 413 c 1,96,97
 550 413 550 413 550 413 c 1,52,53
797 598 m 0,98,99
 797 662 797 662 751 708 c 256,100,101
 705 754 705 754 640 754 c 256,102,103
 575 754 575 754 529 709 c 0,104,105
 483 663 483 663 483 598 c 0,106,107
 483 554 483 554 506 518 c 0,108,109
 528 481 528 481 563 462 c 1,110,111
 563 462 563 462 564 463 c 0,112,113
 566 471 566 471 569 478 c 0,114,115
 573 484 573 484 577 490 c 1,116,117
 549 507 549 507 532 535 c 0,118,119
 515 564 515 564 515 598 c 0,120,121
 515 650 515 650 552 686 c 0,122,123
 588 723 588 723 640 723 c 0,124,125
 691 723 691 723 728 686 c 0,126,127
 764 650 764 650 764 598 c 0,128,129
 764 564 764 564 747 535 c 0,130,131
 730 507 730 507 702 490 c 1,132,133
 706 484 706 484 710 478 c 0,134,135
 713 471 713 471 716 463 c 2,136,137
 716 463 716 463 716 462 c 1,138,139
 752 481 752 481 774 518 c 0,140,141
 797 554 797 554 797 598 c 0,98,99
716 598 m 0,142,143
 716 629 716 629 694 651 c 0,144,145
 671 674 671 674 640 674 c 256,146,147
 609 674 609 674 586 651 c 0,148,149
 564 629 564 629 564 598 c 0,150,151
 564 566 564 566 586 544 c 0,152,153
 609 522 609 522 640 522 c 256,154,155
 671 522 671 522 694 544 c 0,156,157
 716 566 716 566 716 598 c 0,142,143
640 642 m 256,158,159
 658 642 658 642 671 629 c 256,160,161
 684 616 684 616 684 598 c 256,162,163
 684 580 684 580 671 566 c 0,164,165
 658 553 658 553 640 553 c 256,166,167
 622 553 622 553 609 566 c 0,168,169
 596 580 596 580 596 598 c 256,170,171
 596 616 596 616 609 629 c 256,172,173
 622 642 622 642 640 642 c 256,158,159
686 454 m 1,174,175
 681 470 681 470 669 480 c 0,176,177
 656 489 656 489 640 489 c 256,178,179
 624 489 624 489 611 479 c 0,180,181
 599 470 599 470 594 454 c 0,182,183
 556 316 556 316 480 39 c 0,184,185
 478 33 478 33 478 27 c 0,186,187
 478 22 478 22 479 18 c 0,188,189
 481 7 481 7 488 -2 c 256,190,191
 495 -11 495 -11 505 -16 c 0,192,193
 514 -21 514 -21 526 -21 c 0,194,195
 602 -21 602 -21 755 -21 c 0,196,197
 766 -21 766 -21 776 -16 c 256,198,199
 786 -11 786 -11 792 -2 c 0,200,201
 799 7 799 7 801 18 c 0,202,203
 802 22 802 22 802 27 c 0,204,205
 802 33 802 33 800 39 c 0,206,207
 762 178 762 178 686 454 c 1,208,209
 686 454 686 454 686 454 c 1,174,175
767 17 m 0,210,211
 764 14 764 14 761 13 c 0,212,213
 758 11 758 11 754 11 c 0,214,215
 678 11 678 11 525 11 c 0,216,217
 521 11 521 11 518 13 c 0,218,219
 515 14 515 14 513 17 c 256,220,221
 511 20 511 20 510 24 c 0,222,223
 510 25 510 25 510 27 c 256,224,225
 510 29 510 29 510 31 c 0,226,227
 548 169 548 169 625 446 c 0,228,229
 627 454 627 454 632 456 c 0,230,231
 638 457 638 457 640 457 c 0,232,233
 641 457 641 457 647 456 c 0,234,235
 652 454 652 454 655 446 c 0,236,237
 693 307 693 307 769 31 c 0,238,239
 770 28 770 28 770 26 c 0,240,241
 770 25 770 25 770 24 c 0,242,243
 769 20 769 20 767 17 c 0,210,211
EndSplineSet
Validated: 5
EndChar

StartChar: unie60d
Encoding: 58893 58893 16
Width: 1280
Flags: W
LayerCount: 2
Fore
SplineSet
811 879 m 1,0,1
 849 879 849 879 876 852 c 256,2,3
 903 825 903 825 903 787 c 0,4,5
 903 710 903 710 903 557 c 1,6,7
 910 554 910 554 923 548 c 0,8,9
 949 537 949 537 996 532 c 0,10,11
 1043 528 1043 528 1060 528 c 0,12,13
 1061 528 1061 528 1062 528 c 256,14,15
 1063 528 1063 528 1064 528 c 0,16,17
 1075 528 1075 528 1097 528 c 1,18,19
 1097 545 1097 545 1097 578 c 1,20,21
 1141 534 1141 534 1229 446 c 1,22,23
 1185 402 1185 402 1097 314 c 1,24,25
 1097 330 1097 330 1097 364 c 1,26,27
 1086 364 1086 364 1064 364 c 0,28,29
 1063 364 1063 364 1062 364 c 256,30,31
 1061 364 1061 364 1060 364 c 0,32,33
 1042 364 1042 364 996 360 c 0,34,35
 949 355 949 355 923 344 c 0,36,37
 916 341 916 341 903 335 c 1,38,39
 903 258 903 258 903 105 c 0,40,41
 903 67 903 67 876 40 c 256,42,43
 849 13 849 13 811 13 c 0,44,45
 583 13 583 13 129 13 c 0,46,47
 91 13 91 13 64 40 c 256,48,49
 37 67 37 67 37 105 c 0,50,51
 37 190 37 190 37 362 c 0,52,53
 37 503 37 503 37 787 c 0,54,55
 37 825 37 825 64 852 c 256,56,57
 91 879 91 879 129 879 c 0,58,59
 356 879 356 879 811 879 c 1,60,61
 811 879 811 879 811 879 c 1,0,1
811 913 m 0,62,63
 583 913 583 913 129 913 c 0,64,65
 77 913 77 913 40 876 c 256,66,67
 3 839 3 839 3 787 c 0,68,69
 3 560 3 560 3 106 c 0,70,71
 3 54 3 54 40 17 c 256,72,73
 77 -20 77 -20 129 -20 c 0,74,75
 356 -20 356 -20 811 -20 c 0,76,77
 863 -20 863 -20 900 17 c 256,78,79
 937 54 937 54 937 106 c 0,80,81
 937 175 937 175 937 313 c 1,82,83
 956 321 956 321 997 326 c 0,84,85
 1039 330 1039 330 1060 330 c 0,86,87
 1061 330 1061 330 1062 330 c 2,88,89
 1062 330 1062 330 1063 330 c 1,90,91
 1063 297 1063 297 1063 232 c 1,92,93
 1135 303 1135 303 1278 447 c 1,94,95
 1206 518 1206 518 1063 662 c 1,96,97
 1063 629 1063 629 1063 563 c 1,98,99
 1062 563 1062 563 1062 563 c 2,100,101
 1061 563 1061 563 1060 563 c 0,102,103
 1039 563 1039 563 997 568 c 0,104,105
 956 572 956 572 937 580 c 1,106,107
 937 649 937 649 937 787 c 0,108,109
 937 839 937 839 900 876 c 256,110,111
 863 913 863 913 811 913 c 0,62,63
377 804 m 0,112,113
 394 804 394 804 406 792 c 0,114,115
 418 779 418 779 418 762 c 0,116,117
 418 686 418 686 418 534 c 0,118,119
 418 517 418 517 406 505 c 256,120,121
 394 493 394 493 377 493 c 0,122,123
 301 493 301 493 148 493 c 0,124,125
 131 493 131 493 119 505 c 256,126,127
 107 517 107 517 107 534 c 0,128,129
 107 610 107 610 107 762 c 0,130,131
 107 780 107 780 119 792 c 0,132,133
 132 804 132 804 148 804 c 0,134,135
 225 804 225 804 377 804 c 0,112,113
377 838 m 0,136,137
 301 838 301 838 148 838 c 0,138,139
 117 838 117 838 95 816 c 0,140,141
 73 793 73 793 73 762 c 0,142,143
 73 686 73 686 73 534 c 0,144,145
 73 503 73 503 95 481 c 256,146,147
 117 459 117 459 148 459 c 0,148,149
 225 459 225 459 377 459 c 0,150,151
 408 459 408 459 430 481 c 256,152,153
 452 503 452 503 452 534 c 0,154,155
 452 610 452 610 452 762 c 0,156,157
 452 763 452 763 452 764 c 0,158,159
 452 794 452 794 430 816 c 256,160,161
 408 838 408 838 377 838 c 0,136,137
791 804 m 0,162,163
 808 804 808 804 820 792 c 0,164,165
 832 779 832 779 832 762 c 0,166,167
 832 686 832 686 832 534 c 0,168,169
 832 517 832 517 820 505 c 256,170,171
 808 493 808 493 791 493 c 0,172,173
 715 493 715 493 562 493 c 0,174,175
 545 493 545 493 533 505 c 256,176,177
 521 517 521 517 521 534 c 0,178,179
 521 610 521 610 521 762 c 0,180,181
 521 780 521 780 533 792 c 256,182,183
 545 804 545 804 562 804 c 0,184,185
 638 804 638 804 791 804 c 0,162,163
791 838 m 0,186,187
 715 838 715 838 562 838 c 0,188,189
 531 838 531 838 509 816 c 0,190,191
 487 793 487 793 487 762 c 0,192,193
 487 686 487 686 487 534 c 0,194,195
 487 503 487 503 509 481 c 256,196,197
 531 459 531 459 562 459 c 0,198,199
 638 459 638 459 791 459 c 0,200,201
 822 459 822 459 844 481 c 256,202,203
 866 503 866 503 866 534 c 0,204,205
 866 610 866 610 866 762 c 0,206,207
 866 763 866 763 866 764 c 0,208,209
 866 794 866 794 844 816 c 256,210,211
 822 838 822 838 791 838 c 0,186,187
377 400 m 0,212,213
 394 400 394 400 406 388 c 0,214,215
 418 375 418 375 418 358 c 0,216,217
 418 282 418 282 418 130 c 0,218,219
 418 113 418 113 406 101 c 256,220,221
 394 89 394 89 377 89 c 0,222,223
 301 89 301 89 148 89 c 0,224,225
 131 89 131 89 119 101 c 256,226,227
 107 113 107 113 107 130 c 0,228,229
 107 206 107 206 107 358 c 0,230,231
 107 376 107 376 119 388 c 0,232,233
 132 400 132 400 148 400 c 0,234,235
 225 400 225 400 377 400 c 0,212,213
377 434 m 0,236,237
 301 434 301 434 148 434 c 0,238,239
 117 434 117 434 95 412 c 0,240,241
 73 389 73 389 73 358 c 0,242,243
 73 282 73 282 73 130 c 0,244,245
 73 99 73 99 95 77 c 256,246,247
 117 55 117 55 148 55 c 0,248,249
 225 55 225 55 377 55 c 0,250,251
 408 55 408 55 430 77 c 256,252,253
 452 99 452 99 452 130 c 0,254,255
 452 206 452 206 452 358 c 0,256,257
 452 359 452 359 452 360 c 0,258,259
 452 390 452 390 430 412 c 256,260,261
 408 434 408 434 377 434 c 0,236,237
791 400 m 0,262,263
 808 400 808 400 820 388 c 0,264,265
 832 375 832 375 832 358 c 0,266,267
 832 282 832 282 832 130 c 0,268,269
 832 113 832 113 820 101 c 256,270,271
 808 89 808 89 791 89 c 0,272,273
 715 89 715 89 562 89 c 0,274,275
 545 89 545 89 533 101 c 256,276,277
 521 113 521 113 521 130 c 0,278,279
 521 206 521 206 521 358 c 0,280,281
 521 376 521 376 533 388 c 256,282,283
 545 400 545 400 562 400 c 0,284,285
 638 400 638 400 791 400 c 0,262,263
791 434 m 0,286,287
 715 434 715 434 562 434 c 0,288,289
 531 434 531 434 509 412 c 0,290,291
 487 389 487 389 487 358 c 0,292,293
 487 282 487 282 487 130 c 0,294,295
 487 99 487 99 509 77 c 256,296,297
 531 55 531 55 562 55 c 0,298,299
 638 55 638 55 791 55 c 0,300,301
 822 55 822 55 844 77 c 256,302,303
 866 99 866 99 866 130 c 0,304,305
 866 206 866 206 866 358 c 0,306,307
 866 359 866 359 866 360 c 0,308,309
 866 390 866 390 844 412 c 256,310,311
 822 434 822 434 791 434 c 0,286,287
EndSplineSet
Validated: 5
EndChar

StartChar: unie60e
Encoding: 58894 58894 17
Width: 1325
Flags: W
LayerCount: 2
Fore
SplineSet
618 77 m 1,0,1
 609 68 609 68 590 49 c 1,2,3
 573 67 573 67 537 103 c 1,4,5
 546 112 546 112 565 131 c 1,6,7
 582 113 582 113 618 77 c 1,0,1
329 367 m 1,8,9
 320 357 320 357 301 339 c 1,10,11
 284 357 284 357 248 393 c 1,12,13
 257 402 257 402 276 421 c 1,14,15
 293 403 293 403 329 367 c 1,8,9
630 812 m 1,16,17
 640 822 640 822 658 840 c 1,18,19
 644 853 644 853 628 864 c 256,20,21
 612 875 612 875 595 884 c 1,22,23
 586 874 586 874 566 855 c 1,24,25
 584 846 584 846 599 836 c 0,26,27
 615 825 615 825 630 812 c 1,16,17
453 880 m 0,28,29
 475 880 475 880 497 876 c 0,30,31
 519 873 519 873 538 865 c 1,32,33
 548 875 548 875 569 896 c 1,34,35
 548 904 548 904 527 910 c 0,36,37
 506 915 506 915 483 918 c 1,38,39
 470 905 470 905 445 880 c 1,40,41
 448 880 448 880 450 880 c 256,42,43
 452 880 452 880 453 880 c 0,28,29
190 615 m 0,44,45
 190 617 190 617 190 619 c 256,46,47
 190 621 190 621 190 624 c 1,48,49
 177 611 177 611 152 586 c 1,50,51
 154 564 154 564 160 542 c 0,52,53
 165 520 165 520 174 499 c 1,54,55
 184 509 184 509 205 530 c 1,56,57
 197 550 197 550 194 571 c 0,58,59
 190 593 190 593 190 615 c 0,44,45
268 802 m 0,60,61
 296 831 296 831 331 849 c 0,62,63
 366 868 366 868 405 875 c 1,64,65
 420 890 420 890 449 919 c 1,66,67
 408 918 408 918 370 907 c 256,68,69
 332 896 332 896 298 875 c 1,70,71
 264 841 264 841 194 771 c 1,72,73
 173 737 173 737 162 699 c 256,74,75
 151 661 151 661 150 621 c 1,76,77
 165 635 165 635 194 664 c 1,78,79
 202 703 202 703 221 738 c 0,80,81
 239 773 239 773 268 802 c 0,60,61
215 504 m 1,82,83
 205 494 205 494 186 474 c 1,84,85
 195 458 195 458 205 442 c 0,86,87
 216 426 216 426 230 411 c 1,88,89
 239 421 239 421 257 439 c 1,90,91
 244 453 244 453 233 470 c 0,92,93
 223 486 223 486 215 504 c 1,82,83
546 150 m 1,94,95
 537 141 537 141 518 122 c 1,96,97
 500 140 500 140 464 176 c 1,98,99
 473 185 473 185 492 204 c 1,100,101
 510 186 510 186 546 150 c 1,94,95
1137 615 m 0,102,103
 1137 609 1137 609 1136 605 c 0,104,105
 1136 600 1136 600 1135 594 c 1,106,107
 1148 608 1148 608 1175 634 c 1,108,109
 1173 657 1173 657 1168 679 c 256,110,111
 1163 701 1163 701 1156 722 c 1,112,113
 1145 711 1145 711 1125 691 c 1,114,115
 1130 673 1130 673 1133 654 c 0,116,117
 1137 635 1137 635 1137 615 c 0,102,103
1175 597 m 1,118,119
 1159 582 1159 582 1128 550 c 1,120,121
 1119 516 1119 516 1102 485 c 0,122,123
 1084 454 1084 454 1059 429 c 0,124,125
 927 297 927 297 663 33 c 1,126,127
 654 41 654 41 636 59 c 1,128,129
 627 50 627 50 609 31 c 1,130,131
 627 13 627 13 663 -23 c 1,132,133
 808 123 808 123 1100 414 c 0,134,135
 1134 453 1134 453 1153 500 c 0,136,137
 1171 547 1171 547 1175 597 c 1,118,119
402 293 m 1,138,139
 393 284 393 284 374 265 c 1,140,141
 356 283 356 283 320 319 c 1,142,143
 329 329 329 329 348 347 c 1,144,145
 366 329 366 329 402 293 c 1,138,139
473 221 m 1,146,147
 464 212 464 212 445 193 c 1,148,149
 427 211 427 211 392 247 c 1,150,151
 401 256 401 256 419 275 c 1,152,153
 437 257 437 257 473 221 c 1,146,147
968 860 m 1,154,155
 978 870 978 870 998 890 c 1,156,157
 978 899 978 899 957 905 c 256,158,159
 936 911 936 911 914 915 c 1,160,161
 902 902 902 902 878 878 c 1,162,163
 902 878 902 878 925 874 c 0,164,165
 947 869 947 869 968 860 c 1,154,155
663 780 m 1,166,167
 670 787 670 787 685 802 c 0,168,169
 716 834 716 834 756 853 c 0,170,171
 796 873 796 873 840 878 c 1,172,173
 853 892 853 892 881 919 c 1,174,175
 878 919 878 919 876 919 c 256,176,177
 874 919 874 919 872 919 c 0,178,179
 839 919 839 919 808 913 c 0,180,181
 777 906 777 906 748 893 c 1,182,183
 715 860 715 860 650 795 c 1,184,185
 654 790 654 790 663 780 c 1,186,187
 663 780 663 780 663 780 c 1,166,167
1056 805 m 1,188,189
 1065 814 1065 814 1084 833 c 1,190,191
 1070 846 1070 846 1054 858 c 0,192,193
 1039 870 1039 870 1022 880 c 1,194,195
 1013 870 1013 870 993 850 c 1,196,197
 1011 840 1011 840 1026 829 c 0,198,199
 1042 818 1042 818 1056 805 c 1,188,189
1115 719 m 1,200,201
 1124 728 1124 728 1144 748 c 1,202,203
 1135 765 1135 765 1125 782 c 0,204,205
 1115 798 1115 798 1101 812 c 1,206,207
 1092 803 1092 803 1074 784 c 1,208,209
 1087 770 1087 770 1097 753 c 256,210,211
 1107 736 1107 736 1115 719 c 1,200,201
323 746 m 0,212,213
 297 720 297 720 283 686 c 256,214,215
 269 652 269 652 269 615 c 0,216,217
 269 609 269 609 269 605 c 0,218,219
 270 600 270 600 271 596 c 1,220,221
 339 664 339 664 475 801 c 1,222,223
 471 801 471 801 466 801 c 0,224,225
 461 802 461 802 456 802 c 0,226,227
 418 801 418 801 384 787 c 0,228,229
 349 773 349 773 323 746 c 0,212,213
275 565 m 1,230,231
 280 546 280 546 290 528 c 256,232,233
 300 510 300 510 313 495 c 1,234,235
 400 582 400 582 575 757 c 1,236,237
 559 770 559 770 542 779 c 0,238,239
 524 789 524 789 504 795 c 1,240,241
 428 718 428 718 275 565 c 1,230,231
1003 483 m 1,242,243
 1030 509 1030 509 1044 544 c 0,244,245
 1057 578 1057 578 1057 615 c 0,246,247
 1057 617 1057 617 1057 619 c 256,248,249
 1057 621 1057 621 1057 624 c 1,250,251
 912 478 912 478 620 186 c 1,252,253
 634 172 634 172 663 144 c 1,254,255
 776 257 776 257 1003 483 c 1,256,257
 1003 483 1003 483 1003 483 c 1,242,243
475 331 m 1,258,259
 493 313 493 313 529 277 c 1,260,261
 686 434 686 434 1001 748 c 1,262,263
 986 762 986 762 969 772 c 256,264,265
 952 782 952 782 935 789 c 1,266,267
 782 636 782 636 475 331 c 1,258,259
771 770 m 1,268,269
 648 647 648 647 404 403 c 1,270,271
 422 385 422 385 458 349 c 1,272,273
 607 498 607 498 905 796 c 1,274,275
 898 797 898 797 889 798 c 0,276,277
 881 799 881 799 872 799 c 0,278,279
 868 799 868 799 864 799 c 0,280,281
 841 799 841 799 819 793 c 0,282,283
 793 785 793 785 771 770 c 1,268,269
547 259 m 1,284,285
 565 241 565 241 601 205 c 1,286,287
 751 355 751 355 1052 656 c 1,288,289
 1047 676 1047 676 1038 694 c 0,290,291
 1030 712 1030 712 1016 729 c 1,292,293
 860 572 860 572 547 259 c 1,294,295
 547 259 547 259 547 259 c 1,284,285
607 724 m 0,296,297
 603 729 603 729 594 738 c 1,298,299
 506 650 506 650 330 476 c 1,300,301
 349 458 349 458 385 422 c 1,302,303
 472 509 472 509 647 685 c 1,304,305
 643 689 643 689 635 697 c 0,306,307
 626 706 626 706 607 724 c 0,296,297
EndSplineSet
Validated: 5
EndChar

StartChar: unie60f
Encoding: 58895 58895 18
Width: 1325
Flags: W
LayerCount: 2
Fore
SplineSet
1085 830 m 0,0,1
 1043 873 1043 873 987 896 c 0,2,3
 932 919 932 919 872 919 c 0,4,5
 813 919 813 919 759 898 c 0,6,7
 705 876 705 876 663 836 c 1,8,9
 620 876 620 876 566 898 c 0,10,11
 513 919 513 919 453 919 c 256,12,13
 393 919 393 919 338 896 c 256,14,15
 283 873 283 873 240 830 c 256,16,17
 197 787 197 787 174 732 c 0,18,19
 151 676 151 676 151 615 c 0,20,21
 151 553 151 553 174 499 c 0,22,23
 197 444 197 444 240 400 c 0,24,25
 381 259 381 259 663 -23 c 1,26,27
 804 118 804 118 1085 400 c 0,28,29
 1128 443 1128 443 1151 498 c 0,30,31
 1175 553 1175 553 1175 615 c 0,32,33
 1175 676 1175 676 1151 732 c 0,34,35
 1128 787 1128 787 1085 830 c 0,0,1
1058 429 m 0,36,37
 926 297 926 297 663 34 c 1,38,39
 531 166 531 166 268 429 c 0,40,41
 230 466 230 466 210 514 c 256,42,43
 190 562 190 562 190 616 c 256,44,45
 190 670 190 670 210 717 c 0,46,47
 230 765 230 765 268 802 c 0,48,49
 305 839 305 839 353 859 c 0,50,51
 401 880 401 880 455 880 c 256,52,53
 509 880 509 880 557 859 c 0,54,55
 605 839 605 839 642 802 c 0,56,57
 649 795 649 795 664 780 c 1,58,59
 671 787 671 787 686 802 c 0,60,61
 723 839 723 839 771 859 c 0,62,63
 820 880 820 880 873 880 c 256,64,65
 926 880 926 880 975 859 c 0,66,67
 1023 839 1023 839 1060 802 c 0,68,69
 1098 765 1098 765 1118 717 c 256,70,71
 1138 669 1138 669 1138 615 c 256,72,73
 1138 561 1138 561 1116 514 c 0,74,75
 1095 466 1095 466 1058 429 c 0,36,37
872 801 m 0,76,77
 834 801 834 801 800 787 c 256,78,79
 766 773 766 773 740 747 c 0,80,81
 723 731 723 731 690 698 c 0,82,83
 681 688 681 688 663 670 c 1,84,85
 637 696 637 696 585 747 c 0,86,87
 559 774 559 774 525 788 c 0,88,89
 491 801 491 801 453 801 c 0,90,91
 416 801 416 801 382 787 c 0,92,93
 348 774 348 774 322 747 c 0,94,95
 295 721 295 721 282 687 c 0,96,97
 268 653 268 653 268 616 c 0,98,99
 268 578 268 578 282 544 c 256,100,101
 296 510 296 510 322 484 c 0,102,103
 435 371 435 371 663 145 c 1,104,105
 776 258 776 258 1002 484 c 0,106,107
 1028 510 1028 510 1042 545 c 0,108,109
 1056 579 1056 579 1056 616 c 256,110,111
 1056 653 1056 653 1042 687 c 256,112,113
 1028 721 1028 721 1002 748 c 0,114,115
 976 774 976 774 942 788 c 256,116,117
 908 802 908 802 872 801 c 0,76,77
696 313 m 0,118,119
 692 309 692 309 685 306 c 0,120,121
 679 304 679 304 671 304 c 256,122,123
 663 304 663 304 656 306 c 0,124,125
 649 309 649 309 645 313 c 256,126,127
 641 317 641 317 638 324 c 0,128,129
 636 330 636 330 636 338 c 0,130,131
 636 347 636 347 638 353 c 0,132,133
 641 358 641 358 645 363 c 0,134,135
 649 367 649 367 656 369 c 0,136,137
 663 372 663 372 671 372 c 0,138,139
 680 372 680 372 686 369 c 0,140,141
 692 367 692 367 698 363 c 0,142,143
 702 358 702 358 704 352 c 256,144,145
 706 346 706 346 706 338 c 0,146,147
 706 337 706 337 706 337 c 2,148,149
 706 330 706 330 703 324 c 0,150,151
 701 317 701 317 696 313 c 0,118,119
762 496 m 0,152,153
 757 488 757 488 747 479 c 0,154,155
 738 470 738 470 724 459 c 0,156,157
 714 453 714 453 708 447 c 0,158,159
 703 442 703 442 699 437 c 0,160,161
 697 434 697 434 696 429 c 256,162,163
 695 424 695 424 695 418 c 0,164,165
 695 414 695 414 695 407 c 1,166,167
 677 407 677 407 642 407 c 1,168,169
 642 411 642 411 642 421 c 256,170,171
 642 431 642 431 644 439 c 256,172,173
 646 447 646 447 651 455 c 0,174,175
 655 461 655 461 663 469 c 256,176,177
 671 477 671 477 682 485 c 256,178,179
 693 493 693 493 699 499 c 0,180,181
 706 505 706 505 709 510 c 0,182,183
 713 515 713 515 715 520 c 256,184,185
 717 525 717 525 717 531 c 256,186,187
 717 537 717 537 714 542 c 0,188,189
 712 547 712 547 707 551 c 0,190,191
 702 554 702 554 696 557 c 0,192,193
 689 559 689 559 680 559 c 0,194,195
 665 559 665 559 648 554 c 256,196,197
 631 549 631 549 612 540 c 1,198,199
 604 554 604 554 590 583 c 1,200,201
 612 595 612 595 636 602 c 0,202,203
 659 608 659 608 685 608 c 0,204,205
 706 608 706 608 722 603 c 256,206,207
 738 598 738 598 750 588 c 256,208,209
 762 578 762 578 769 565 c 0,210,211
 775 552 775 552 775 535 c 0,212,213
 773 523 773 523 770 513 c 0,214,215
 768 504 768 504 762 496 c 0,152,153
EndSplineSet
Validated: 41
EndChar

StartChar: unie610
Encoding: 58896 58896 19
Width: 1325
Flags: W
LayerCount: 2
Fore
SplineSet
739 843 m 1,0,1
 738 841 738 841 737 837 c 1,2,3
 738 839 738 839 739 843 c 1,0,1
1085 830 m 0,4,5
 1043 873 1043 873 987 896 c 0,6,7
 932 919 932 919 872 919 c 0,8,9
 842 919 842 919 813 913 c 0,10,11
 784 908 784 908 756 896 c 1,12,13
 750 878 750 878 739 843 c 1,14,15
 744 860 744 860 755 894 c 1,16,17
 771 889 771 889 804 878 c 1,18,19
 803 875 803 875 801 869 c 1,20,21
 818 874 818 874 835 876 c 0,22,23
 853 878 853 878 870 878 c 0,24,25
 923 878 923 878 972 858 c 0,26,27
 1020 838 1020 838 1057 801 c 0,28,29
 1095 763 1095 763 1115 715 c 256,30,31
 1135 667 1135 667 1135 613 c 0,32,33
 1135 560 1135 560 1115 511 c 0,34,35
 1095 463 1095 463 1057 426 c 0,36,37
 926 294 926 294 663 31 c 1,38,39
 531 163 531 163 268 426 c 0,40,41
 230 463 230 463 210 511 c 0,42,43
 190 560 190 560 190 613 c 0,44,45
 190 667 190 667 210 716 c 256,46,47
 230 765 230 765 268 802 c 0,48,49
 305 839 305 839 353 859 c 0,50,51
 401 880 401 880 455 880 c 0,52,53
 477 880 477 880 498 876 c 0,54,55
 520 873 520 873 540 865 c 1,56,57
 541 872 541 872 544 887 c 1,58,59
 561 883 561 883 595 877 c 0,60,61
 596 879 596 879 597 883 c 1,62,63
 564 900 564 900 528 909 c 256,64,65
 492 918 492 918 455 918 c 0,66,67
 393 919 393 919 338 896 c 256,68,69
 283 873 283 873 240 830 c 256,70,71
 197 787 197 787 174 732 c 0,72,73
 151 676 151 676 151 615 c 0,74,75
 151 553 151 553 174 499 c 0,76,77
 197 444 197 444 240 400 c 0,78,79
 381 259 381 259 663 -23 c 1,80,81
 804 118 804 118 1085 400 c 0,82,83
 1128 443 1128 443 1151 498 c 0,84,85
 1175 553 1175 553 1175 615 c 0,86,87
 1175 676 1175 676 1151 732 c 0,88,89
 1128 787 1128 787 1085 830 c 0,4,5
682 663 m 1,90,91
 713 668 713 668 777 678 c 1,92,93
 722 546 722 546 613 283 c 0,94,95
 612 282 612 282 611 280 c 1,96,97
 621 376 621 376 639 568 c 1,98,99
 604 566 604 566 532 561 c 1,100,101
 532 562 532 562 532 563 c 0,102,103
 553 668 553 668 595 877 c 1,104,105
 578 880 578 880 544 887 c 1,106,107
 543 879 543 879 540 865 c 0,108,109
 534 839 534 839 524 787 c 1,110,111
 507 794 507 794 490 797 c 0,112,113
 472 801 472 801 453 801 c 0,114,115
 416 801 416 801 382 787 c 256,116,117
 348 773 348 773 322 747 c 0,118,119
 295 720 295 720 282 686 c 0,120,121
 268 652 268 652 268 615 c 256,122,123
 268 578 268 578 282 544 c 0,124,125
 296 509 296 509 322 483 c 0,126,127
 435 370 435 370 663 144 c 1,128,129
 776 257 776 257 1002 483 c 0,130,131
 1028 509 1028 509 1042 544 c 0,132,133
 1056 578 1056 578 1056 615 c 256,134,135
 1056 652 1056 652 1042 686 c 256,136,137
 1028 720 1028 720 1002 747 c 0,138,139
 976 773 976 773 942 787 c 256,140,141
 908 801 908 801 870 801 c 0,142,143
 843 801 843 801 818 793 c 0,144,145
 793 786 793 786 771 771 c 1,146,147
 781 804 781 804 803 871 c 0,148,149
 804 874 804 874 806 880 c 1,150,151
 789 885 789 885 756 896 c 1,152,153
 750 878 750 878 739 843 c 0,154,155
 738 841 738 841 737 837 c 0,156,157
 719 779 719 779 682 663 c 1,158,159
 682 663 682 663 682 663 c 1,90,91
EndSplineSet
Validated: 37
EndChar

StartChar: unie611
Encoding: 58897 58897 20
Width: 1325
Flags: W
LayerCount: 2
Fore
SplineSet
663 -23 m 1,0,1
 522 118 522 118 240 401 c 0,2,3
 197 444 197 444 174 499 c 256,4,5
 151 554 151 554 151 615 c 0,6,7
 151 675 151 675 174 731 c 256,8,9
 197 787 197 787 240 830 c 256,10,11
 283 873 283 873 338 896 c 256,12,13
 393 919 393 919 453 919 c 256,14,15
 513 919 513 919 566 898 c 0,16,17
 620 876 620 876 663 836 c 1,18,19
 705 876 705 876 759 898 c 0,20,21
 813 919 813 919 872 919 c 0,22,23
 932 919 932 919 987 896 c 256,24,25
 1042 873 1042 873 1085 830 c 256,26,27
 1128 787 1128 787 1151 732 c 0,28,29
 1175 676 1175 676 1175 615 c 0,30,31
 1175 553 1175 553 1151 499 c 0,32,33
 1128 444 1128 444 1085 400 c 0,34,35
 944 259 944 259 663 -23 c 1,0,1
453 880 m 0,36,37
 401 880 401 880 352 859 c 0,38,39
 303 839 303 839 266 802 c 256,40,41
 229 765 229 765 209 717 c 256,42,43
 189 669 189 669 189 615 c 256,44,45
 189 561 189 561 210 514 c 0,46,47
 230 466 230 466 268 429 c 0,48,49
 399 297 399 297 663 34 c 1,50,51
 794 166 794 166 1058 429 c 0,52,53
 1095 466 1095 466 1115 514 c 0,54,55
 1135 563 1135 563 1135 616 c 0,56,57
 1135 670 1135 670 1115 718 c 256,58,59
 1095 766 1095 766 1058 804 c 0,60,61
 1020 841 1020 841 972 861 c 256,62,63
 924 881 924 881 870 881 c 0,64,65
 818 881 818 881 769 861 c 256,66,67
 720 841 720 841 683 804 c 0,68,69
 676 796 676 796 663 780 c 1,70,71
 655 787 655 787 641 802 c 0,72,73
 603 839 603 839 555 859 c 0,74,75
 507 880 507 880 453 880 c 0,36,37
1002 746 m 0,76,77
 976 773 976 773 942 787 c 256,78,79
 908 801 908 801 870 801 c 0,80,81
 833 801 833 801 799 787 c 256,82,83
 765 773 765 773 739 746 c 0,84,85
 731 739 731 739 717 725 c 0,86,87
 708 715 708 715 690 697 c 0,88,89
 681 687 681 687 663 669 c 1,90,91
 637 695 637 695 585 746 c 0,92,93
 559 773 559 773 525 787 c 0,94,95
 491 800 491 800 453 800 c 0,96,97
 416 800 416 800 382 786 c 0,98,99
 348 773 348 773 322 746 c 0,100,101
 295 720 295 720 282 686 c 0,102,103
 268 652 268 652 268 615 c 0,104,105
 268 577 268 577 282 543 c 256,106,107
 296 509 296 509 322 483 c 0,108,109
 435 370 435 370 663 144 c 1,110,111
 776 257 776 257 1002 483 c 0,112,113
 1028 509 1028 509 1042 544 c 0,114,115
 1056 578 1056 578 1056 615 c 2,116,117
 1056 615 1056 615 1056 616 c 0,118,119
 1056 653 1056 653 1042 686 c 0,120,121
 1028 720 1028 720 1002 746 c 0,76,77
EndSplineSet
Validated: 9
EndChar

StartChar: unie612
Encoding: 58898 58898 21
Width: 1325
Flags: W
LayerCount: 2
Fore
SplineSet
975 565 m 1,0,1
 975 600 975 600 975 670 c 0,2,3
 975 711 975 711 963 750 c 0,4,5
 952 789 952 789 931 822 c 0,6,7
 893 884 893 884 828 922 c 256,8,9
 763 960 763 960 685 960 c 0,10,11
 606 960 606 960 541 922 c 0,12,13
 475 884 475 884 436 822 c 0,14,15
 415 789 415 789 404 750 c 0,16,17
 392 712 392 712 392 670 c 0,18,19
 392 635 392 635 392 565 c 1,20,21
 346 552 346 552 317 514 c 0,22,23
 287 476 287 476 287 428 c 0,24,25
 287 407 287 407 287 364 c 0,26,27
 287 270 287 270 287 82 c 0,28,29
 287 24 287 24 329 -19 c 256,30,31
 371 -62 371 -62 431 -62 c 0,32,33
 600 -62 600 -62 938 -62 c 0,34,35
 997 -62 997 -62 1039 -20 c 0,36,37
 1082 22 1082 22 1082 82 c 0,38,39
 1082 197 1082 197 1082 426 c 0,40,41
 1080 475 1080 475 1050 514 c 0,42,43
 1020 552 1020 552 975 565 c 1,0,1
775 570 m 1,44,45
 715 570 715 570 594 570 c 1,46,47
 594 603 594 603 594 670 c 0,48,49
 594 706 594 706 621 733 c 256,50,51
 648 760 648 760 685 760 c 0,52,53
 721 760 721 760 748 733 c 256,54,55
 775 706 775 706 775 670 c 0,56,57
 775 637 775 637 775 570 c 1,58,59
 775 570 775 570 775 570 c 1,44,45
743 177 m 1,60,61
 704 177 704 177 626 177 c 1,62,63
 631 211 631 211 641 277 c 1,64,65
 633 285 633 285 630 295 c 0,66,67
 626 305 626 305 626 316 c 0,68,69
 626 340 626 340 643 357 c 0,70,71
 661 375 661 375 685 375 c 0,72,73
 708 375 708 375 726 358 c 0,74,75
 743 340 743 340 743 316 c 0,76,77
 743 305 743 305 740 295 c 0,78,79
 736 285 736 285 729 277 c 1,80,81
 733 244 733 244 743 177 c 1,60,61
EndSplineSet
Validated: 5
EndChar

StartChar: unie613
Encoding: 58899 58899 22
Width: 1325
Flags: W
LayerCount: 2
Fore
SplineSet
804 868 m 1,0,1
 758 894 758 894 706 909 c 0,2,3
 653 924 653 924 596 924 c 0,4,5
 536 924 536 924 480 907 c 0,6,7
 424 891 424 891 376 861 c 0,8,9
 287 805 287 805 232 711 c 0,10,11
 178 618 178 618 178 505 c 0,12,13
 178 441 178 441 197 382 c 0,14,15
 215 323 215 323 249 273 c 0,16,17
 251 270 251 270 252 268 c 0,18,19
 254 265 254 265 255 263 c 1,20,21
 261 273 261 273 271 295 c 1,22,23
 252 326 252 326 242 363 c 256,24,25
 232 400 232 400 232 439 c 0,26,27
 232 516 232 516 269 580 c 0,28,29
 306 645 306 645 367 682 c 0,30,31
 400 703 400 703 438 714 c 0,32,33
 477 725 477 725 518 725 c 0,34,35
 550 725 550 725 581 718 c 0,36,37
 611 711 611 711 639 698 c 1,38,39
 603 663 603 663 532 592 c 1,40,41
 653 592 653 592 897 592 c 1,42,43
 897 714 897 714 897 960 c 1,44,45
 866 929 866 929 804 868 c 1,46,47
 804 868 804 868 804 868 c 1,0,1
866 622 m 1,48,49
 779 622 779 622 605 622 c 1,50,51
 632 649 632 649 686 703 c 1,52,53
 681 707 681 707 676 710 c 0,54,55
 671 714 671 714 667 717 c 0,56,57
 662 719 662 719 658 722 c 0,58,59
 654 724 654 724 651 726 c 0,60,61
 647 728 647 728 644 729 c 256,62,63
 641 730 641 730 641 730 c 257,64,65
 641 730 641 730 641 730 c 1,66,67
 613 742 613 742 582 749 c 0,68,69
 551 755 551 755 518 755 c 0,70,71
 404 755 404 755 317 683 c 0,72,73
 231 612 231 612 209 505 c 0,74,75
 208 505 208 505 208 504 c 2,76,77
 208 504 208 504 208 505 c 1,78,79
 208 505 208 505 208 505 c 1,80,81
 208 610 208 610 259 697 c 0,82,83
 309 784 309 784 392 835 c 0,84,85
 437 863 437 863 488 878 c 0,86,87
 540 893 540 893 596 893 c 0,88,89
 649 893 649 893 698 880 c 0,90,91
 746 866 746 866 789 842 c 0,92,93
 792 840 792 840 797 836 c 0,94,95
 801 832 801 832 806 827 c 1,96,97
 826 847 826 847 866 887 c 1,98,99
 866 798 866 798 866 622 c 1,48,49
525 29 m 1,100,101
 571 3 571 3 624 -11 c 256,102,103
 677 -25 677 -25 733 -24 c 0,104,105
 794 -24 794 -24 849 -6 c 0,106,107
 905 11 905 11 953 41 c 0,108,109
 1041 97 1041 97 1095 192 c 0,110,111
 1147 284 1147 284 1147 393 c 0,112,113
 1147 396 1147 396 1147 399 c 0,114,115
 1146 463 1146 463 1127 522 c 0,116,117
 1107 581 1107 581 1073 631 c 0,118,119
 1072 633 1072 633 1070 636 c 0,120,121
 1068 638 1068 638 1067 641 c 1,122,123
 1062 630 1062 630 1052 608 c 1,124,125
 1071 577 1071 577 1081 540 c 0,126,127
 1092 504 1092 504 1092 464 c 0,128,129
 1093 423 1093 423 1082 385 c 0,130,131
 1071 346 1071 346 1051 313 c 0,132,133
 1014 252 1014 252 950 214 c 256,134,135
 886 176 886 176 809 175 c 0,136,137
 777 175 777 175 747 182 c 0,138,139
 716 188 716 188 688 201 c 1,140,141
 724 237 724 237 794 309 c 1,142,143
 673 307 673 307 429 305 c 1,144,145
 431 182 431 182 433 -64 c 1,146,147
 464 -33 464 -33 525 29 c 1,148,149
 525 29 525 29 525 29 c 1,100,101
460 275 m 1,150,151
 547 276 547 276 722 278 c 1,152,153
 695 250 695 250 642 196 c 1,154,155
 646 192 646 192 651 188 c 0,156,157
 656 185 656 185 661 182 c 0,158,159
 665 179 665 179 669 177 c 256,160,161
 673 175 673 175 676 173 c 0,162,163
 681 171 681 171 684 170 c 0,164,165
 686 169 686 169 686 169 c 257,166,167
 686 169 686 169 686 169 c 1,168,169
 715 157 715 157 746 151 c 0,170,171
 777 144 777 144 810 145 c 0,172,173
 924 146 924 146 1010 219 c 0,174,175
 1095 291 1095 291 1116 398 c 0,176,177
 1117 399 1117 399 1117 399 c 257,178,179
 1117 399 1117 399 1117 399 c 1,180,181
 1117 398 1117 398 1117 398 c 2,182,183
 1117 396 1117 396 1117 394 c 0,184,185
 1117 292 1117 292 1068 206 c 0,186,187
 1019 119 1019 119 937 66 c 0,188,189
 892 38 892 38 841 22 c 0,190,191
 789 6 789 6 733 6 c 0,192,193
 730 6 730 6 728 6 c 0,194,195
 678 6 678 6 632 18 c 0,196,197
 583 31 583 31 540 55 c 0,198,199
 537 57 537 57 532 61 c 0,200,201
 527 64 527 64 522 70 c 1,202,203
 503 49 503 49 463 9 c 1,204,205
 462 98 462 98 460 275 c 1,206,207
 460 275 460 275 460 275 c 1,150,151
EndSplineSet
Validated: 37
EndChar

StartChar: unie614
Encoding: 58900 58900 23
Width: 1280
Flags: W
LayerCount: 2
Fore
SplineSet
1056 716 m 0,0,1
 994 771 994 771 870 881 c 0,2,3
 851 897 851 897 828 905 c 0,4,5
 805 914 805 914 781 914 c 0,6,7
 637 914 637 914 349 914 c 0,8,9
 276 914 276 914 225 862 c 0,10,11
 173 810 173 810 173 738 c 0,12,13
 173 698 173 698 173 620 c 0,14,15
 173 466 173 466 173 160 c 0,16,17
 173 87 173 87 225 35 c 0,18,19
 276 -17 276 -17 349 -17 c 0,20,21
 542 -17 542 -17 927 -17 c 0,22,23
 1000 -17 1000 -17 1052 35 c 0,24,25
 1103 87 1103 87 1103 160 c 0,26,27
 1103 311 1103 311 1103 613 c 0,28,29
 1103 643 1103 643 1091 670 c 256,30,31
 1079 697 1079 697 1056 716 c 0,0,1
364 880 m 1,32,33
 495 880 495 880 756 880 c 1,34,35
 756 790 756 790 756 611 c 0,36,37
 756 593 756 593 743 579 c 0,38,39
 729 566 729 566 710 566 c 0,40,41
 610 566 610 566 410 566 c 0,42,43
 391 566 391 566 377 579 c 0,44,45
 364 593 364 593 364 611 c 0,46,47
 364 656 364 656 364 747 c 0,48,49
 364 791 364 791 364 880 c 1,50,51
 364 880 364 880 364 880 c 1,32,33
919 17 m 1,52,53
 732 17 732 17 360 17 c 1,54,55
 360 54 360 54 360 128 c 0,56,57
 360 190 360 190 360 313 c 0,58,59
 360 321 360 321 366 327 c 0,60,61
 371 333 371 333 380 333 c 0,62,63
 553 333 553 333 899 333 c 0,64,65
 907 333 907 333 913 327 c 256,66,67
 919 321 919 321 919 313 c 0,68,69
 919 214 919 214 919 17 c 1,52,53
1069 160 m 1,70,71
 1069 107 1069 107 1036 68 c 0,72,73
 1002 29 1002 29 952 20 c 1,74,75
 952 117 952 117 952 313 c 0,76,77
 952 336 952 336 936 351 c 0,78,79
 921 367 921 367 898 367 c 0,80,81
 725 367 725 367 380 367 c 0,82,83
 357 367 357 367 341 351 c 0,84,85
 326 336 326 336 326 313 c 0,86,87
 326 215 326 215 326 19 c 1,88,89
 275 28 275 28 241 67 c 0,90,91
 207 107 207 107 207 160 c 0,92,93
 207 249 207 249 207 429 c 0,94,95
 207 532 207 532 207 738 c 0,96,97
 207 792 207 792 243 832 c 0,98,99
 278 872 278 872 330 879 c 1,100,101
 330 789 330 789 330 611 c 0,102,103
 330 578 330 578 354 555 c 0,104,105
 377 532 377 532 410 532 c 0,106,107
 510 532 510 532 711 532 c 0,108,109
 744 532 744 532 767 555 c 0,110,111
 791 578 791 578 791 611 c 0,112,113
 791 701 791 701 791 879 c 1,114,115
 806 878 806 878 821 872 c 256,116,117
 836 866 836 866 848 855 c 0,118,119
 910 800 910 800 1034 690 c 1,120,121
 1034 690 1034 690 1034 690 c 257,122,123
 1034 690 1034 690 1035 690 c 0,124,125
 1052 675 1052 675 1061 655 c 256,126,127
 1070 635 1070 635 1070 613 c 0,128,129
 1070 462 1070 462 1070 160 c 1,130,131
 1070 160 1070 160 1069 160 c 1,70,71
EndSplineSet
Validated: 5
EndChar

StartChar: unie615
Encoding: 58901 58901 24
Width: 1280
Flags: W
LayerCount: 2
Fore
SplineSet
1009 448 m 0,0,1
 1009 459 1009 459 1009 468 c 0,2,3
 1008 478 1008 478 1007 488 c 1,4,5
 1047 507 1047 507 1128 545 c 1,6,7
 1116 581 1116 581 1092 653 c 1,8,9
 1049 645 1049 645 962 629 c 1,10,11
 952 646 952 646 940 663 c 0,12,13
 928 679 928 679 914 694 c 1,14,15
 936 733 936 733 978 811 c 1,16,17
 948 834 948 834 886 878 c 1,18,19
 856 846 856 846 795 781 c 1,20,21
 777 790 777 790 757 796 c 0,22,23
 738 803 738 803 718 807 c 1,24,25
 712 851 712 851 701 939 c 1,26,27
 663 939 663 939 587 939 c 1,28,29
 581 895 581 895 570 807 c 1,30,31
 550 803 550 803 531 797 c 0,32,33
 511 791 511 791 493 782 c 1,34,35
 463 815 463 815 402 879 c 1,36,37
 371 857 371 857 309 812 c 1,38,39
 331 773 331 773 373 696 c 1,40,41
 360 681 360 681 348 664 c 0,42,43
 336 648 336 648 326 630 c 1,44,45
 282 639 282 639 194 655 c 1,46,47
 183 619 183 619 159 547 c 1,48,49
 199 528 199 528 279 490 c 1,50,51
 278 480 278 480 278 469 c 0,52,53
 277 459 277 459 277 448 c 0,54,55
 277 438 277 438 277 429 c 0,56,57
 278 419 278 419 279 409 c 1,58,59
 239 390 239 390 159 352 c 1,60,61
 170 316 170 316 194 244 c 1,62,63
 237 252 237 252 325 268 c 1,64,65
 335 251 335 251 347 234 c 0,66,67
 359 218 359 218 372 203 c 1,68,69
 351 164 351 164 308 86 c 1,70,71
 339 63 339 63 400 19 c 1,72,73
 431 51 431 51 491 115 c 1,74,75
 510 107 510 107 529 101 c 0,76,77
 548 94 548 94 568 90 c 1,78,79
 574 46 574 46 585 -42 c 1,80,81
 623 -42 623 -42 699 -42 c 1,82,83
 705 2 705 2 716 90 c 1,84,85
 736 94 736 94 756 100 c 0,86,87
 775 106 775 106 793 115 c 1,88,89
 824 82 824 82 885 18 c 1,90,91
 915 40 915 40 977 85 c 1,92,93
 956 123 956 123 913 201 c 1,94,95
 927 216 927 216 939 233 c 0,96,97
 951 249 951 249 961 267 c 1,98,99
 1004 258 1004 258 1092 242 c 1,100,101
 1104 278 1104 278 1127 350 c 1,102,103
 1087 369 1087 369 1007 407 c 1,104,105
 1008 417 1008 417 1009 428 c 0,106,107
 1009 438 1009 438 1009 448 c 0,0,1
643 323 m 256,108,109
 591 323 591 323 555 360 c 0,110,111
 518 397 518 397 518 448 c 0,112,113
 518 500 518 500 555 537 c 0,114,115
 591 574 591 574 643 574 c 256,116,117
 695 574 695 574 732 537 c 0,118,119
 768 500 768 500 768 448 c 0,120,121
 768 397 768 397 732 360 c 0,122,123
 695 323 695 323 643 323 c 256,108,109
643 531 m 256,124,125
 609 531 609 531 585 507 c 256,126,127
 561 483 561 483 561 448 c 0,128,129
 561 414 561 414 585 390 c 256,130,131
 609 366 609 366 643 366 c 256,132,133
 677 366 677 366 701 390 c 0,134,135
 726 414 726 414 726 448 c 0,136,137
 726 483 726 483 701 507 c 0,138,139
 677 531 677 531 643 531 c 256,124,125
EndSplineSet
Validated: 9
EndChar

StartChar: unie616
Encoding: 58902 58902 25
Width: 1280
Flags: W
LayerCount: 2
Fore
SplineSet
332 -41 m 0,0,1
 494 -41 494 -41 818 -41 c 0,2,3
 892 -41 892 -41 946 13 c 0,4,5
 999 66 999 66 999 140 c 0,6,7
 999 243 999 243 999 448 c 1,8,9
 987 437 987 437 965 414 c 1,10,11
 965 323 965 323 965 140 c 0,12,13
 965 80 965 80 922 37 c 256,14,15
 879 -6 879 -6 818 -6 c 0,16,17
 656 -6 656 -6 332 -6 c 0,18,19
 272 -6 272 -6 229 37 c 256,20,21
 186 80 186 80 186 140 c 0,22,23
 186 302 186 302 186 626 c 0,24,25
 186 687 186 687 229 730 c 256,26,27
 272 773 272 773 332 773 c 0,28,29
 423 773 423 773 603 773 c 1,30,31
 620 783 620 783 636 791 c 0,32,33
 652 800 652 800 667 807 c 1,34,35
 556 807 556 807 332 807 c 0,36,37
 258 807 258 807 205 754 c 0,38,39
 151 700 151 700 151 626 c 0,40,41
 151 593 151 593 151 527 c 0,42,43
 151 398 151 398 151 140 c 0,44,45
 151 117 151 117 157 95 c 256,46,47
 163 73 163 73 174 53 c 0,48,49
 197 11 197 11 239 -15 c 256,50,51
 281 -41 281 -41 332 -41 c 0,0,1
863 861 m 1,52,53
 933 791 933 791 1074 650 c 1,54,55
 1004 580 1004 580 863 439 c 1,56,57
 863 481 863 481 863 566 c 1,58,59
 850 564 850 564 824 561 c 0,60,61
 724 548 724 548 644 493 c 0,62,63
 565 439 565 439 514 347 c 0,64,65
 507 335 507 335 501 323 c 256,66,67
 495 311 495 311 490 300 c 1,68,69
 485 341 485 341 485 378 c 0,70,71
 485 423 485 423 492 464 c 0,72,73
 506 538 506 538 545 596 c 0,74,75
 571 634 571 634 603 661 c 0,76,77
 636 688 636 688 669 707 c 0,78,79
 731 742 731 742 781 752 c 256,80,81
 831 762 831 762 832 762 c 0,82,83
 842 763 842 763 863 765 c 1,84,85
 863 797 863 797 863 861 c 1,52,53
829 943 m 1,86,87
 829 894 829 894 829 796 c 1,88,89
 829 796 829 796 771 784 c 0,90,91
 714 773 714 773 644 732 c 0,92,93
 607 710 607 710 571 678 c 0,94,95
 535 645 535 645 507 599 c 0,96,97
 464 528 464 528 452 422 c 0,98,99
 450 399 450 399 450 374 c 0,100,101
 450 283 450 283 484 163 c 1,102,103
 484 163 484 163 486 174 c 0,104,105
 488 186 488 186 493 206 c 0,106,107
 503 243 503 243 527 299 c 256,108,109
 551 355 551 355 598 406 c 0,110,111
 636 450 636 450 693 483 c 0,112,113
 749 516 749 516 829 527 c 1,114,115
 829 470 829 470 829 356 c 1,116,117
 926 454 926 454 1122 650 c 1,118,119
 1024 748 1024 748 829 943 c 1,86,87
EndSplineSet
Validated: 9
EndChar

StartChar: unie617
Encoding: 58903 58903 26
Width: 1280
Flags: W
LayerCount: 2
Fore
SplineSet
636 841 m 1,0,1
 669 750 669 750 737 567 c 0,2,3
 740 560 740 560 745 546 c 1,4,5
 752 546 752 546 768 545 c 0,6,7
 865 541 865 541 1059 534 c 1,8,9
 977 469 977 469 812 339 c 1,10,11
 814 332 814 332 818 317 c 0,12,13
 845 224 845 224 897 37 c 1,14,15
 816 91 816 91 655 199 c 0,16,17
 649 203 649 203 636 212 c 1,18,19
 630 207 630 207 617 199 c 0,20,21
 537 145 537 145 375 37 c 1,22,23
 401 131 401 131 454 317 c 0,24,25
 456 325 456 325 460 339 c 1,26,27
 454 344 454 344 442 353 c 0,28,29
 366 413 366 413 213 534 c 1,30,31
 318 538 318 538 527 546 c 1,32,33
 530 553 530 553 535 567 c 0,34,35
 569 659 569 659 636 841 c 1,36,37
 636 841 636 841 636 841 c 1,0,1
636 940 m 1,38,39
 591 819 591 819 503 579 c 1,40,41
 375 574 375 574 119 564 c 1,42,43
 219 485 219 485 420 326 c 1,44,45
 386 203 386 203 316 -43 c 1,46,47
 423 28 423 28 635 170 c 1,48,49
 742 99 742 99 954 -43 c 1,50,51
 920 80 920 80 850 326 c 1,52,53
 951 406 951 406 1152 564 c 1,54,55
 1024 569 1024 569 768 579 c 1,56,57
 724 699 724 699 636 940 c 1,58,59
 636 940 636 940 636 940 c 1,38,39
EndSplineSet
Validated: 5
EndChar

StartChar: unie618
Encoding: 58904 58904 27
Width: 1325
Flags: W
LayerCount: 2
Fore
SplineSet
1150 78 m 0,0,1
 1051 177 1051 177 854 375 c 1,2,3
 878 413 878 413 893 456 c 0,4,5
 907 498 907 498 911 543 c 0,6,7
 919 624 919 624 892 705 c 0,8,9
 864 785 864 785 801 848 c 0,10,11
 762 887 762 887 716 913 c 0,12,13
 669 938 669 938 619 950 c 0,14,15
 576 960 576 960 533 960 c 0,16,17
 482 960 482 960 430 946 c 0,18,19
 335 921 335 921 262 848 c 0,20,21
 190 776 190 776 164 680 c 0,22,23
 150 628 150 628 150 578 c 0,24,25
 151 534 151 534 161 492 c 0,26,27
 172 441 172 441 198 395 c 0,28,29
 223 348 223 348 262 309 c 0,30,31
 296 275 296 275 335 252 c 0,32,33
 375 228 375 228 418 215 c 0,34,35
 496 190 496 190 580 201 c 0,36,37
 664 211 664 211 736 257 c 1,38,39
 835 158 835 158 1033 -40 c 0,40,41
 1057 -64 1057 -64 1091 -64 c 0,42,43
 1126 -64 1126 -64 1150 -40 c 256,44,45
 1174 -16 1174 -16 1174 19 c 0,46,47
 1175 54 1175 54 1150 78 c 0,0,1
532 316 m 0,48,49
 479 316 479 316 431 336 c 256,50,51
 383 356 383 356 346 393 c 256,52,53
 309 430 309 430 289 478 c 256,54,55
 269 526 269 526 269 579 c 256,56,57
 269 632 269 632 289 679 c 0,58,59
 309 727 309 727 346 765 c 0,60,61
 383 802 383 802 431 822 c 256,62,63
 479 842 479 842 532 842 c 0,64,65
 584 842 584 842 632 822 c 256,66,67
 680 802 680 802 717 765 c 0,68,69
 744 738 744 738 762 706 c 0,70,71
 779 673 779 673 787 639 c 0,72,73
 794 609 794 609 794 579 c 0,74,75
 794 544 794 544 785 509 c 0,76,77
 767 443 767 443 717 393 c 0,78,79
 680 356 680 356 632 336 c 256,80,81
 584 316 584 316 532 316 c 0,48,49
EndSplineSet
Validated: 41
EndChar

StartChar: unie619
Encoding: 58905 58905 28
Width: 1280
Flags: W
LayerCount: 2
Fore
SplineSet
1079 566 m 0,0,1
 975 566 975 566 769 566 c 1,2,3
 769 669 769 669 769 876 c 0,4,5
 769 894 769 894 756 907 c 0,6,7
 743 919 743 919 725 919 c 0,8,9
 676 919 676 919 576 919 c 0,10,11
 558 919 558 919 545 907 c 0,12,13
 532 894 532 894 532 876 c 0,14,15
 532 773 532 773 532 566 c 1,16,17
 429 566 429 566 223 566 c 0,18,19
 205 566 205 566 192 553 c 0,20,21
 179 541 179 541 179 523 c 0,22,23
 179 473 179 473 179 373 c 0,24,25
 179 355 179 355 192 343 c 0,26,27
 205 330 205 330 223 330 c 0,28,29
 326 330 326 330 532 330 c 1,30,31
 532 227 532 227 532 20 c 0,32,33
 532 2 532 2 545 -11 c 0,34,35
 558 -23 558 -23 576 -23 c 0,36,37
 626 -23 626 -23 725 -23 c 0,38,39
 743 -23 743 -23 756 -11 c 0,40,41
 769 2 769 2 769 20 c 0,42,43
 769 123 769 123 769 330 c 1,44,45
 872 330 872 330 1079 330 c 0,46,47
 1097 330 1097 330 1109 343 c 0,48,49
 1122 355 1122 355 1122 373 c 0,50,51
 1122 423 1122 423 1122 523 c 0,52,53
 1122 541 1122 541 1109 553 c 0,54,55
 1097 566 1097 566 1079 566 c 0,0,1
EndSplineSet
Validated: 9
EndChar

StartChar: unie61a
Encoding: 58906 58906 29
Width: 1280
Flags: W
LayerCount: 2
Fore
SplineSet
640 919 m 256,0,1
 513 919 513 919 408 858 c 0,2,3
 302 797 302 797 240 696 c 0,4,5
 206 642 206 642 188 579 c 0,6,7
 169 516 169 516 169 448 c 256,8,9
 169 380 169 380 188 317 c 0,10,11
 206 254 206 254 240 200 c 0,12,13
 302 99 302 99 408 38 c 0,14,15
 513 -23 513 -23 640 -23 c 0,16,17
 708 -23 708 -23 771 -4 c 0,18,19
 834 14 834 14 888 48 c 0,20,21
 989 110 989 110 1050 216 c 0,22,23
 1111 321 1111 321 1111 448 c 0,24,25
 1111 516 1111 516 1092 579 c 0,26,27
 1074 642 1074 642 1040 696 c 0,28,29
 978 797 978 797 872 858 c 0,30,31
 767 919 767 919 640 919 c 256,0,1
814 349 m 0,32,33
 819 344 819 344 819 336 c 0,34,35
 819 327 819 327 814 322 c 0,36,37
 798 306 798 306 766 274 c 0,38,39
 761 269 761 269 752 269 c 0,40,41
 744 269 744 269 739 274 c 0,42,43
 706 307 706 307 640 373 c 1,44,45
 607 340 607 340 541 274 c 0,46,47
 536 269 536 269 528 269 c 0,48,49
 519 269 519 269 514 274 c 0,50,51
 498 290 498 290 466 322 c 0,52,53
 461 327 461 327 461 336 c 0,54,55
 461 344 461 344 466 349 c 0,56,57
 499 382 499 382 565 448 c 1,58,59
 532 481 532 481 466 547 c 0,60,61
 461 552 461 552 461 560 c 0,62,63
 461 569 461 569 466 574 c 0,64,65
 482 590 482 590 514 622 c 0,66,67
 519 627 519 627 528 627 c 0,68,69
 536 627 536 627 541 622 c 0,70,71
 574 589 574 589 640 523 c 1,72,73
 673 556 673 556 739 622 c 0,74,75
 744 627 744 627 752 627 c 0,76,77
 761 627 761 627 766 622 c 0,78,79
 782 606 782 606 814 574 c 0,80,81
 819 569 819 569 819 560 c 0,82,83
 819 552 819 552 814 547 c 0,84,85
 781 514 781 514 715 448 c 1,86,87
 748 415 748 415 814 349 c 0,32,33
EndSplineSet
Validated: 9
EndChar

StartChar: unie61b
Encoding: 58907 58907 30
Width: 1325
Flags: W
LayerCount: 2
Fore
SplineSet
834 87 m 0,0,1
 642 87 642 87 258 87 c 0,2,3
 204 87 204 87 166 126 c 0,4,5
 128 164 128 164 128 218 c 0,6,7
 128 275 128 275 128 391 c 0,8,9
 128 487 128 487 128 679 c 0,10,11
 128 733 128 733 166 771 c 256,12,13
 204 809 204 809 258 809 c 0,14,15
 450 809 450 809 835 809 c 0,16,17
 889 809 889 809 927 771 c 0,18,19
 965 732 965 732 965 679 c 0,20,21
 965 664 965 664 965 635 c 1,22,23
 1009 660 1009 660 1096 711 c 0,24,25
 1103 715 1103 715 1112 717 c 0,26,27
 1120 720 1120 720 1128 720 c 0,28,29
 1156 720 1156 720 1175 700 c 0,30,31
 1194 681 1194 681 1194 654 c 0,32,33
 1194 517 1194 517 1194 242 c 0,34,35
 1194 229 1194 229 1189 217 c 0,36,37
 1184 204 1184 204 1174 195 c 0,38,39
 1165 186 1165 186 1153 182 c 0,40,41
 1141 177 1141 177 1128 177 c 0,42,43
 1120 177 1120 177 1112 179 c 0,44,45
 1103 181 1103 181 1096 186 c 0,46,47
 1052 211 1052 211 965 261 c 1,48,49
 965 247 965 247 965 218 c 0,50,51
 965 164 965 164 927 126 c 0,52,53
 888 87 888 87 834 87 c 0,0,1
258 779 m 1,54,55
 216 779 216 779 187 750 c 0,56,57
 157 720 157 720 157 678 c 0,58,59
 157 647 157 647 157 584 c 0,60,61
 157 462 157 462 157 218 c 0,62,63
 157 176 157 176 187 146 c 0,64,65
 216 117 216 117 258 117 c 0,66,67
 450 117 450 117 835 117 c 0,68,69
 876 117 876 117 906 146 c 0,70,71
 936 176 936 176 936 218 c 0,72,73
 936 249 936 249 936 312 c 1,74,75
 994 278 994 278 1111 211 c 0,76,77
 1121 205 1121 205 1133 206 c 0,78,79
 1145 208 1145 208 1154 216 c 0,80,81
 1159 221 1159 221 1162 228 c 256,82,83
 1165 235 1165 235 1165 242 c 0,84,85
 1165 380 1165 380 1165 654 c 0,86,87
 1165 671 1165 671 1153 681 c 0,88,89
 1142 690 1142 690 1129 690 c 0,90,91
 1124 690 1124 690 1119 689 c 0,92,93
 1115 688 1115 688 1111 685 c 0,94,95
 1052 652 1052 652 936 584 c 1,96,97
 936 616 936 616 936 679 c 0,98,99
 936 720 936 720 906 750 c 0,100,101
 877 780 877 780 835 780 c 0,102,103
 643 780 643 780 258 780 c 1,104,105
 258 780 258 780 258 779 c 1,54,55
EndSplineSet
Validated: 1
EndChar

StartChar: unie61c
Encoding: 58908 58908 31
Width: 1280
Flags: W
LayerCount: 2
Fore
SplineSet
640 943 m 256,0,1
 575 943 575 943 530 898 c 0,2,3
 486 853 486 853 486 788 c 256,4,5
 486 723 486 723 530 678 c 0,6,7
 575 634 575 634 640 634 c 256,8,9
 705 634 705 634 750 678 c 0,10,11
 794 723 794 723 794 788 c 256,12,13
 794 853 794 853 750 898 c 0,14,15
 705 943 705 943 640 943 c 256,0,1
640 602 m 256,16,17
 575 602 575 602 530 558 c 0,18,19
 486 513 486 513 486 448 c 256,20,21
 486 383 486 383 530 338 c 0,22,23
 575 294 575 294 640 294 c 256,24,25
 705 294 705 294 750 338 c 0,26,27
 794 383 794 383 794 448 c 256,28,29
 794 513 794 513 750 558 c 0,30,31
 705 602 705 602 640 602 c 256,16,17
640 262 m 256,32,33
 575 262 575 262 530 218 c 0,34,35
 486 173 486 173 486 108 c 256,36,37
 486 43 486 43 530 -2 c 0,38,39
 575 -47 575 -47 640 -47 c 256,40,41
 705 -47 705 -47 750 -2 c 0,42,43
 794 43 794 43 794 108 c 256,44,45
 794 173 794 173 750 218 c 0,46,47
 705 262 705 262 640 262 c 256,32,33
EndSplineSet
Validated: 9
EndChar

StartChar: unie61d
Encoding: 58909 58909 32
Width: 1325
Flags: W
LayerCount: 2
Fore
SplineSet
1175 448 m 0,0,1
 1175 522 1175 522 1154 590 c 0,2,3
 1134 658 1134 658 1098 717 c 0,4,5
 1030 826 1030 826 915 893 c 256,6,7
 800 960 800 960 663 960 c 0,8,9
 525 960 525 960 410 893 c 256,10,11
 295 826 295 826 227 717 c 0,12,13
 191 658 191 658 171 590 c 256,14,15
 151 522 151 522 151 448 c 256,16,17
 151 374 151 374 171 306 c 256,18,19
 191 238 191 238 227 179 c 0,20,21
 295 70 295 70 410 3 c 256,22,23
 525 -64 525 -64 663 -64 c 0,24,25
 737 -64 737 -64 805 -44 c 256,26,27
 873 -24 873 -24 932 13 c 0,28,29
 1041 80 1041 80 1108 195 c 256,30,31
 1175 310 1175 310 1175 448 c 0,0,1
196 448 m 0,32,33
 196 461 196 461 197 474 c 0,34,35
 197 487 197 487 199 499 c 1,36,37
 213 489 213 489 224 475 c 0,38,39
 235 462 235 462 235 448 c 0,40,41
 235 439 235 439 233 434 c 0,42,43
 230 430 230 430 228 428 c 0,44,45
 224 424 224 424 227 419 c 256,46,47
 230 414 230 414 257 387 c 1,48,49
 246 366 246 366 250 346 c 256,50,51
 254 326 254 326 254 302 c 0,52,53
 254 291 254 291 257 274 c 0,54,55
 259 258 259 258 264 241 c 0,56,57
 271 216 271 216 283 196 c 256,58,59
 295 176 295 176 313 176 c 1,60,61
 325 151 325 151 350 102 c 1,62,63
 279 166 279 166 237 256 c 0,64,65
 196 345 196 345 196 448 c 0,32,33
996 122 m 1,66,67
 932 57 932 57 846 19 c 0,68,69
 760 -18 760 -18 663 -18 c 0,70,71
 615 -18 615 -18 569 -9 c 0,72,73
 524 0 524 0 482 18 c 1,74,75
 493 43 493 43 510 71 c 0,76,77
 528 98 528 98 546 98 c 0,78,79
 575 98 575 98 580 103 c 256,80,81
 585 108 585 108 585 137 c 0,82,83
 585 175 585 175 594 182 c 0,84,85
 604 190 604 190 613 194 c 0,86,87
 617 196 617 196 620 200 c 0,88,89
 624 204 624 204 624 215 c 0,90,91
 624 225 624 225 617 232 c 256,92,93
 610 239 610 239 600 245 c 0,94,95
 580 255 580 255 553 264 c 0,96,97
 526 274 526 274 507 292 c 0,98,99
 478 322 478 322 458 346 c 0,100,101
 439 370 439 370 410 370 c 1,102,103
 395 399 395 399 388 404 c 256,104,105
 381 409 381 409 351 409 c 0,106,107
 341 409 341 409 334 412 c 256,108,109
 327 415 327 415 322 418 c 0,110,111
 311 425 311 425 302 426 c 0,112,113
 293 428 293 428 274 409 c 1,114,115
 257 425 257 425 248 456 c 256,116,117
 239 487 239 487 231 514 c 0,118,119
 226 529 226 529 221 541 c 256,120,121
 216 553 216 553 209 559 c 1,122,123
 214 578 214 578 220 596 c 256,124,125
 226 614 226 614 233 632 c 1,126,127
 240 626 240 626 244 619 c 0,128,129
 247 611 247 611 249 603 c 0,130,131
 253 589 253 589 256 577 c 0,132,133
 259 564 259 564 274 564 c 0,134,135
 281 564 281 564 285 568 c 0,136,137
 289 571 289 571 291 577 c 0,138,139
 296 593 296 593 293 618 c 0,140,141
 291 642 291 642 312 642 c 0,142,143
 341 642 341 642 366 647 c 0,144,145
 390 652 390 652 390 681 c 0,146,147
 390 688 390 688 394 692 c 0,148,149
 397 696 397 696 402 697 c 0,150,151
 419 701 419 701 443 691 c 0,152,153
 468 681 468 681 468 681 c 1,154,155
 497 710 497 710 497 717 c 0,156,157
 497 725 497 725 468 739 c 0,158,159
 458 744 458 744 473 739 c 0,160,161
 487 734 487 734 498 741 c 0,162,163
 502 743 502 743 504 747 c 0,164,165
 507 752 507 752 507 759 c 0,166,167
 507 779 507 779 504 787 c 256,168,169
 501 795 501 795 498 797 c 0,170,171
 491 800 491 800 490 799 c 0,172,173
 488 799 488 799 507 837 c 0,174,175
 517 857 517 857 527 865 c 0,176,177
 537 872 537 872 546 873 c 0,178,179
 563 874 563 874 574 865 c 0,180,181
 585 857 585 857 585 876 c 0,182,183
 585 884 585 884 587 893 c 0,184,185
 589 901 589 901 593 909 c 1,186,187
 610 912 610 912 627 913 c 0,188,189
 645 914 645 914 662 914 c 0,190,191
 695 914 695 914 727 910 c 0,192,193
 758 906 758 906 788 897 c 1,194,195
 787 885 787 885 783 870 c 0,196,197
 780 855 780 855 776 841 c 0,198,199
 771 820 771 820 772 804 c 0,200,201
 772 788 772 788 789 788 c 0,202,203
 811 788 811 788 841 803 c 0,204,205
 871 817 871 817 876 837 c 0,206,207
 878 844 878 844 876 851 c 0,208,209
 874 859 874 859 867 866 c 1,210,211
 883 859 883 859 901 849 c 0,212,213
 918 839 918 839 935 827 c 1,214,215
 920 826 920 826 893 818 c 0,216,217
 867 811 867 811 867 788 c 0,218,219
 867 768 867 768 846 758 c 0,220,221
 826 749 826 749 819 737 c 0,222,223
 816 732 816 732 817 726 c 0,224,225
 819 719 819 719 828 710 c 0,226,227
 834 704 834 704 835 700 c 256,228,229
 836 696 836 696 834 694 c 0,230,231
 828 690 828 690 810 691 c 256,232,233
 792 692 792 692 784 689 c 0,234,235
 780 687 780 687 781 683 c 256,236,237
 782 679 782 679 789 672 c 0,238,239
 798 663 798 663 802 654 c 0,240,241
 806 646 806 646 807 639 c 0,242,243
 810 622 810 622 809 617 c 0,244,245
 807 612 807 612 828 633 c 0,246,247
 857 662 857 662 867 686 c 0,248,249
 876 711 876 711 906 711 c 0,250,251
 935 711 935 711 944 691 c 0,252,253
 954 672 954 672 983 672 c 0,254,255
 991 672 991 672 993 675 c 256,256,257
 995 678 995 678 994 684 c 0,258,259
 992 700 992 700 977 725 c 0,260,261
 961 750 961 750 983 750 c 0,262,263
 992 750 992 750 999 752 c 256,264,265
 1006 754 1006 754 1011 758 c 1,266,267
 1036 730 1036 730 1057 698 c 0,268,269
 1077 666 1077 666 1092 631 c 1,270,271
 1044 626 1044 626 1014 610 c 0,272,273
 983 594 983 594 983 594 c 1,274,275
 945 632 945 632 918 629 c 0,276,277
 891 625 891 625 870 613 c 0,278,279
 859 606 859 606 848 600 c 0,280,281
 838 594 838 594 828 594 c 0,282,283
 820 594 820 594 815 591 c 0,284,285
 809 587 809 587 805 582 c 0,286,287
 793 566 793 566 791 541 c 256,288,289
 789 516 789 516 789 516 c 257,290,291
 789 516 789 516 771 504 c 256,292,293
 753 492 753 492 744 467 c 0,294,295
 739 454 739 454 739 437 c 0,296,297
 740 420 740 420 750 400 c 0,298,299
 769 362 769 362 778 354 c 0,300,301
 787 347 787 347 798 342 c 0,302,303
 803 340 803 340 810 336 c 256,304,305
 817 332 817 332 828 322 c 0,306,307
 835 315 835 315 844 312 c 0,308,309
 853 310 853 310 862 312 c 0,310,311
 891 316 891 316 918 338 c 0,312,313
 944 361 944 361 944 361 c 257,314,315
 944 361 944 361 949 336 c 0,316,317
 954 312 954 312 983 283 c 0,318,319
 992 274 992 274 995 263 c 0,320,321
 999 252 999 252 998 241 c 0,322,323
 997 213 997 213 985 190 c 0,324,325
 973 166 973 166 973 166 c 1,326,327
 981 151 981 151 996 122 c 1,328,329
 996 122 996 122 996 122 c 1,66,67
EndSplineSet
Validated: 37
EndChar

StartChar: unie61e
Encoding: 58910 58910 33
Width: 1325
Flags: W
LayerCount: 2
Fore
SplineSet
323 23 m 1,0,1
 327 1 327 1 333 -44 c 1,2,3
 434 -28 434 -28 636 3 c 1,4,5
 608 11 608 11 551 26 c 1,6,7
 475 25 475 25 323 23 c 1,0,1
987 269 m 1,8,9
 987 271 987 271 986 273 c 0,10,11
 1032 441 1032 441 1125 776 c 1,12,13
 1077 789 1077 789 981 815 c 1,14,15
 981 844 981 844 981 900 c 1,16,17
 950 900 950 900 889 900 c 1,18,19
 888 908 888 908 886 923 c 1,20,21
 835 915 835 915 734 900 c 0,22,23
 714 900 714 900 675 900 c 1,24,25
 602 920 602 920 456 960 c 1,26,27
 451 940 451 940 440 900 c 1,28,29
 389 900 389 900 287 900 c 1,30,31
 287 877 287 877 287 831 c 1,32,33
 258 826 258 826 200 817 c 1,34,35
 226 650 226 650 278 314 c 1,36,37
 260 250 260 250 225 120 c 1,38,39
 246 115 246 115 287 103 c 1,40,41
 287 78 287 78 287 29 c 1,42,43
 487 29 487 29 887 29 c 1,44,45
 781 28 781 28 568 26 c 1,46,47
 677 -4 677 -4 893 -64 c 1,48,49
 902 -33 902 -33 919 29 c 1,50,51
 940 29 940 29 981 29 c 1,52,53
 981 38 981 38 981 57 c 1,54,55
 994 59 994 59 1019 62 c 1,56,57
 1008 131 1008 131 987 269 c 1,58,59
 987 269 987 269 987 269 c 1,8,9
1065 741 m 1,60,61
 1037 640 1037 640 981 437 c 1,62,63
 981 546 981 546 981 765 c 1,64,65
 1009 757 1009 757 1065 741 c 1,66,67
 1065 741 1065 741 1065 741 c 1,60,61
336 851 m 1,68,69
 535 851 535 851 932 851 c 1,70,71
 932 647 932 647 932 238 c 1,72,73
 733 238 733 238 336 238 c 1,74,75
 336 340 336 340 336 544 c 0,76,77
 336 647 336 647 336 851 c 1,68,69
287 781 m 1,78,79
 287 722 287 722 287 604 c 0,80,81
 287 594 287 594 287 575 c 1,82,83
 277 642 277 642 256 777 c 1,84,85
 267 778 267 778 287 781 c 1,78,79
490 900 m 1,86,87
 490 900 490 900 490 900 c 257,88,89
 490 900 490 900 491 900 c 2,90,91
 491 900 491 900 490 900 c 1,86,87
390 594 m 0,92,93
 390 575 390 575 403 561 c 0,94,95
 417 548 417 548 436 548 c 0,96,97
 483 548 483 548 577 548 c 0,98,99
 596 548 596 548 610 561 c 0,100,101
 624 575 624 575 624 594 c 0,102,103
 624 641 624 641 624 735 c 0,104,105
 624 754 624 754 610 768 c 0,106,107
 596 781 596 781 577 781 c 0,108,109
 530 781 530 781 436 781 c 0,110,111
 417 781 417 781 403 768 c 0,112,113
 390 754 390 754 390 735 c 0,114,115
 390 688 390 688 390 594 c 0,92,93
436 763 m 0,116,117
 483 763 483 763 577 763 c 0,118,119
 588 763 588 763 597 755 c 0,120,121
 605 746 605 746 605 735 c 0,122,123
 605 688 605 688 605 594 c 0,124,125
 605 583 605 583 597 574 c 0,126,127
 588 566 588 566 577 566 c 0,128,129
 530 566 530 566 436 566 c 0,130,131
 425 566 425 566 417 574 c 0,132,133
 408 583 408 583 408 594 c 0,134,135
 408 641 408 641 408 735 c 0,136,137
 408 746 408 746 417 755 c 0,138,139
 425 763 425 763 436 763 c 0,116,117
645 735 m 0,140,141
 645 688 645 688 645 594 c 0,142,143
 645 575 645 575 658 561 c 0,144,145
 672 548 672 548 691 548 c 0,146,147
 738 548 738 548 832 548 c 0,148,149
 851 548 851 548 865 561 c 0,150,151
 879 575 879 575 879 594 c 0,152,153
 879 641 879 641 879 735 c 0,154,155
 879 754 879 754 865 768 c 0,156,157
 851 781 851 781 832 781 c 0,158,159
 785 781 785 781 691 781 c 0,160,161
 672 781 672 781 658 768 c 0,162,163
 645 754 645 754 645 735 c 0,140,141
860 735 m 0,164,165
 860 688 860 688 860 594 c 0,166,167
 860 583 860 583 851 574 c 0,168,169
 843 566 843 566 832 566 c 0,170,171
 785 566 785 566 691 566 c 0,172,173
 680 566 680 566 671 574 c 0,174,175
 663 583 663 583 663 594 c 0,176,177
 663 641 663 641 663 735 c 0,178,179
 663 746 663 746 671 755 c 0,180,181
 680 763 680 763 691 763 c 0,182,183
 738 763 738 763 832 763 c 0,184,185
 843 763 843 763 851 755 c 0,186,187
 860 746 860 746 860 735 c 0,164,165
623 486 m 0,188,189
 623 505 623 505 610 519 c 0,190,191
 596 532 596 532 577 532 c 0,192,193
 530 532 530 532 436 532 c 0,194,195
 417 532 417 532 403 519 c 0,196,197
 390 505 390 505 390 486 c 0,198,199
 390 439 390 439 390 345 c 0,200,201
 390 326 390 326 403 312 c 0,202,203
 417 299 417 299 436 299 c 0,204,205
 483 299 483 299 577 299 c 0,206,207
 596 299 596 299 610 312 c 0,208,209
 623 326 623 326 623 345 c 0,210,211
 623 392 623 392 623 486 c 0,188,189
408 345 m 0,212,213
 408 392 408 392 408 486 c 0,214,215
 408 497 408 497 416 506 c 0,216,217
 425 514 425 514 436 514 c 0,218,219
 483 514 483 514 577 514 c 0,220,221
 588 514 588 514 596 506 c 0,222,223
 605 497 605 497 605 486 c 0,224,225
 605 439 605 439 605 345 c 0,226,227
 605 334 605 334 596 326 c 0,228,229
 588 317 588 317 577 317 c 0,230,231
 530 317 530 317 436 317 c 0,232,233
 425 317 425 317 416 326 c 0,234,235
 408 334 408 334 408 345 c 0,212,213
691 299 m 0,236,237
 738 299 738 299 832 299 c 0,238,239
 851 299 851 299 865 312 c 0,240,241
 878 326 878 326 878 345 c 0,242,243
 878 392 878 392 878 486 c 0,244,245
 878 505 878 505 865 519 c 0,246,247
 851 532 851 532 832 532 c 0,248,249
 785 532 785 532 691 532 c 0,250,251
 672 532 672 532 658 519 c 0,252,253
 645 505 645 505 645 486 c 0,254,255
 645 439 645 439 645 345 c 0,256,257
 645 326 645 326 658 312 c 0,258,259
 672 299 672 299 691 299 c 0,236,237
860 486 m 0,260,261
 860 439 860 439 860 345 c 0,262,263
 860 334 860 334 851 326 c 0,264,265
 843 317 843 317 832 317 c 0,266,267
 785 317 785 317 691 317 c 0,268,269
 680 317 680 317 671 326 c 0,270,271
 663 334 663 334 663 345 c 0,272,273
 663 392 663 392 663 486 c 0,274,275
 663 497 663 497 671 506 c 0,276,277
 680 514 680 514 691 514 c 0,278,279
 738 514 738 514 832 514 c 0,280,281
 843 514 843 514 851 506 c 0,282,283
 860 497 860 497 860 486 c 0,260,261
EndSplineSet
Validated: 5
EndChar

StartChar: unie61f
Encoding: 58911 58911 34
Width: 1280
Flags: W
LayerCount: 2
Fore
SplineSet
1079 633 m 0,0,1
 1054 701 1054 701 1019 761 c 256,2,3
 984 821 984 821 943 865 c 0,4,5
 901 910 901 910 857 935 c 0,6,7
 813 959 813 959 773 959 c 0,8,9
 761 959 761 959 751 957 c 0,10,11
 740 955 740 955 730 951 c 0,12,13
 707 943 707 943 689 927 c 0,14,15
 671 910 671 910 657 887 c 0,16,17
 650 875 650 875 620 833 c 0,18,19
 590 790 590 790 547 734 c 0,20,21
 524 703 524 703 497 671 c 0,22,23
 471 639 471 639 443 608 c 0,24,25
 389 549 389 549 332 500 c 256,26,27
 275 451 275 451 223 432 c 0,28,29
 204 425 204 425 188 411 c 0,30,31
 173 397 173 397 164 378 c 0,32,33
 155 360 155 360 154 339 c 0,34,35
 154 337 154 337 154 335 c 0,36,37
 154 316 154 316 161 299 c 0,38,39
 175 261 175 261 210 242 c 0,40,41
 246 223 246 223 284 233 c 1,42,43
 295 211 295 211 308 183 c 0,44,45
 322 155 322 155 336 126 c 0,46,47
 362 73 362 73 383 30 c 0,48,49
 404 -14 404 -14 405 -15 c 0,50,51
 406 -17 406 -17 415 -29 c 0,52,53
 423 -40 423 -40 440 -50 c 0,54,55
 448 -55 448 -55 460 -59 c 0,56,57
 471 -62 471 -62 485 -62 c 0,58,59
 493 -62 493 -62 503 -61 c 0,60,61
 512 -59 512 -59 523 -55 c 1,62,63
 523 -55 523 -55 524 -55 c 2,64,65
 524 -55 524 -55 525 -55 c 0,66,67
 544 -48 544 -48 557 -33 c 0,68,69
 571 -18 571 -18 578 1 c 0,70,71
 584 21 584 21 581 42 c 0,72,73
 579 62 579 62 567 79 c 0,74,75
 524 138 524 138 439 256 c 1,76,77
 494 256 494 256 553 248 c 0,78,79
 613 241 613 241 668 230 c 0,80,81
 772 210 772 210 848 188 c 0,82,83
 923 165 923 165 925 165 c 1,84,85
 925 165 925 165 925 165 c 1,86,87
 937 161 937 161 950 159 c 0,88,89
 962 157 962 157 974 157 c 0,90,91
 985 157 985 157 995 158 c 0,92,93
 1006 160 1006 160 1016 164 c 0,94,95
 1047 175 1047 175 1069 200 c 0,96,97
 1091 226 1091 226 1105 262 c 0,98,99
 1125 317 1125 317 1125 393 c 0,100,101
 1125 409 1125 409 1124 427 c 0,102,103
 1118 525 1118 525 1079 633 c 0,0,1
751 392 m 0,104,105
 737 416 737 416 726 443 c 0,106,107
 714 469 714 469 704 496 c 0,108,109
 692 528 692 528 684 560 c 0,110,111
 675 592 675 592 670 623 c 0,112,113
 661 676 661 676 661 723 c 0,114,115
 661 773 661 773 671 815 c 0,116,117
 692 896 692 896 744 915 c 0,118,119
 751 918 751 918 758 919 c 256,120,121
 765 920 765 920 773 920 c 0,122,123
 818 920 818 920 868 882 c 0,124,125
 917 844 917 844 961 780 c 0,126,127
 985 746 985 746 1006 705 c 0,128,129
 1027 665 1027 665 1043 620 c 0,130,131
 1062 569 1062 569 1072 519 c 0,132,133
 1083 469 1083 469 1085 423 c 0,134,135
 1086 408 1086 408 1086 393 c 0,136,137
 1086 327 1086 327 1069 278 c 0,138,139
 1048 217 1048 217 1004 201 c 0,140,141
 996 198 996 198 989 197 c 0,142,143
 982 195 982 195 974 195 c 0,144,145
 921 195 921 195 861 249 c 0,146,147
 800 302 800 302 751 392 c 0,104,105
369 474 m 1,148,149
 369 453 369 453 373 429 c 0,150,151
 377 406 377 406 386 382 c 256,152,153
 395 358 395 358 407 337 c 0,154,155
 418 316 418 316 432 300 c 1,156,157
 418 309 418 309 403 329 c 256,158,159
 388 349 388 349 378 379 c 0,160,161
 367 408 367 408 365 433 c 0,162,163
 365 440 365 440 365 445 c 0,164,165
 365 462 365 462 369 474 c 1,148,149
412 510 m 1,166,167
 412 485 412 485 417 456 c 0,168,169
 422 428 422 428 433 399 c 0,170,171
 444 369 444 369 458 344 c 256,172,173
 472 319 472 319 489 299 c 1,174,175
 473 310 473 310 454 334 c 0,176,177
 436 358 436 358 423 395 c 0,178,179
 409 432 409 432 408 462 c 0,180,181
 407 468 407 468 407 474 c 0,182,183
 407 496 407 496 412 510 c 1,166,167
469 412 m 0,184,185
 451 461 451 461 450 500 c 0,186,187
 450 503 450 503 450 507 c 0,188,189
 450 541 450 541 459 562 c 1,190,191
 457 529 457 529 463 492 c 256,192,193
 469 455 469 455 483 416 c 0,194,195
 496 379 496 379 515 347 c 256,196,197
 534 315 534 315 555 292 c 1,198,199
 534 304 534 304 510 334 c 256,200,201
 486 364 486 364 469 412 c 0,184,185
327 440 m 1,202,203
 327 423 327 423 331 404 c 256,204,205
 335 385 335 385 342 366 c 0,206,207
 349 345 349 345 359 328 c 0,208,209
 369 310 369 310 381 296 c 1,210,211
 369 303 369 303 357 320 c 0,212,213
 344 337 344 337 335 362 c 0,214,215
 325 386 325 386 324 407 c 0,216,217
 324 412 324 412 324 417 c 0,218,219
 324 431 324 431 327 440 c 1,202,203
519 429 m 0,220,221
 503 475 503 475 498 519 c 0,222,223
 497 534 497 534 497 547 c 0,224,225
 497 574 497 574 502 594 c 1,226,227
 502 558 502 558 510 517 c 0,228,229
 517 477 517 477 532 435 c 0,230,231
 548 392 548 392 569 355 c 0,232,233
 591 318 591 318 615 290 c 1,234,235
 588 308 588 308 562 345 c 0,236,237
 536 383 536 383 519 429 c 0,220,221
197 311 m 0,238,239
 193 322 193 322 193 334 c 0,240,241
 193 335 193 335 193 337 c 0,242,243
 194 350 194 350 199 362 c 0,244,245
 205 374 205 374 214 383 c 0,246,247
 224 391 224 391 236 396 c 0,248,249
 248 400 248 400 260 406 c 256,250,251
 272 412 272 412 285 419 c 1,252,253
 285 403 285 403 288 385 c 256,254,255
 291 367 291 367 298 349 c 0,256,257
 305 330 305 330 314 314 c 256,258,259
 323 298 323 298 334 286 c 1,260,261
 320 283 320 283 307 280 c 0,262,263
 293 276 293 276 282 272 c 0,264,265
 270 268 270 268 259 268 c 0,266,267
 245 268 245 268 232 274 c 0,268,269
 207 286 207 286 197 311 c 0,238,239
541 13 m 0,270,271
 538 2 538 2 530 -6 c 0,272,273
 522 -15 522 -15 512 -18 c 0,274,275
 511 -18 511 -18 510 -19 c 0,276,277
 494 -25 494 -25 482 -25 c 0,278,279
 466 -25 466 -25 456 -15 c 0,280,281
 440 3 440 3 439 3 c 0,282,283
 438 5 438 5 419 45 c 0,284,285
 399 85 399 85 374 137 c 0,286,287
 361 164 361 164 347 192 c 0,288,289
 334 220 334 220 322 244 c 1,290,291
 338 249 338 249 356 251 c 0,292,293
 374 254 374 254 393 255 c 1,294,295
 440 190 440 190 535 58 c 0,296,297
 542 48 542 48 543 36 c 0,298,299
 544 33 544 33 544 29 c 0,300,301
 544 21 544 21 541 13 c 0,270,271
719 259 m 0,302,303
 678 272 678 272 636 325 c 0,304,305
 595 377 595 377 569 448 c 0,306,307
 542 521 542 521 541 589 c 0,308,309
 541 592 541 592 541 595 c 0,310,311
 541 659 541 659 565 692 c 0,312,313
 582 714 582 714 597 734 c 0,314,315
 612 753 612 753 625 771 c 1,316,317
 621 737 621 737 623 698 c 256,318,319
 625 659 625 659 632 617 c 0,320,321
 638 583 638 583 647 550 c 0,322,323
 656 516 656 516 668 483 c 0,324,325
 679 454 679 454 691 426 c 0,326,327
 704 398 704 398 718 372 c 0,328,329
 740 331 740 331 766 296 c 0,330,331
 792 262 792 262 819 235 c 1,332,333
 796 241 796 241 771 248 c 0,334,335
 746 254 746 254 719 259 c 0,302,303
919 565 m 1,336,337
 905 613 905 613 867 645 c 0,338,339
 830 677 830 677 781 683 c 0,340,341
 775 684 775 684 770 684 c 0,342,343
 768 684 768 684 767 684 c 0,344,345
 763 684 763 684 759 684 c 0,346,347
 740 682 740 682 701 678 c 1,348,349
 702 672 702 672 704 659 c 0,350,351
 708 624 708 624 717 586 c 0,352,353
 727 549 727 549 742 510 c 0,354,355
 755 476 755 476 772 444 c 0,356,357
 788 412 788 412 806 385 c 0,358,359
 810 379 810 379 817 368 c 1,360,361
 834 381 834 381 868 405 c 0,362,363
 874 410 874 410 880 417 c 0,364,365
 887 423 887 423 894 433 c 0,366,367
 916 460 916 460 923 495 c 0,368,369
 926 509 926 509 926 522 c 0,370,371
 926 543 926 543 919 563 c 0,372,373
 919 564 919 564 919 565 c 1,374,375
 919 565 919 565 919 565 c 1,336,337
865 457 m 0,376,377
 857 448 857 448 853 443 c 0,378,379
 848 438 848 438 846 436 c 0,380,381
 840 432 840 432 828 423 c 1,382,383
 814 446 814 446 801 471 c 0,384,385
 789 497 789 497 778 524 c 0,386,387
 766 555 766 555 758 585 c 0,388,389
 749 615 749 615 745 644 c 1,390,391
 751 644 751 644 764 646 c 0,392,393
 766 646 766 646 768 646 c 0,394,395
 769 646 769 646 770 646 c 0,396,397
 773 645 773 645 777 645 c 0,398,399
 814 641 814 641 843 616 c 256,400,401
 872 591 872 591 883 554 c 0,402,403
 883 553 883 553 884 552 c 0,404,405
 888 538 888 538 888 523 c 0,406,407
 888 513 888 513 886 502 c 0,408,409
 881 477 881 477 865 457 c 0,376,377
EndSplineSet
Validated: 37
EndChar

StartChar: unie620
Encoding: 58912 58912 35
Width: 1280
Flags: W
LayerCount: 2
Fore
SplineSet
957 598 m 0,0,1
 957 644 957 644 945 686 c 0,2,3
 932 728 932 728 909 765 c 0,4,5
 867 832 867 832 796 874 c 0,6,7
 725 915 725 915 640 915 c 0,8,9
 594 915 594 915 552 902 c 0,10,11
 509 890 509 890 473 867 c 0,12,13
 406 825 406 825 364 754 c 0,14,15
 323 683 323 683 323 598 c 0,16,17
 323 499 323 499 378 419 c 0,18,19
 433 340 433 340 520 304 c 1,20,21
 523 314 523 314 529 335 c 1,22,23
 452 368 452 368 403 439 c 0,24,25
 355 509 355 509 355 598 c 0,26,27
 355 639 355 639 366 677 c 256,28,29
 377 715 377 715 397 748 c 0,30,31
 435 809 435 809 499 846 c 256,32,33
 563 883 563 883 640 883 c 0,34,35
 681 883 681 883 719 872 c 0,36,37
 758 861 758 861 790 840 c 0,38,39
 851 803 851 803 888 739 c 0,40,41
 925 674 925 674 925 598 c 0,42,43
 925 509 925 509 877 439 c 0,44,45
 828 368 828 368 751 335 c 1,46,47
 754 325 754 325 760 304 c 1,48,49
 847 340 847 340 902 419 c 256,50,51
 957 498 957 498 957 598 c 0,0,1
716 598 m 0,52,53
 716 629 716 629 694 651 c 0,54,55
 671 674 671 674 640 674 c 256,56,57
 609 674 609 674 586 651 c 0,58,59
 564 629 564 629 564 598 c 0,60,61
 564 566 564 566 586 544 c 0,62,63
 609 522 609 522 640 522 c 256,64,65
 671 522 671 522 694 544 c 0,66,67
 716 566 716 566 716 598 c 0,52,53
640 642 m 256,68,69
 658 642 658 642 671 629 c 256,70,71
 684 616 684 616 684 598 c 256,72,73
 684 580 684 580 671 566 c 0,74,75
 658 553 658 553 640 553 c 256,76,77
 622 553 622 553 609 566 c 0,78,79
 596 580 596 580 596 598 c 256,80,81
 596 616 596 616 609 629 c 256,82,83
 622 642 622 642 640 642 c 256,68,69
686 454 m 1,84,85
 681 470 681 470 669 480 c 0,86,87
 656 489 656 489 640 489 c 256,88,89
 624 489 624 489 611 479 c 0,90,91
 599 470 599 470 594 454 c 0,92,93
 556 316 556 316 480 39 c 0,94,95
 478 33 478 33 478 27 c 0,96,97
 478 22 478 22 479 18 c 0,98,99
 481 7 481 7 488 -2 c 256,100,101
 495 -11 495 -11 505 -16 c 0,102,103
 514 -21 514 -21 526 -21 c 0,104,105
 602 -21 602 -21 755 -21 c 0,106,107
 766 -21 766 -21 776 -16 c 256,108,109
 786 -11 786 -11 792 -2 c 0,110,111
 799 7 799 7 801 18 c 0,112,113
 802 22 802 22 802 27 c 0,114,115
 802 33 802 33 800 39 c 0,116,117
 762 178 762 178 686 454 c 1,118,119
 686 454 686 454 686 454 c 1,84,85
767 17 m 0,120,121
 764 14 764 14 761 13 c 0,122,123
 758 11 758 11 754 11 c 0,124,125
 678 11 678 11 525 11 c 0,126,127
 521 11 521 11 518 13 c 0,128,129
 515 14 515 14 513 17 c 256,130,131
 511 20 511 20 510 24 c 0,132,133
 510 25 510 25 510 27 c 256,134,135
 510 29 510 29 510 31 c 0,136,137
 548 169 548 169 625 446 c 0,138,139
 627 454 627 454 632 456 c 0,140,141
 638 457 638 457 640 457 c 0,142,143
 641 457 641 457 647 456 c 0,144,145
 652 454 652 454 655 446 c 0,146,147
 693 307 693 307 769 31 c 0,148,149
 770 28 770 28 770 26 c 0,150,151
 770 25 770 25 770 24 c 0,152,153
 769 20 769 20 767 17 c 0,120,121
558 443 m 0,154,155
 516 465 516 465 491 506 c 0,156,157
 465 548 465 548 465 598 c 0,158,159
 465 670 465 670 516 721 c 0,160,161
 568 773 568 773 640 773 c 256,162,163
 712 773 712 773 764 721 c 0,164,165
 815 670 815 670 815 598 c 0,166,167
 815 548 815 548 789 506 c 0,168,169
 764 465 764 465 722 443 c 0,170,171
 722 442 722 442 723 439 c 0,172,173
 726 429 726 429 731 410 c 1,174,175
 783 435 783 435 816 485 c 0,176,177
 849 536 849 536 849 598 c 0,178,179
 849 684 849 684 788 745 c 0,180,181
 726 807 726 807 640 807 c 256,182,183
 554 807 554 807 492 745 c 0,184,185
 431 684 431 684 431 598 c 0,186,187
 431 536 431 536 464 485 c 0,188,189
 497 435 497 435 549 410 c 1,190,191
 551 419 551 419 557 439 c 0,192,193
 557 440 557 440 558 443 c 0,154,155
EndSplineSet
Validated: 9
EndChar

StartChar: unie621
Encoding: 58913 58913 36
Width: 1280
Flags: W
LayerCount: 2
Fore
SplineSet
513 448 m 257,0,1
 513 448 513 448 512 449 c 1,2,3
 513 449 513 449 513 448 c 1,4,5
 513 448 513 448 513 448 c 257,0,1
1043 620 m 0,6,7
 1061 570 1061 570 1071 522 c 0,8,9
 1082 473 1082 473 1085 429 c 0,10,11
 1091 346 1091 346 1072 285 c 256,12,13
 1053 224 1053 224 1011 204 c 1,14,15
 1021 194 1021 194 1039 175 c 1,16,17
 1065 191 1065 191 1083 218 c 256,18,19
 1101 245 1101 245 1111 281 c 0,20,21
 1125 330 1125 330 1125 392 c 0,22,23
 1125 415 1125 415 1123 441 c 0,24,25
 1116 532 1116 532 1079 633 c 0,26,27
 1071 656 1071 656 1061 678 c 0,28,29
 1052 700 1052 700 1041 722 c 1,30,31
 1031 712 1031 712 1012 693 c 1,32,33
 1020 676 1020 676 1028 657 c 0,34,35
 1036 639 1036 639 1043 620 c 0,6,7
564 692 m 0,36,37
 581 714 581 714 596 734 c 0,38,39
 611 753 611 753 624 771 c 1,40,41
 621 737 621 737 622 698 c 0,42,43
 624 659 624 659 632 617 c 0,44,45
 634 606 634 606 636 596 c 0,46,47
 638 585 638 585 640 575 c 1,48,49
 651 586 651 586 673 607 c 0,50,51
 672 611 672 611 671 615 c 0,52,53
 671 619 671 619 670 623 c 0,54,55
 651 733 651 733 671 815 c 0,56,57
 692 896 692 896 744 915 c 0,58,59
 751 918 751 918 758 919 c 256,60,61
 765 920 765 920 773 920 c 0,62,63
 805 920 805 920 841 900 c 0,64,65
 876 880 876 880 910 844 c 1,66,67
 919 853 919 853 937 872 c 1,68,69
 896 914 896 914 854 936 c 0,70,71
 812 959 812 959 773 959 c 0,72,73
 762 959 762 959 751 957 c 0,74,75
 741 955 741 955 730 951 c 0,76,77
 708 943 708 943 689 927 c 0,78,79
 671 910 671 910 657 887 c 0,80,81
 649 873 649 873 611 819 c 0,82,83
 573 764 573 764 518 697 c 1,84,85
 529 686 529 686 551 664 c 1,86,87
 553 672 553 672 557 679 c 0,88,89
 560 686 560 686 564 692 c 0,36,37
640 321 m 1,90,91
 630 312 630 312 612 294 c 1,92,93
 613 293 613 293 614 292 c 256,94,95
 615 291 615 291 615 290 c 1,96,97
 614 291 614 291 613 291 c 0,98,99
 612 292 612 292 611 293 c 1,100,101
 596 277 596 277 566 247 c 1,102,103
 613 241 613 241 660 232 c 256,104,105
 707 223 707 223 748 213 c 1,106,107
 727 235 727 235 683 279 c 0,108,109
 672 287 672 287 661 297 c 0,110,111
 650 308 650 308 640 321 c 1,90,91
334 362 m 0,112,113
 325 386 325 386 324 407 c 256,114,115
 323 428 323 428 326 440 c 1,116,117
 327 423 327 423 331 404 c 0,118,119
 334 385 334 385 341 366 c 0,120,121
 347 349 347 349 355 334 c 0,122,123
 363 320 363 320 372 307 c 1,124,125
 381 316 381 316 400 335 c 1,126,127
 394 344 394 344 388 355 c 256,128,129
 382 366 382 366 378 379 c 0,130,131
 367 408 367 408 365 433 c 0,132,133
 364 458 364 458 369 474 c 1,134,135
 369 453 369 453 373 429 c 0,136,137
 377 406 377 406 386 382 c 0,138,139
 390 371 390 371 395 360 c 0,140,141
 400 350 400 350 405 340 c 1,142,143
 414 350 414 350 433 369 c 1,144,145
 431 375 431 375 428 381 c 0,146,147
 425 388 425 388 422 395 c 0,148,149
 409 432 409 432 407 462 c 0,150,151
 406 492 406 492 412 511 c 1,152,153
 412 485 412 485 417 457 c 0,154,155
 422 428 422 428 433 399 c 0,156,157
 435 393 435 393 438 388 c 0,158,159
 440 382 440 382 442 377 c 1,160,161
 452 387 452 387 471 406 c 0,162,163
 471 408 471 408 470 409 c 0,164,165
 470 411 470 411 469 412 c 0,166,167
 459 440 459 440 455 466 c 0,168,169
 450 491 450 491 451 512 c 1,170,171
 433 528 433 528 399 562 c 1,172,173
 355 517 355 517 310 482 c 256,174,175
 265 447 265 447 224 432 c 0,176,177
 204 425 204 425 189 411 c 256,178,179
 174 397 174 397 165 378 c 0,180,181
 156 360 156 360 155 339 c 0,182,183
 155 337 155 337 155 335 c 0,184,185
 155 316 155 316 161 299 c 0,186,187
 175 261 175 261 211 242 c 0,188,189
 246 223 246 223 285 233 c 0,190,191
 286 231 286 231 287 228 c 0,192,193
 288 226 288 226 289 224 c 1,194,195
 316 251 316 251 369 305 c 1,196,197
 360 313 360 313 351 328 c 0,198,199
 341 342 341 342 334 362 c 0,112,113
282 272 m 0,200,201
 270 268 270 268 259 268 c 0,202,203
 245 268 245 268 232 274 c 0,204,205
 207 286 207 286 198 312 c 0,206,207
 194 323 194 323 194 334 c 0,208,209
 194 336 194 336 194 337 c 0,210,211
 194 350 194 350 200 362 c 0,212,213
 205 374 205 374 215 383 c 0,214,215
 224 392 224 392 237 396 c 0,216,217
 248 401 248 401 260 406 c 0,218,219
 273 412 273 412 285 420 c 1,220,221
 285 404 285 404 288 386 c 0,222,223
 292 368 292 368 298 349 c 0,224,225
 305 330 305 330 314 314 c 0,226,227
 324 298 324 298 334 286 c 1,228,229
 320 283 320 283 307 280 c 256,230,231
 294 277 294 277 282 272 c 0,200,201
513 448 m 257,232,233
 513 448 513 448 513 448 c 1,234,235
 512 448 512 448 512 448 c 1,236,237
 496 465 496 465 462 499 c 1,238,239
 465 479 465 479 470 459 c 0,240,241
 475 438 475 438 483 417 c 1,242,243
 493 427 493 427 513 448 c 1,244,245
 513 448 513 448 513 448 c 257,232,233
535 58 m 1,246,247
 542 48 542 48 543 36 c 0,248,249
 545 25 545 25 541 13 c 0,250,251
 538 2 538 2 530 -6 c 0,252,253
 522 -15 522 -15 512 -18 c 0,254,255
 511 -18 511 -18 510 -19 c 0,256,257
 473 -32 473 -32 456 -15 c 0,258,259
 440 3 440 3 439 3 c 1,260,261
 439 5 439 5 428 27 c 256,262,263
 417 49 417 49 401 83 c 1,264,265
 391 73 391 73 372 54 c 1,266,267
 386 25 386 25 396 6 c 0,268,269
 405 -13 405 -13 405 -14 c 0,270,271
 407 -17 407 -17 415 -28 c 0,272,273
 423 -40 423 -40 441 -49 c 0,274,275
 449 -54 449 -54 460 -58 c 0,276,277
 471 -61 471 -61 486 -61 c 0,278,279
 494 -61 494 -61 503 -60 c 0,280,281
 513 -58 513 -58 523 -55 c 0,282,283
 524 -54 524 -54 524 -54 c 2,284,285
 525 -54 525 -54 525 -54 c 1,286,287
 544 -47 544 -47 558 -32 c 256,288,289
 572 -17 572 -17 578 2 c 0,290,291
 583 16 583 16 583 30 c 0,292,293
 583 36 583 36 582 42 c 0,294,295
 579 63 579 63 567 80 c 0,296,297
 544 113 544 113 496 178 c 1,298,299
 487 169 487 169 469 151 c 1,300,301
 491 120 491 120 535 58 c 1,302,303
 535 58 535 58 535 58 c 1,246,247
704 659 m 1,304,305
 704 654 704 654 705 650 c 0,306,307
 705 645 705 645 706 641 c 1,308,309
 720 655 720 655 748 683 c 1,310,311
 732 681 732 681 701 678 c 1,312,313
 702 672 702 672 704 659 c 1,314,315
 704 659 704 659 704 659 c 1,304,305
895 433 m 0,316,317
 917 461 917 461 923 495 c 0,318,319
 926 509 926 509 926 523 c 0,320,321
 926 543 926 543 920 564 c 1,322,323
 920 564 920 564 919 565 c 0,324,325
 918 572 918 572 915 578 c 0,326,327
 912 585 912 585 909 591 c 1,328,329
 900 581 900 581 880 562 c 0,330,331
 881 560 881 560 881 558 c 0,332,333
 882 556 882 556 883 554 c 2,334,335
 883 554 883 554 883 553 c 0,336,337
 891 528 891 528 886 503 c 0,338,339
 881 477 881 477 864 457 c 0,340,341
 857 448 857 448 852 443 c 0,342,343
 848 438 848 438 845 436 c 0,344,345
 839 432 839 432 827 423 c 1,346,347
 819 436 819 436 812 450 c 0,348,349
 804 464 804 464 797 479 c 1,350,351
 788 469 788 469 769 450 c 0,352,353
 770 448 770 448 771 446 c 256,354,355
 772 444 772 444 773 442 c 0,356,357
 793 421 793 421 834 381 c 1,358,359
 846 389 846 389 868 406 c 0,360,361
 874 410 874 410 881 417 c 0,362,363
 887 423 887 423 895 433 c 0,316,317
694 448 m 1,364,365
 847 601 847 601 1154 908 c 1,366,367
 1145 916 1145 916 1126 934 c 0,368,369
 1117 944 1117 944 1100 962 c 1,370,371
 946 809 946 809 640 502 c 1,372,373
 487 655 487 655 180 962 c 1,374,375
 162 944 162 944 126 908 c 1,376,377
 279 754 279 754 586 448 c 1,378,379
 433 295 433 295 126 -12 c 1,380,381
 135 -20 135 -20 154 -38 c 0,382,383
 163 -48 163 -48 180 -66 c 1,384,385
 334 87 334 87 640 394 c 1,386,387
 793 241 793 241 1100 -66 c 1,388,389
 1108 -57 1108 -57 1126 -38 c 0,390,391
 1136 -29 1136 -29 1154 -12 c 1,392,393
 1001 142 1001 142 694 448 c 1,364,365
EndSplineSet
Validated: 37
EndChar

StartChar: unie622
Encoding: 58914 58914 37
Width: 1024
Flags: W
LayerCount: 2
Fore
SplineSet
852 321 m 1,0,1
 852 327 852 327 852 339 c 1,2,3
 859 346 859 346 868 362 c 0,4,5
 876 378 876 378 879 404 c 1,6,7
 889 414 889 414 893 427 c 0,8,9
 896 439 896 439 896 455 c 0,10,11
 896 465 896 465 894 473 c 0,12,13
 891 481 891 481 886 489 c 1,14,15
 891 502 891 502 893 519 c 0,16,17
 894 536 894 536 889 554 c 0,18,19
 879 592 879 592 840 609 c 0,20,21
 800 626 800 626 759 626 c 0,22,23
 723 626 723 626 696 614 c 0,24,25
 670 602 670 602 657 581 c 1,26,27
 646 576 646 576 641 569 c 0,28,29
 635 563 635 563 633 557 c 0,30,31
 625 539 625 539 626 522 c 0,32,33
 628 504 628 504 633 489 c 1,34,35
 633 489 633 489 633 489 c 1,36,37
 633 488 633 488 633 486 c 0,38,39
 628 478 628 478 625 470 c 0,40,41
 623 462 623 462 623 451 c 0,42,43
 623 439 623 439 626 428 c 256,44,45
 629 417 629 417 636 407 c 1,46,47
 649 402 649 402 659 395 c 0,48,49
 670 388 670 388 677 383 c 1,50,51
 675 391 675 391 674 399 c 0,52,53
 674 408 674 408 674 421 c 1,54,55
 658 421 658 421 656 448 c 0,56,57
 653 475 653 475 674 475 c 1,58,59
 674 479 674 479 665 498 c 256,60,61
 656 517 656 517 660 534 c 0,62,63
 661 541 661 541 666 546 c 0,64,65
 671 552 671 552 681 554 c 1,66,67
 686 572 686 572 708 582 c 256,68,69
 730 592 730 592 756 592 c 0,70,71
 787 592 787 592 817 579 c 0,72,73
 847 567 847 567 852 544 c 0,74,75
 857 518 857 518 847 498 c 0,76,77
 838 478 838 478 838 475 c 1,78,79
 858 475 858 475 855 448 c 0,80,81
 851 421 851 421 838 421 c 1,82,83
 838 377 838 377 824 365 c 0,84,85
 811 352 811 352 811 352 c 1,86,87
 811 334 811 334 811 298 c 1,88,89
 862 277 862 277 911 251 c 0,90,91
 961 226 961 226 961 215 c 0,92,93
 961 190 961 190 961 140 c 0,94,95
 961 120 961 120 947 106 c 0,96,97
 934 92 934 92 913 92 c 0,98,99
 866 92 866 92 773 92 c 1,100,101
 768 82 768 82 761 74 c 0,102,103
 753 66 753 66 746 58 c 1,104,105
 801 58 801 58 913 58 c 0,106,107
 947 58 947 58 971 83 c 0,108,109
 995 107 995 107 995 140 c 0,110,111
 995 166 995 166 995 219 c 0,112,113
 997 222 997 222 997 226 c 0,114,115
 997 231 997 231 995 237 c 0,116,117
 991 249 991 249 960 269 c 0,118,119
 944 279 944 279 918 292 c 0,120,121
 891 305 891 305 852 321 c 1,0,1
739 140 m 0,122,123
 739 188 739 188 739 284 c 0,124,125
 739 291 739 291 731 307 c 256,126,127
 723 323 723 323 675 353 c 0,128,129
 650 368 650 368 609 389 c 0,130,131
 568 409 568 409 506 434 c 1,132,133
 506 449 506 449 506 479 c 1,134,135
 519 489 519 489 532 513 c 0,136,137
 545 538 545 538 547 581 c 1,138,139
 560 594 560 594 567 613 c 0,140,141
 575 633 575 633 575 653 c 0,142,143
 575 666 575 666 572 677 c 0,144,145
 570 687 570 687 564 698 c 0,146,147
 562 700 562 700 561 702 c 256,148,149
 560 704 560 704 558 704 c 1,150,151
 565 722 565 722 570 749 c 0,152,153
 576 775 576 775 568 804 c 0,154,155
 555 855 555 855 499 879 c 256,156,157
 443 903 443 903 387 903 c 0,158,159
 335 903 335 903 297 886 c 0,160,161
 258 869 258 869 243 838 c 1,162,163
 230 830 230 830 222 822 c 256,164,165
 214 814 214 814 209 804 c 0,166,167
 196 778 196 778 201 751 c 0,168,169
 205 725 205 725 216 704 c 0,170,171
 213 702 213 702 210 699 c 0,172,173
 208 697 208 697 205 694 c 0,174,175
 200 684 200 684 198 673 c 0,176,177
 195 663 195 663 195 650 c 0,178,179
 195 629 195 629 202 610 c 0,180,181
 210 592 210 592 222 581 c 1,182,183
 225 538 225 538 238 513 c 0,184,185
 251 489 251 489 263 479 c 1,186,187
 263 464 263 464 263 434 c 1,188,189
 202 409 202 409 161 389 c 0,190,191
 120 368 120 368 95 353 c 0,192,193
 47 323 47 323 39 307 c 256,194,195
 31 291 31 291 31 284 c 0,196,197
 31 236 31 236 31 140 c 0,198,199
 31 107 31 107 55 83 c 0,200,201
 80 58 80 58 113 58 c 0,202,203
 294 58 294 58 657 58 c 0,204,205
 690 58 690 58 714 83 c 0,206,207
 739 107 739 107 739 140 c 0,122,123
113 92 m 1,208,209
 92 92 92 92 79 106 c 0,210,211
 65 120 65 120 65 140 c 0,212,213
 65 188 65 188 65 284 c 0,214,215
 65 289 65 289 76 298 c 256,216,217
 87 307 87 307 105 319 c 0,218,219
 140 340 140 340 193 365 c 256,220,221
 246 390 246 390 298 410 c 1,222,223
 298 439 298 439 298 496 c 1,224,225
 298 496 298 496 277 514 c 0,226,227
 257 533 257 533 257 602 c 1,228,229
 234 602 234 602 230 645 c 0,230,231
 226 687 226 687 257 687 c 1,232,233
 257 695 257 695 243 724 c 0,234,235
 230 754 230 754 236 779 c 0,236,237
 238 790 238 790 246 798 c 0,238,239
 254 807 254 807 270 810 c 1,240,241
 278 839 278 839 312 854 c 256,242,243
 346 869 346 869 387 869 c 0,244,245
 435 869 435 869 481 849 c 0,246,247
 526 830 526 830 534 797 c 0,248,249
 544 758 544 758 528 727 c 0,250,251
 513 696 513 696 513 691 c 1,252,253
 519 691 519 691 524 688 c 0,254,255
 528 686 528 686 531 682 c 0,256,257
 544 665 544 665 537 635 c 256,258,259
 530 605 530 605 513 605 c 1,260,261
 513 536 513 536 493 518 c 0,262,263
 472 499 472 499 472 499 c 1,264,265
 472 471 472 471 472 414 c 1,266,267
 524 394 524 394 577 368 c 0,268,269
 630 343 630 343 664 322 c 0,270,271
 683 311 683 311 694 302 c 256,272,273
 705 293 705 293 705 287 c 0,274,275
 705 238 705 238 705 140 c 0,276,277
 705 120 705 120 691 106 c 256,278,279
 677 92 677 92 657 92 c 0,280,281
 475 92 475 92 113 92 c 1,282,283
 113 92 113 92 113 92 c 1,208,209
EndSplineSet
Validated: 37
EndChar

StartChar: unie623
Encoding: 58915 58915 38
Width: 1325
Flags: W
LayerCount: 2
Fore
SplineSet
706 188 m 0,0,1
 706 167 706 167 691 153 c 0,2,3
 677 138 677 138 656 138 c 0,4,5
 636 138 636 138 621 153 c 0,6,7
 607 167 607 167 607 188 c 0,8,9
 607 208 607 208 621 223 c 0,10,11
 636 237 636 237 656 237 c 0,12,13
 677 237 677 237 691 223 c 0,14,15
 706 208 706 208 706 188 c 0,0,1
622 330 m 0,16,17
 623 327 623 327 623 323 c 0,18,19
 624 320 624 320 625 317 c 0,20,21
 628 306 628 306 637 300 c 0,22,23
 645 293 645 293 656 293 c 256,24,25
 667 293 667 293 676 300 c 0,26,27
 684 306 684 306 688 317 c 0,28,29
 689 320 689 320 689 323 c 0,30,31
 690 327 690 327 690 330 c 0,32,33
 695 414 695 414 705 582 c 0,34,35
 705 585 705 585 705 587 c 0,36,37
 705 595 705 595 703 602 c 0,38,39
 700 611 700 611 695 617 c 0,40,41
 690 622 690 622 684 625 c 256,42,43
 678 628 678 628 671 628 c 0,44,45
 661 628 661 628 642 628 c 0,46,47
 635 628 635 628 629 625 c 0,48,49
 622 622 622 622 618 617 c 0,50,51
 612 611 612 611 609 602 c 0,52,53
 607 595 607 595 607 587 c 0,54,55
 607 585 607 585 608 582 c 0,56,57
 612 498 612 498 622 330 c 0,16,17
1179 84 m 0,58,59
 1024 351 1024 351 715 887 c 0,60,61
 706 903 706 903 690 912 c 0,62,63
 675 921 675 921 656 921 c 0,64,65
 638 921 638 921 623 912 c 0,66,67
 607 903 607 903 598 887 c 0,68,69
 443 619 443 619 134 84 c 0,70,71
 125 68 125 68 125 50 c 256,72,73
 125 32 125 32 134 16 c 256,74,75
 143 0 143 0 159 -9 c 0,76,77
 174 -18 174 -18 193 -18 c 0,78,79
 502 -18 502 -18 1120 -18 c 0,80,81
 1139 -18 1139 -18 1154 -9 c 0,82,83
 1170 0 1170 0 1179 16 c 256,84,85
 1188 32 1188 32 1188 50 c 256,86,87
 1188 68 1188 68 1179 84 c 0,58,59
1120 21 m 0,88,89
 811 21 811 21 192 21 c 0,90,91
 175 21 175 21 167 35 c 0,92,93
 163 43 163 43 163 50 c 256,94,95
 163 57 163 57 167 65 c 0,96,97
 322 332 322 332 631 868 c 0,98,99
 635 875 635 875 642 879 c 0,100,101
 649 882 649 882 656 882 c 0,102,103
 664 882 664 882 671 879 c 0,104,105
 678 875 678 875 682 868 c 0,106,107
 836 600 836 600 1145 65 c 0,108,109
 1150 57 1150 57 1150 50 c 256,110,111
 1150 43 1150 43 1145 35 c 0,112,113
 1137 21 1137 21 1120 21 c 0,88,89
EndSplineSet
Validated: 9
EndChar

StartChar: unie624
Encoding: 58916 58916 39
Width: 1325
Flags: W
LayerCount: 2
Fore
SplineSet
999 790 m 0,0,1
 930 858 930 858 843 894 c 0,2,3
 755 931 755 931 659 931 c 256,4,5
 563 931 563 931 475 894 c 0,6,7
 387 858 387 858 319 790 c 256,8,9
 251 722 251 722 215 634 c 0,10,11
 179 547 179 547 179 450 c 0,12,13
 179 354 179 354 215 266 c 256,14,15
 251 178 251 178 319 111 c 0,16,17
 388 42 388 42 475 6 c 0,18,19
 563 -30 563 -30 659 -30 c 256,20,21
 755 -30 755 -30 843 6 c 256,22,23
 931 42 931 42 999 111 c 0,24,25
 1067 179 1067 179 1103 266 c 0,26,27
 1139 354 1139 354 1139 450 c 0,28,29
 1139 451 1139 451 1139 451 c 2,30,31
 1139 547 1139 547 1103 634 c 0,32,33
 1067 722 1067 722 999 790 c 0,0,1
975 134 m 0,34,35
 912 71 912 71 830 38 c 0,36,37
 749 4 749 4 659 4 c 0,38,39
 570 4 570 4 488 38 c 0,40,41
 407 71 407 71 344 134 c 0,42,43
 280 198 280 198 247 279 c 0,44,45
 213 361 213 361 213 450 c 0,46,47
 213 540 213 540 247 621 c 0,48,49
 281 703 281 703 344 766 c 256,50,51
 407 829 407 829 488 863 c 0,52,53
 570 896 570 896 659 896 c 256,54,55
 748 896 748 896 830 863 c 0,56,57
 911 829 911 829 975 766 c 0,58,59
 1038 702 1038 702 1072 621 c 0,60,61
 1105 539 1105 539 1105 450 c 256,62,63
 1105 361 1105 361 1072 279 c 0,64,65
 1038 198 1038 198 975 134 c 0,34,35
660 195 m 0,66,67
 569 195 569 195 504 260 c 0,68,69
 440 325 440 325 440 416 c 1,70,71
 427 416 427 416 403 416 c 1,72,73
 403 379 403 379 413 344 c 0,74,75
 423 310 423 310 442 280 c 0,76,77
 476 226 476 226 533 192 c 0,78,79
 591 159 591 159 660 159 c 0,80,81
 730 159 730 159 787 192 c 0,82,83
 845 226 845 226 879 280 c 0,84,85
 898 310 898 310 908 344 c 0,86,87
 918 379 918 379 918 416 c 1,88,89
 906 416 906 416 881 416 c 1,90,91
 881 325 881 325 816 260 c 0,92,93
 752 195 752 195 660 195 c 0,66,67
507 542 m 256,94,95
 532 542 532 542 550 559 c 0,96,97
 568 577 568 577 568 603 c 0,98,99
 568 628 568 628 550 646 c 256,100,101
 532 664 532 664 507 664 c 256,102,103
 482 664 482 664 464 646 c 256,104,105
 446 628 446 628 446 603 c 0,106,107
 446 577 446 577 464 559 c 0,108,109
 482 542 482 542 507 542 c 256,94,95
822 542 m 256,110,111
 847 542 847 542 865 559 c 0,112,113
 883 577 883 577 883 603 c 0,114,115
 883 628 883 628 865 646 c 256,116,117
 847 664 847 664 822 664 c 256,118,119
 797 664 797 664 779 646 c 256,120,121
 761 628 761 628 761 603 c 0,122,123
 761 577 761 577 779 559 c 0,124,125
 797 542 797 542 822 542 c 256,110,111
EndSplineSet
Validated: 9
EndChar

StartChar: unie625
Encoding: 58917 58917 40
Width: 1024
Flags: W
LayerCount: 2
Fore
SplineSet
646 309 m 0,0,1
 644 311 644 311 641 312 c 0,2,3
 637 312 637 312 634 311 c 0,4,5
 634 310 634 310 633 310 c 256,6,7
 632 310 632 310 632 309 c 0,8,9
 630 308 630 308 627 307 c 256,10,11
 624 306 624 306 622 305 c 0,12,13
 619 304 619 304 616 304 c 0,14,15
 613 303 613 303 610 303 c 0,16,17
 609 302 609 302 607 302 c 0,18,19
 606 302 606 302 605 302 c 256,20,21
 604 302 604 302 603 302 c 256,22,23
 602 302 602 302 602 302 c 2,24,25
 601 302 601 302 600 302 c 256,26,27
 599 302 599 302 599 302 c 2,28,29
 598 302 598 302 597 302 c 256,30,31
 596 302 596 302 595 302 c 2,32,33
 595 302 595 302 594 302 c 256,34,35
 593 302 593 302 592 302 c 256,36,37
 591 302 591 302 590 302 c 1,38,39
 590 302 590 302 590 302 c 1,40,41
 589 302 589 302 589 302 c 2,42,43
 588 302 588 302 587 302 c 256,44,45
 586 302 586 302 586 303 c 1,46,47
 579 303 579 303 573 305 c 0,48,49
 566 307 566 307 560 310 c 256,50,51
 554 313 554 313 548 317 c 256,52,53
 542 321 542 321 537 326 c 0,54,55
 531 331 531 331 526 336 c 0,56,57
 522 342 522 342 518 349 c 256,58,59
 514 356 514 356 512 363 c 0,60,61
 509 371 509 371 508 378 c 0,62,63
 507 382 507 382 507 386 c 256,64,65
 507 390 507 390 507 394 c 0,66,67
 507 395 507 395 507 396 c 0,68,69
 507 398 507 398 507 398 c 2,70,71
 507 399 507 399 507 400 c 2,72,73
 507 400 507 400 507 401 c 256,74,75
 507 402 507 402 507 402 c 2,76,77
 507 404 507 404 507 406 c 0,78,79
 508 408 508 408 508 411 c 0,80,81
 511 428 511 428 519 443 c 0,82,83
 528 459 528 459 541 472 c 0,84,85
 544 475 544 475 548 478 c 0,86,87
 551 481 551 481 555 483 c 0,88,89
 559 486 559 486 563 488 c 0,90,91
 567 491 567 491 571 493 c 0,92,93
 575 494 575 494 579 496 c 0,94,95
 584 498 584 498 588 499 c 0,96,97
 593 500 593 500 598 501 c 0,98,99
 602 501 602 501 607 502 c 0,100,101
 609 502 609 502 611 502 c 0,102,103
 614 502 614 502 616 502 c 0,104,105
 617 502 617 502 617 502 c 2,106,107
 618 502 618 502 618 502 c 2,108,109
 619 502 619 502 622 502 c 1,110,111
 622 502 622 502 622 502 c 257,112,113
 622 502 622 502 623 502 c 256,114,115
 624 502 624 502 626 502 c 0,116,117
 631 502 631 502 636 501 c 256,118,119
 641 500 641 500 646 499 c 0,120,121
 656 497 656 497 665 493 c 0,122,123
 675 490 675 490 684 485 c 0,124,125
 702 475 702 475 716 460 c 0,126,127
 731 444 731 444 740 425 c 0,128,129
 745 416 745 416 748 406 c 0,130,131
 752 396 752 396 753 386 c 0,132,133
 754 383 754 383 754 380 c 0,134,135
 754 378 754 378 754 375 c 0,136,137
 754 374 754 374 754 370 c 0,138,139
 754 369 754 369 754 369 c 2,140,141
 754 368 754 368 754 368 c 2,142,143
 754 367 754 367 754 366 c 256,144,145
 754 365 754 365 754 365 c 2,146,147
 754 364 754 364 754 360 c 0,148,149
 754 359 754 359 754 357 c 256,150,151
 754 355 754 355 754 354 c 0,152,153
 753 352 753 352 753 349 c 256,154,155
 753 346 753 346 753 343 c 0,156,157
 752 340 752 340 752 337 c 0,158,159
 751 334 751 334 751 332 c 0,160,161
 751 329 751 329 750 326 c 256,162,163
 749 323 749 323 749 321 c 0,164,165
 747 315 747 315 745 310 c 0,166,167
 744 304 744 304 741 298 c 0,168,169
 737 288 737 288 732 278 c 0,170,171
 726 268 726 268 719 258 c 0,172,173
 706 239 706 239 688 225 c 0,174,175
 669 210 669 210 648 200 c 0,176,177
 638 196 638 196 627 192 c 256,178,179
 616 188 616 188 604 187 c 0,180,181
 598 186 598 186 593 185 c 0,182,183
 587 185 587 185 581 184 c 0,184,185
 578 184 578 184 570 184 c 2,186,187
 570 184 570 184 569 184 c 0,188,189
 566 184 566 184 563 185 c 0,190,191
 560 185 560 185 557 185 c 0,192,193
 545 186 545 186 533 188 c 0,194,195
 520 190 520 190 508 194 c 0,196,197
 497 197 497 197 485 202 c 0,198,199
 474 206 474 206 463 212 c 0,200,201
 441 223 441 223 422 239 c 256,202,203
 403 255 403 255 388 274 c 0,204,205
 380 284 380 284 373 294 c 0,206,207
 367 305 367 305 361 315 c 0,208,209
 356 326 356 326 351 338 c 0,210,211
 347 349 347 349 344 360 c 0,212,213
 340 372 340 372 339 384 c 0,214,215
 337 396 337 396 336 408 c 0,216,217
 336 413 336 413 336 423 c 0,218,219
 336 424 336 424 336 425 c 256,220,221
 336 426 336 426 336 428 c 0,222,223
 336 429 336 429 336 431 c 0,224,225
 336 436 336 436 337 442 c 0,226,227
 337 449 337 449 338 455 c 256,228,229
 339 461 339 461 340 467 c 256,230,231
 341 473 341 473 342 479 c 256,232,233
 343 485 343 485 345 491 c 0,234,235
 346 497 346 497 348 503 c 0,236,237
 351 515 351 515 355 527 c 0,238,239
 360 538 360 538 365 549 c 0,240,241
 375 570 375 570 388 589 c 256,242,243
 401 608 401 608 416 624 c 0,244,245
 420 627 420 627 424 631 c 0,246,247
 428 634 428 634 433 638 c 0,248,249
 437 641 437 641 441 645 c 0,250,251
 446 648 446 648 450 651 c 0,252,253
 455 654 455 654 459 657 c 0,254,255
 464 659 464 659 468 662 c 0,256,257
 471 663 471 663 473 664 c 0,258,259
 476 665 476 665 478 666 c 0,260,261
 479 666 479 666 481 667 c 0,262,263
 482 668 482 668 483 668 c 0,264,265
 484 669 484 669 486 669 c 0,266,267
 487 670 487 670 488 670 c 0,268,269
 493 672 493 672 498 674 c 0,270,271
 504 676 504 676 509 677 c 0,272,273
 510 678 510 678 511 678 c 0,274,275
 513 679 513 679 514 679 c 256,276,277
 515 679 515 679 517 680 c 0,278,279
 518 680 518 680 519 680 c 0,280,281
 520 681 520 681 524 682 c 0,282,283
 527 683 527 683 530 683 c 0,284,285
 531 683 531 683 532 684 c 0,286,287
 534 684 534 684 535 684 c 256,288,289
 536 684 536 684 538 685 c 0,290,291
 539 685 539 685 540 685 c 0,292,293
 542 685 542 685 543 686 c 0,294,295
 544 686 544 686 546 686 c 0,296,297
 547 686 547 686 551 687 c 0,298,299
 552 687 552 687 554 688 c 0,300,301
 555 688 555 688 557 688 c 0,302,303
 558 689 558 689 560 689 c 0,304,305
 561 689 561 689 563 689 c 0,306,307
 564 689 564 689 566 689 c 0,308,309
 568 690 568 690 569 690 c 256,310,311
 570 690 570 690 571 690 c 256,312,313
 572 690 572 690 572 690 c 2,314,315
 573 690 573 690 575 691 c 0,316,317
 576 691 576 691 578 691 c 0,318,319
 579 691 579 691 581 691 c 0,320,321
 582 691 582 691 584 691 c 0,322,323
 585 691 585 691 587 691 c 2,324,325
 587 691 587 691 589 691 c 0,326,327
 590 691 590 691 591 691 c 0,328,329
 593 691 593 691 594 691 c 0,330,331
 599 691 599 691 604 691 c 256,332,333
 609 691 609 691 614 691 c 0,334,335
 625 691 625 691 635 690 c 256,336,337
 645 689 645 689 654 687 c 0,338,339
 674 683 674 683 692 677 c 0,340,341
 711 671 711 671 727 663 c 0,342,343
 744 654 744 654 758 645 c 0,344,345
 773 635 773 635 786 624 c 0,346,347
 787 623 787 623 788 622 c 256,348,349
 789 621 789 621 790 621 c 1,350,351
 790 620 790 620 791 620 c 0,352,353
 792 619 792 619 793 618 c 256,354,355
 794 617 794 617 796 616 c 0,356,357
 797 614 797 614 799 613 c 0,358,359
 800 611 800 611 802 610 c 0,360,361
 803 609 803 609 805 607 c 0,362,363
 806 606 806 606 808 604 c 0,364,365
 809 603 809 603 810 602 c 0,366,367
 816 596 816 596 821 590 c 256,368,369
 826 584 826 584 831 578 c 0,370,371
 840 566 840 566 848 554 c 0,372,373
 855 543 855 543 861 531 c 1,374,375
 861 531 861 531 861 530 c 0,376,377
 862 529 862 529 862 529 c 2,378,379
 863 528 863 528 863 527 c 2,380,381
 863 527 863 527 864 526 c 256,382,383
 865 525 865 525 865 524 c 0,384,385
 866 522 866 522 866 521 c 0,386,387
 867 519 867 519 868 518 c 0,388,389
 868 517 868 517 869 515 c 0,390,391
 870 514 870 514 870 512 c 0,392,393
 871 511 871 511 871 510 c 0,394,395
 874 505 874 505 876 500 c 256,396,397
 878 495 878 495 879 490 c 0,398,399
 882 482 882 482 884 475 c 256,400,401
 886 468 886 468 887 462 c 0,402,403
 888 460 888 460 890 459 c 0,404,405
 892 457 892 457 894 457 c 0,406,407
 897 458 897 458 899 459 c 0,408,409
 901 461 901 461 901 464 c 0,410,411
 901 470 901 470 900 478 c 0,412,413
 900 486 900 486 900 494 c 0,414,415
 898 505 898 505 897 517 c 0,416,417
 895 529 895 529 891 543 c 256,418,419
 887 557 887 557 882 572 c 256,420,421
 877 587 877 587 869 602 c 256,422,423
 861 617 861 617 851 633 c 256,424,425
 841 649 841 649 827 665 c 0,426,427
 822 671 822 671 817 677 c 0,428,429
 811 683 811 683 805 689 c 1,430,431
 814 725 814 725 802 752 c 0,432,433
 790 778 790 778 790 778 c 1,434,435
 755 781 755 781 734 771 c 0,436,437
 712 762 712 762 704 756 c 0,438,439
 702 757 702 757 701 757 c 0,440,441
 700 758 700 758 698 758 c 0,442,443
 693 761 693 761 687 763 c 0,444,445
 680 765 680 765 674 767 c 256,446,447
 668 769 668 769 662 771 c 0,448,449
 655 773 655 773 649 774 c 0,450,451
 642 776 642 776 636 777 c 0,452,453
 629 778 629 778 622 779 c 0,454,455
 621 779 621 779 620 780 c 0,456,457
 619 780 619 780 617 780 c 0,458,459
 602 828 602 828 571 849 c 256,460,461
 540 870 540 870 540 870 c 1,462,463
 492 840 492 840 478 806 c 0,464,465
 464 773 464 773 464 773 c 2,466,467
 464 772 464 772 465 771 c 2,468,469
 465 771 465 771 465 770 c 0,470,471
 462 769 462 769 459 768 c 256,472,473
 456 767 456 767 452 766 c 256,474,475
 448 765 448 765 445 764 c 0,476,477
 441 762 441 762 437 761 c 0,478,479
 434 759 434 759 430 758 c 256,480,481
 426 757 426 757 423 755 c 0,482,483
 416 752 416 752 408 748 c 0,484,485
 401 745 401 745 394 740 c 0,486,487
 387 737 387 737 380 732 c 0,488,489
 374 728 374 728 367 723 c 0,490,491
 366 723 366 723 366 723 c 2,492,493
 366 722 366 722 366 722 c 2,494,495
 365 724 365 724 365 724 c 257,496,497
 365 724 365 724 365 724 c 1,498,499
 342 733 342 733 319 736 c 0,500,501
 297 739 297 739 278 738 c 0,502,503
 242 736 242 736 220 727 c 0,504,505
 197 718 197 718 197 718 c 1,506,507
 192 647 192 647 213 604 c 0,508,509
 235 561 235 561 241 553 c 0,510,511
 240 549 240 549 238 544 c 0,512,513
 237 540 237 540 236 535 c 0,514,515
 231 519 231 519 227 502 c 0,516,517
 223 486 223 486 221 469 c 0,518,519
 221 467 221 467 220 464 c 0,520,521
 220 462 220 462 220 459 c 0,522,523
 180 440 180 440 157 411 c 0,524,525
 135 382 135 382 124 361 c 0,526,527
 119 349 119 349 116 342 c 0,528,529
 114 335 114 335 114 335 c 1,530,531
 132 315 132 315 150 300 c 0,532,533
 169 286 169 286 186 277 c 0,534,535
 218 260 218 260 240 256 c 256,536,537
 262 252 262 252 262 252 c 1,538,539
 270 238 270 238 279 225 c 0,540,541
 287 212 287 212 297 200 c 0,542,543
 302 195 302 195 306 190 c 256,544,545
 310 185 310 185 315 181 c 1,546,547
 296 127 296 127 307 88 c 0,548,549
 318 50 318 50 318 50 c 1,550,551
 376 47 376 47 412 66 c 256,552,553
 448 85 448 85 456 92 c 1,554,555
 461 90 461 90 467 88 c 0,556,557
 473 87 473 87 479 85 c 0,558,559
 496 80 496 80 514 78 c 0,560,561
 532 75 532 75 550 74 c 0,562,563
 555 74 555 74 559 74 c 0,564,565
 564 74 564 74 568 74 c 0,566,567
 573 74 573 74 581 74 c 1,568,569
 608 35 608 35 644 25 c 256,570,571
 680 15 680 15 680 15 c 1,572,573
 718 56 718 56 723 89 c 256,574,575
 728 122 728 122 728 122 c 257,576,577
 728 122 728 122 727 123 c 1,578,579
 727 123 727 123 727 123 c 1,580,581
 734 128 734 128 741 134 c 0,582,583
 748 139 748 139 755 145 c 0,584,585
 768 158 768 158 780 171 c 0,586,587
 792 185 792 185 801 200 c 0,588,589
 802 202 802 202 803 203 c 256,590,591
 804 204 804 204 805 206 c 0,592,593
 843 204 843 204 867 221 c 256,594,595
 891 238 891 238 891 238 c 1,596,597
 884 282 884 282 865 302 c 0,598,599
 845 322 845 322 845 322 c 257,600,601
 845 322 845 322 845 322 c 1,602,603
 844 322 844 322 844 322 c 2,604,605
 845 324 845 324 845 327 c 256,606,607
 845 330 845 330 845 332 c 0,608,609
 846 337 846 337 846 341 c 256,610,611
 846 345 846 345 846 349 c 0,612,613
 846 352 846 352 846 356 c 0,614,615
 846 358 846 358 846 358 c 257,616,617
 846 358 846 358 846 358 c 1,618,619
 846 359 846 359 846 361 c 256,620,621
 846 363 846 363 845 366 c 0,622,623
 845 367 845 367 845 368 c 0,624,625
 845 370 845 370 845 371 c 256,626,627
 845 372 845 372 845 373 c 256,628,629
 845 374 845 374 844 375 c 0,630,631
 844 378 844 378 843 385 c 0,632,633
 842 389 842 389 842 393 c 0,634,635
 841 398 841 398 840 402 c 0,636,637
 836 419 836 419 830 435 c 0,638,639
 823 451 823 451 814 466 c 256,640,641
 805 481 805 481 794 493 c 0,642,643
 783 506 783 506 771 517 c 256,644,645
 759 528 759 528 745 537 c 0,646,647
 731 545 731 545 717 552 c 0,648,649
 702 558 702 558 687 563 c 0,650,651
 672 567 672 567 657 569 c 0,652,653
 649 570 649 570 642 570 c 0,654,655
 634 571 634 571 627 570 c 0,656,657
 625 570 625 570 622 570 c 2,658,659
 622 570 622 570 621 570 c 1,660,661
 621 570 621 570 621 570 c 1,662,663
 619 570 619 570 616 570 c 0,664,665
 615 570 615 570 614 570 c 256,666,667
 613 570 613 570 612 570 c 0,668,669
 608 569 608 569 604 569 c 256,670,671
 600 569 600 569 596 568 c 0,672,673
 582 565 582 565 567 560 c 0,674,675
 553 554 553 554 541 547 c 0,676,677
 528 539 528 539 517 530 c 256,678,679
 506 521 506 521 498 510 c 0,680,681
 489 499 489 499 482 488 c 0,682,683
 475 476 475 476 471 464 c 0,684,685
 466 452 466 452 463 439 c 0,686,687
 461 426 461 426 460 414 c 0,688,689
 460 411 460 411 460 408 c 0,690,691
 459 405 459 405 459 402 c 0,692,693
 459 401 459 401 459 400 c 2,694,695
 459 400 459 400 459 399 c 256,696,697
 459 398 459 398 459 396 c 256,698,699
 459 394 459 394 460 393 c 0,700,701
 460 391 460 391 460 390 c 0,702,703
 461 384 461 384 462 378 c 256,704,705
 463 372 463 372 464 366 c 0,706,707
 468 355 468 355 473 344 c 0,708,709
 478 334 478 334 485 325 c 0,710,711
 491 316 491 316 499 309 c 256,712,713
 507 302 507 302 515 296 c 0,714,715
 524 290 524 290 532 286 c 0,716,717
 541 282 541 282 550 280 c 0,718,719
 559 277 559 277 567 276 c 0,720,721
 576 274 576 274 584 274 c 0,722,723
 585 274 585 274 586 274 c 256,724,725
 587 274 587 274 588 274 c 256,726,727
 589 274 589 274 589 274 c 2,728,729
 590 274 590 274 590 274 c 2,730,731
 591 274 591 274 591 274 c 2,732,733
 592 274 592 274 592 274 c 2,734,735
 593 274 593 274 594 274 c 0,736,737
 595 275 595 275 596 275 c 1,738,739
 596 275 596 275 596 275 c 1,740,741
 597 275 597 275 597 275 c 257,742,743
 597 275 597 275 598 275 c 2,744,745
 598 275 598 275 599 275 c 256,746,747
 600 275 600 275 600 275 c 2,748,749
 601 275 601 275 602 276 c 0,750,751
 603 276 603 276 604 276 c 256,752,753
 605 276 605 276 606 276 c 0,754,755
 607 277 607 277 608 277 c 0,756,757
 610 277 610 277 612 278 c 256,758,759
 614 279 614 279 615 279 c 0,760,761
 619 280 619 280 622 282 c 0,762,763
 626 283 626 283 629 285 c 0,764,765
 632 286 632 286 635 288 c 256,766,767
 638 290 638 290 641 292 c 2,768,769
 641 292 641 292 642 293 c 256,770,771
 643 294 643 294 644 294 c 0,772,773
 647 298 647 298 647 302 c 0,774,775
 648 306 648 306 646 309 c 0,0,1
EndSplineSet
Validated: 37
EndChar

StartChar: unie626
Encoding: 58918 58918 41
Width: 1024
Flags: W
LayerCount: 2
Fore
SplineSet
774 736 m 1,0,1
 774 736 774 736 775 736 c 2,2,3
 775 736 775 736 775 737 c 0,4,5
 782 750 782 750 797 776 c 0,6,7
 802 783 802 783 799 792 c 0,8,9
 797 800 797 800 790 805 c 0,10,11
 771 815 771 815 735 836 c 0,12,13
 727 841 727 841 719 838 c 0,14,15
 710 836 710 836 706 829 c 0,16,17
 699 815 699 815 684 789 c 1,18,19
 684 789 684 789 684 789 c 257,20,21
 684 789 684 789 684 789 c 1,22,23
 652 802 652 802 618 811 c 0,24,25
 584 819 584 819 549 823 c 1,26,27
 549 834 549 834 549 858 c 1,28,29
 574 858 574 858 625 858 c 1,30,31
 625 875 625 875 625 909 c 0,32,33
 625 919 625 919 618 927 c 0,34,35
 610 935 610 935 599 935 c 0,36,37
 541 935 541 935 425 935 c 0,38,39
 414 935 414 935 406 927 c 0,40,41
 399 920 399 920 399 909 c 0,42,43
 399 892 399 892 399 859 c 1,44,45
 424 859 424 859 475 859 c 1,46,47
 475 847 475 847 475 823 c 1,48,49
 417 818 417 818 364 798 c 0,50,51
 310 779 310 779 264 747 c 0,52,53
 179 688 179 688 128 594 c 256,54,55
 77 500 77 500 77 389 c 0,56,57
 77 326 77 326 94 268 c 256,58,59
 111 210 111 210 142 160 c 0,60,61
 199 67 199 67 297 10 c 256,62,63
 395 -47 395 -47 512 -47 c 256,64,65
 629 -47 629 -47 727 10 c 256,66,67
 825 67 825 67 882 160 c 0,68,69
 913 210 913 210 930 268 c 256,70,71
 947 326 947 326 947 389 c 0,72,73
 947 495 947 495 900 586 c 0,74,75
 853 676 853 676 774 736 c 1,0,1
512 3 m 256,76,77
 408 3 408 3 322 53 c 0,78,79
 235 103 235 103 184 186 c 0,80,81
 156 230 156 230 141 282 c 0,82,83
 126 333 126 333 126 389 c 256,84,85
 126 445 126 445 141 497 c 256,86,87
 156 549 156 549 184 593 c 0,88,89
 235 675 235 675 322 725 c 0,90,91
 408 775 408 775 512 775 c 256,92,93
 616 775 616 775 702 725 c 0,94,95
 789 675 789 675 840 592 c 0,96,97
 868 548 868 548 883 497 c 0,98,99
 898 445 898 445 898 389 c 256,100,101
 898 333 898 333 883 281 c 256,102,103
 868 229 868 229 840 185 c 0,104,105
 789 103 789 103 702 53 c 0,106,107
 616 3 616 3 512 3 c 256,76,77
512 745 m 256,108,109
 460 745 460 745 413 731 c 0,110,111
 365 717 365 717 325 692 c 0,112,113
 249 644 249 644 203 565 c 0,114,115
 156 485 156 485 156 389 c 0,116,117
 156 294 156 294 203 214 c 0,118,119
 249 134 249 134 325 87 c 0,120,121
 366 62 366 62 413 48 c 0,122,123
 461 34 461 34 512 34 c 0,124,125
 564 34 564 34 611 48 c 0,126,127
 659 62 659 62 699 87 c 0,128,129
 775 134 775 134 821 214 c 0,130,131
 868 294 868 294 868 389 c 0,132,133
 868 485 868 485 821 565 c 0,134,135
 775 644 775 644 699 692 c 0,136,137
 659 717 659 717 611 731 c 0,138,139
 564 745 564 745 512 745 c 256,108,109
689 93 m 1,140,141
 686 99 686 99 678 112 c 0,142,143
 676 111 676 111 674 109 c 0,144,145
 671 108 671 108 669 107 c 1,146,147
 673 100 673 100 680 88 c 1,148,149
 644 68 644 68 603 56 c 0,150,151
 562 45 562 45 518 44 c 1,152,153
 518 51 518 51 518 66 c 1,154,155
 517 66 517 66 515 66 c 0,156,157
 514 66 514 66 513 66 c 0,158,159
 511 66 511 66 510 66 c 0,160,161
 508 66 508 66 507 66 c 1,162,163
 507 59 507 59 507 44 c 1,164,165
 463 45 463 45 422 56 c 256,166,167
 381 67 381 67 345 88 c 1,168,169
 349 94 349 94 356 107 c 1,170,171
 354 108 354 108 351 109 c 0,172,173
 349 111 349 111 347 112 c 0,174,175
 343 106 343 106 336 93 c 1,176,177
 299 115 299 115 269 145 c 0,178,179
 239 176 239 176 217 212 c 1,180,181
 223 216 223 216 236 223 c 0,182,183
 235 225 235 225 233 228 c 0,184,185
 232 230 232 230 230 232 c 0,186,187
 224 229 224 229 211 221 c 1,188,189
 191 257 191 257 180 298 c 0,190,191
 169 340 169 340 168 383 c 1,192,193
 175 383 175 383 190 383 c 1,194,195
 190 385 190 385 190 386 c 0,196,197
 190 388 190 388 190 389 c 256,198,199
 190 390 190 390 190 392 c 0,200,201
 190 393 190 393 190 394 c 1,202,203
 183 394 183 394 168 394 c 1,204,205
 169 438 169 438 180 479 c 256,206,207
 191 520 191 520 211 556 c 1,208,209
 218 553 218 553 230 545 c 1,210,211
 232 548 232 548 233 550 c 0,212,213
 235 553 235 553 236 555 c 1,214,215
 230 558 230 558 217 566 c 1,216,217
 239 602 239 602 269 632 c 256,218,219
 299 662 299 662 336 684 c 1,220,221
 339 678 339 678 347 665 c 1,222,223
 349 667 349 667 352 668 c 0,224,225
 354 670 354 670 356 671 c 1,226,227
 352 677 352 677 345 690 c 1,228,229
 381 710 381 710 422 721 c 0,230,231
 463 733 463 733 507 734 c 1,232,233
 507 726 507 726 507 711 c 1,234,235
 508 711 508 711 510 711 c 0,236,237
 511 711 511 711 513 711 c 0,238,239
 514 711 514 711 515 711 c 0,240,241
 517 711 517 711 518 711 c 1,242,243
 518 719 518 719 518 734 c 1,244,245
 562 733 562 733 603 722 c 0,246,247
 644 710 644 710 680 690 c 1,248,249
 676 684 676 684 669 671 c 1,250,251
 672 670 672 670 674 668 c 0,252,253
 676 667 676 667 678 665 c 1,254,255
 682 672 682 672 689 684 c 1,256,257
 726 662 726 662 756 632 c 256,258,259
 786 602 786 602 808 566 c 1,260,261
 802 562 802 562 789 555 c 0,262,263
 790 552 790 552 792 550 c 0,264,265
 793 547 793 547 795 545 c 0,266,267
 801 549 801 549 814 556 c 1,268,269
 834 520 834 520 845 479 c 0,270,271
 857 438 857 438 857 394 c 1,272,273
 850 394 850 394 835 394 c 1,274,275
 835 393 835 393 835 392 c 0,276,277
 835 390 835 390 835 389 c 256,278,279
 835 388 835 388 835 386 c 0,280,281
 835 385 835 385 835 383 c 1,282,283
 842 383 842 383 857 383 c 1,284,285
 857 339 857 339 845 298 c 0,286,287
 834 257 834 257 814 221 c 1,288,289
 807 225 807 225 795 232 c 0,290,291
 793 230 793 230 792 227 c 0,292,293
 790 225 790 225 789 223 c 0,294,295
 796 219 796 219 808 212 c 1,296,297
 786 176 786 176 756 145 c 0,298,299
 726 115 726 115 689 93 c 1,140,141
539 391 m 0,300,301
 530 494 530 494 512 700 c 1,302,303
 503 597 503 597 485 391 c 0,304,305
 485 389 485 389 485 388 c 0,306,307
 485 378 485 378 492 370 c 0,308,309
 500 362 500 362 512 362 c 256,310,311
 524 362 524 362 532 370 c 0,312,313
 539 378 539 378 539 389 c 0,314,315
 539 390 539 390 539 391 c 0,300,301
EndSplineSet
Validated: 5
EndChar

StartChar: unie627
Encoding: 58919 58919 42
Width: 4800
Flags: W
LayerCount: 2
Fore
SplineSet
1613 616 m 1,0,1
 1627 616 1627 616 1655 616 c 1,2,3
 1679 535 1679 535 1726 372 c 1,4,5
 1726 372 1726 372 1727 372 c 0,6,7
 1754 453 1754 453 1808 616 c 1,8,9
 1820 616 1820 616 1844 616 c 1,10,11
 1873 535 1873 535 1931 372 c 1,12,13
 1931 372 1931 372 1932 372 c 0,14,15
 1955 453 1955 453 2001 616 c 1,16,17
 2013 616 2013 616 2038 616 c 1,18,19
 2010 519 2010 519 1953 325 c 1,20,21
 1940 325 1940 325 1914 325 c 1,22,23
 1885 404 1885 404 1827 563 c 0,24,25
 1826 563 1826 563 1825 563 c 0,26,27
 1798 484 1798 484 1744 325 c 1,28,29
 1731 325 1731 325 1705 325 c 1,30,31
 1674 422 1674 422 1613 616 c 1,32,33
 1613 616 1613 616 1613 616 c 1,0,1
2048 471 m 0,34,35
 2048 487 2048 487 2051 503 c 0,36,37
 2054 518 2054 518 2060 532 c 0,38,39
 2065 546 2065 546 2073 558 c 256,40,41
 2081 570 2081 570 2091 581 c 0,42,43
 2101 591 2101 591 2113 599 c 0,44,45
 2126 607 2126 607 2140 612 c 0,46,47
 2154 618 2154 618 2169 621 c 0,48,49
 2185 624 2185 624 2202 624 c 0,50,51
 2218 624 2218 624 2234 621 c 0,52,53
 2249 618 2249 618 2263 612 c 0,54,55
 2277 607 2277 607 2289 599 c 256,56,57
 2301 591 2301 591 2312 581 c 0,58,59
 2322 570 2322 570 2330 558 c 256,60,61
 2338 546 2338 546 2343 532 c 0,62,63
 2349 518 2349 518 2352 503 c 0,64,65
 2355 487 2355 487 2355 471 c 0,66,67
 2355 454 2355 454 2352 438 c 0,68,69
 2349 423 2349 423 2343 409 c 0,70,71
 2338 395 2338 395 2330 383 c 256,72,73
 2322 371 2322 371 2312 360 c 0,74,75
 2301 350 2301 350 2289 342 c 256,76,77
 2277 334 2277 334 2263 329 c 0,78,79
 2249 323 2249 323 2234 320 c 0,80,81
 2218 317 2218 317 2202 317 c 0,82,83
 2185 317 2185 317 2169 320 c 0,84,85
 2154 323 2154 323 2140 329 c 0,86,87
 2126 334 2126 334 2113 342 c 0,88,89
 2101 350 2101 350 2091 360 c 0,90,91
 2081 371 2081 371 2073 383 c 256,92,93
 2065 395 2065 395 2060 409 c 0,94,95
 2054 423 2054 423 2051 438 c 0,96,97
 2048 454 2048 454 2048 471 c 0,34,35
2086 471 m 0,98,99
 2086 458 2086 458 2088 447 c 0,100,101
 2090 435 2090 435 2094 424 c 256,102,103
 2098 413 2098 413 2104 404 c 0,104,105
 2109 394 2109 394 2117 386 c 256,106,107
 2125 378 2125 378 2134 372 c 256,108,109
 2143 366 2143 366 2154 361 c 0,110,111
 2164 356 2164 356 2176 354 c 0,112,113
 2188 351 2188 351 2202 351 c 0,114,115
 2215 351 2215 351 2227 354 c 0,116,117
 2239 356 2239 356 2249 361 c 0,118,119
 2260 366 2260 366 2269 372 c 256,120,121
 2278 378 2278 378 2286 386 c 256,122,123
 2294 394 2294 394 2299 404 c 0,124,125
 2305 413 2305 413 2309 424 c 256,126,127
 2313 435 2313 435 2315 447 c 0,128,129
 2317 458 2317 458 2317 471 c 0,130,131
 2317 483 2317 483 2315 494 c 0,132,133
 2313 506 2313 506 2309 517 c 256,134,135
 2305 528 2305 528 2299 537 c 0,136,137
 2294 547 2294 547 2286 555 c 256,138,139
 2278 563 2278 563 2269 569 c 0,140,141
 2260 576 2260 576 2249 580 c 0,142,143
 2239 585 2239 585 2227 587 c 0,144,145
 2215 590 2215 590 2202 590 c 0,146,147
 2188 590 2188 590 2176 587 c 0,148,149
 2164 585 2164 585 2154 580 c 0,150,151
 2143 576 2143 576 2134 569 c 0,152,153
 2125 563 2125 563 2117 555 c 256,154,155
 2109 547 2109 547 2104 537 c 0,156,157
 2098 528 2098 528 2094 517 c 256,158,159
 2090 506 2090 506 2088 494 c 0,160,161
 2086 483 2086 483 2086 471 c 0,98,99
2404 534 m 1,162,163
 2404 538 2404 538 2403 543 c 0,164,165
 2403 548 2403 548 2403 554 c 256,166,167
 2403 560 2403 560 2402 566 c 0,168,169
 2402 572 2402 572 2402 578 c 256,170,171
 2402 584 2402 584 2402 589 c 0,172,173
 2401 595 2401 595 2401 600 c 256,174,175
 2401 605 2401 605 2401 609 c 0,176,177
 2400 613 2400 613 2400 616 c 1,178,179
 2413 616 2413 616 2438 616 c 1,180,181
 2439 608 2439 608 2439 600 c 256,182,183
 2439 592 2439 592 2439 585 c 0,184,185
 2439 577 2439 577 2440 572 c 0,186,187
 2440 567 2440 567 2441 565 c 1,188,189
 2448 578 2448 578 2457 589 c 0,190,191
 2467 599 2467 599 2478 607 c 0,192,193
 2489 616 2489 616 2503 620 c 256,194,195
 2517 624 2517 624 2533 624 c 0,196,197
 2536 624 2536 624 2539 624 c 0,198,199
 2542 623 2542 623 2544 623 c 0,200,201
 2547 622 2547 622 2550 622 c 0,202,203
 2553 621 2553 621 2556 621 c 1,204,205
 2554 608 2554 608 2551 583 c 1,206,207
 2547 585 2547 585 2544 585 c 0,208,209
 2540 586 2540 586 2537 586 c 0,210,211
 2524 586 2524 586 2514 584 c 0,212,213
 2503 582 2503 582 2494 578 c 256,214,215
 2485 574 2485 574 2478 569 c 0,216,217
 2470 563 2470 563 2464 556 c 0,218,219
 2459 549 2459 549 2454 541 c 0,220,221
 2450 533 2450 533 2447 524 c 0,222,223
 2444 514 2444 514 2443 504 c 0,224,225
 2441 494 2441 494 2441 484 c 0,226,227
 2441 431 2441 431 2441 325 c 1,228,229
 2429 325 2429 325 2404 325 c 1,230,231
 2404 395 2404 395 2404 534 c 1,232,233
 2404 534 2404 534 2404 534 c 1,162,163
3063 771 m 1,234,235
 3118 771 3118 771 3228 771 c 0,236,237
 3246 771 3246 771 3262 770 c 0,238,239
 3279 768 3279 768 3294 765 c 256,240,241
 3309 762 3309 762 3323 756 c 0,242,243
 3336 751 3336 751 3348 743 c 0,244,245
 3359 735 3359 735 3369 725 c 0,246,247
 3378 715 3378 715 3384 702 c 0,248,249
 3391 689 3391 689 3395 672 c 0,250,251
 3398 656 3398 656 3398 636 c 256,252,253
 3398 616 3398 616 3395 600 c 0,254,255
 3392 583 3392 583 3385 570 c 0,256,257
 3379 557 3379 557 3370 546 c 0,258,259
 3362 536 3362 536 3351 528 c 256,260,261
 3340 520 3340 520 3327 514 c 0,262,263
 3314 509 3314 509 3298 506 c 0,264,265
 3283 502 3283 502 3267 501 c 0,266,267
 3250 499 3250 499 3233 499 c 0,268,269
 3209 499 3209 499 3161 499 c 1,270,271
 3161 441 3161 441 3161 325 c 1,272,273
 3128 325 3128 325 3063 325 c 1,274,275
 3063 474 3063 474 3063 771 c 1,276,277
 3063 771 3063 771 3063 771 c 1,234,235
3161 582 m 1,278,279
 3183 582 3183 582 3227 582 c 0,280,281
 3233 582 3233 582 3240 583 c 0,282,283
 3246 583 3246 583 3252 585 c 0,284,285
 3258 586 3258 586 3264 588 c 0,286,287
 3269 590 3269 590 3274 593 c 256,288,289
 3279 596 3279 596 3283 600 c 256,290,291
 3287 604 3287 604 3290 610 c 0,292,293
 3293 615 3293 615 3294 621 c 0,294,295
 3296 628 3296 628 3296 636 c 256,296,297
 3296 644 3296 644 3294 651 c 256,298,299
 3292 658 3292 658 3288 663 c 256,300,301
 3284 668 3284 668 3279 672 c 256,302,303
 3274 676 3274 676 3268 679 c 256,304,305
 3262 682 3262 682 3255 684 c 256,306,307
 3248 686 3248 686 3240 686 c 0,308,309
 3233 687 3233 687 3226 688 c 0,310,311
 3218 688 3218 688 3211 688 c 0,312,313
 3195 688 3195 688 3161 688 c 1,314,315
 3161 653 3161 653 3161 582 c 1,316,317
 3161 582 3161 582 3161 582 c 1,278,279
3434 631 m 1,318,319
 3466 631 3466 631 3529 631 c 1,320,321
 3529 529 3529 529 3529 325 c 1,322,323
 3497 325 3497 325 3434 325 c 1,324,325
 3434 427 3434 427 3434 631 c 1,318,319
3586 631 m 1,326,327
 3616 631 3616 631 3677 631 c 1,328,329
 3677 617 3677 617 3677 590 c 1,330,331
 3677 590 3677 590 3678 590 c 0,332,333
 3680 594 3680 594 3683 599 c 0,334,335
 3687 603 3687 603 3691 607 c 0,336,337
 3695 612 3695 612 3700 616 c 0,338,339
 3704 620 3704 620 3710 623 c 0,340,341
 3716 627 3716 627 3722 629 c 0,342,343
 3729 632 3729 632 3736 634 c 0,344,345
 3743 637 3743 637 3751 638 c 256,346,347
 3759 639 3759 639 3768 639 c 0,348,349
 3786 639 3786 639 3800 636 c 0,350,351
 3815 633 3815 633 3826 628 c 0,352,353
 3837 622 3837 622 3845 615 c 0,354,355
 3854 607 3854 607 3860 597 c 256,356,357
 3866 587 3866 587 3870 576 c 0,358,359
 3874 564 3874 564 3877 551 c 0,360,361
 3879 538 3879 538 3880 524 c 0,362,363
 3881 509 3881 509 3881 494 c 0,364,365
 3881 438 3881 438 3881 325 c 1,366,367
 3850 325 3850 325 3786 325 c 1,368,369
 3786 375 3786 375 3786 475 c 0,370,371
 3786 482 3786 482 3786 488 c 0,372,373
 3786 495 3786 495 3786 502 c 0,374,375
 3785 509 3785 509 3784 516 c 0,376,377
 3782 523 3782 523 3780 529 c 0,378,379
 3777 535 3777 535 3774 539 c 0,380,381
 3770 544 3770 544 3765 548 c 256,382,383
 3760 552 3760 552 3753 554 c 256,384,385
 3746 556 3746 556 3737 556 c 256,386,387
 3728 556 3728 556 3721 554 c 0,388,389
 3713 552 3713 552 3708 549 c 0,390,391
 3702 546 3702 546 3698 541 c 0,392,393
 3693 537 3693 537 3690 531 c 0,394,395
 3687 526 3687 526 3685 520 c 0,396,397
 3683 513 3683 513 3682 506 c 0,398,399
 3681 500 3681 500 3681 492 c 0,400,401
 3681 485 3681 485 3681 477 c 0,402,403
 3681 427 3681 427 3681 325 c 1,404,405
 3649 325 3649 325 3586 325 c 1,406,407
 3586 427 3586 427 3586 631 c 1,408,409
 3586 631 3586 631 3586 631 c 1,326,327
4238 351 m 1,410,411
 4238 307 4238 307 4227 274 c 256,412,413
 4216 241 4216 241 4194 219 c 0,414,415
 4172 196 4172 196 4139 185 c 0,416,417
 4105 174 4105 174 4061 174 c 0,418,419
 4040 174 4040 174 4020 176 c 256,420,421
 4000 178 4000 178 3980 183 c 0,422,423
 3960 187 3960 187 3942 196 c 0,424,425
 3923 205 3923 205 3907 218 c 1,426,427
 3924 244 3924 244 3959 297 c 1,428,429
 3970 287 3970 287 3982 280 c 0,430,431
 3993 273 3993 273 4005 268 c 0,432,433
 4018 262 4018 262 4031 259 c 0,434,435
 4044 257 4044 257 4059 257 c 0,436,437
 4080 257 4080 257 4096 262 c 256,438,439
 4112 267 4112 267 4123 278 c 0,440,441
 4133 288 4133 288 4138 302 c 0,442,443
 4143 315 4143 315 4143 332 c 0,444,445
 4143 342 4143 342 4143 361 c 1,446,447
 4143 361 4143 361 4142 361 c 0,448,449
 4134 350 4134 350 4124 343 c 0,450,451
 4113 335 4113 335 4101 330 c 0,452,453
 4089 326 4089 326 4078 323 c 0,454,455
 4066 321 4066 321 4056 321 c 0,456,457
 4039 321 4039 321 4023 324 c 0,458,459
 4008 327 4008 327 3994 333 c 256,460,461
 3980 339 3980 339 3968 347 c 256,462,463
 3956 355 3956 355 3946 366 c 0,464,465
 3936 376 3936 376 3929 389 c 0,466,467
 3921 401 3921 401 3916 416 c 0,468,469
 3910 430 3910 430 3908 446 c 0,470,471
 3905 462 3905 462 3905 479 c 0,472,473
 3905 494 3905 494 3907 509 c 0,474,475
 3910 524 3910 524 3915 539 c 0,476,477
 3920 553 3920 553 3926 566 c 0,478,479
 3933 579 3933 579 3942 590 c 256,480,481
 3951 601 3951 601 3962 610 c 256,482,483
 3973 619 3973 619 3986 625 c 0,484,485
 3999 632 3999 632 4014 635 c 0,486,487
 4028 639 4028 639 4045 639 c 0,488,489
 4055 639 4055 639 4064 638 c 256,490,491
 4073 637 4073 637 4082 634 c 0,492,493
 4090 632 4090 632 4098 629 c 0,494,495
 4105 627 4105 627 4112 623 c 0,496,497
 4118 620 4118 620 4124 616 c 256,498,499
 4130 612 4130 612 4134 608 c 0,500,501
 4139 603 4139 603 4143 599 c 256,502,503
 4147 595 4147 595 4150 591 c 1,504,505
 4150 591 4150 591 4151 591 c 1,506,507
 4151 604 4151 604 4151 631 c 1,508,509
 4180 631 4180 631 4238 631 c 1,510,511
 4238 538 4238 538 4238 351 c 1,512,513
 4238 351 4238 351 4238 351 c 1,410,411
3999 480 m 256,514,515
 3999 472 3999 472 4001 465 c 0,516,517
 4002 458 4002 458 4005 451 c 0,518,519
 4008 445 4008 445 4012 439 c 256,520,521
 4016 433 4016 433 4021 427 c 0,522,523
 4026 422 4026 422 4032 418 c 256,524,525
 4038 414 4038 414 4045 411 c 0,526,527
 4052 407 4052 407 4059 406 c 0,528,529
 4067 404 4067 404 4075 404 c 256,530,531
 4083 404 4083 404 4090 406 c 0,532,533
 4098 407 4098 407 4105 411 c 0,534,535
 4112 414 4112 414 4118 418 c 256,536,537
 4124 422 4124 422 4129 427 c 0,538,539
 4134 433 4134 433 4138 439 c 256,540,541
 4142 445 4142 445 4145 451 c 0,542,543
 4148 458 4148 458 4149 465 c 0,544,545
 4151 472 4151 472 4151 480 c 256,546,547
 4151 488 4151 488 4149 495 c 0,548,549
 4148 502 4148 502 4145 509 c 0,550,551
 4142 515 4142 515 4138 521 c 256,552,553
 4134 527 4134 527 4129 533 c 0,554,555
 4124 538 4124 538 4118 542 c 256,556,557
 4112 546 4112 546 4105 549 c 256,558,559
 4098 552 4098 552 4090 554 c 0,560,561
 4083 556 4083 556 4075 556 c 256,562,563
 4067 556 4067 556 4059 554 c 0,564,565
 4052 552 4052 552 4045 549 c 256,566,567
 4038 546 4038 546 4032 542 c 256,568,569
 4026 538 4026 538 4021 533 c 0,570,571
 4016 527 4016 527 4012 521 c 256,572,573
 4008 515 4008 515 4005 509 c 0,574,575
 4002 502 4002 502 4001 495 c 0,576,577
 3999 488 3999 488 3999 480 c 256,514,515
1069 843 m 0,578,579
 952 843 952 843 856 781 c 0,580,581
 760 720 760 720 711 621 c 0,582,583
 698 595 698 595 689 567 c 0,584,585
 679 539 679 539 674 509 c 0,586,587
 672 493 672 493 670 476 c 0,588,589
 669 460 669 460 669 443 c 0,590,591
 669 335 669 335 721 245 c 0,592,593
 773 156 773 156 858 103 c 0,594,595
 904 74 904 74 958 59 c 0,596,597
 1011 43 1011 43 1069 43 c 256,598,599
 1127 43 1127 43 1180 59 c 0,600,601
 1233 74 1233 74 1279 103 c 0,602,603
 1365 156 1365 156 1417 245 c 0,604,605
 1469 335 1469 335 1469 443 c 0,606,607
 1469 550 1469 550 1417 640 c 256,608,609
 1365 730 1365 730 1279 783 c 0,610,611
 1233 811 1233 811 1180 827 c 256,612,613
 1127 843 1127 843 1069 843 c 0,578,579
704 443 m 0,614,615
 704 453 704 453 705 463 c 256,616,617
 706 473 706 473 707 483 c 1,618,619
 717 475 717 475 726 464 c 0,620,621
 735 454 735 454 735 443 c 0,622,623
 735 435 735 435 733 432 c 256,624,625
 731 429 731 429 729 427 c 0,626,627
 726 424 726 424 729 420 c 0,628,629
 731 416 731 416 752 395 c 1,630,631
 743 378 743 378 747 363 c 0,632,633
 750 347 750 347 750 329 c 0,634,635
 750 306 750 306 761 268 c 0,636,637
 773 230 773 230 796 230 c 1,638,639
 805 211 805 211 824 172 c 1,640,641
 769 223 769 223 737 292 c 0,642,643
 704 362 704 362 704 443 c 0,614,615
1137 405 m 0,644,645
 1152 375 1152 375 1159 369 c 0,646,647
 1167 363 1167 363 1175 360 c 0,648,649
 1179 358 1179 358 1185 355 c 0,650,651
 1190 352 1190 352 1198 344 c 0,652,653
 1204 338 1204 338 1211 337 c 0,654,655
 1218 335 1218 335 1225 336 c 0,656,657
 1247 339 1247 339 1268 357 c 0,658,659
 1289 374 1289 374 1289 374 c 257,660,661
 1289 374 1289 374 1293 355 c 256,662,663
 1297 336 1297 336 1320 314 c 0,664,665
 1326 307 1326 307 1329 298 c 0,666,667
 1332 290 1332 290 1331 281 c 0,668,669
 1331 260 1331 260 1321 241 c 0,670,671
 1312 223 1312 223 1312 223 c 1,672,673
 1318 211 1318 211 1329 188 c 1,674,675
 1280 137 1280 137 1213 108 c 0,676,677
 1145 78 1145 78 1069 78 c 0,678,679
 1031 78 1031 78 996 86 c 0,680,681
 961 93 961 93 928 107 c 1,682,683
 937 127 937 127 950 148 c 256,684,685
 963 169 963 169 978 169 c 0,686,687
 1001 169 1001 169 1004 173 c 0,688,689
 1008 177 1008 177 1008 200 c 0,690,691
 1008 229 1008 229 1016 235 c 0,692,693
 1023 241 1023 241 1030 244 c 0,694,695
 1034 246 1034 246 1036 249 c 0,696,697
 1039 253 1039 253 1039 261 c 0,698,699
 1039 283 1039 283 1004 291 c 0,700,701
 970 299 970 299 947 321 c 0,702,703
 925 344 925 344 909 363 c 0,704,705
 894 382 894 382 871 382 c 1,706,707
 860 405 860 405 854 409 c 0,708,709
 849 412 849 412 826 412 c 256,710,711
 803 412 803 412 796 424 c 0,712,713
 788 435 788 435 765 412 c 1,714,715
 745 432 745 432 738 474 c 0,716,717
 730 516 730 516 715 530 c 1,718,719
 718 544 718 544 723 559 c 0,720,721
 728 573 728 573 734 586 c 1,722,723
 749 574 749 574 748 554 c 0,724,725
 748 534 748 534 765 534 c 0,726,727
 771 534 771 534 774 537 c 0,728,729
 777 539 777 539 778 543 c 0,730,731
 783 556 783 556 781 575 c 0,732,733
 778 595 778 595 796 595 c 0,734,735
 818 595 818 595 837 599 c 0,736,737
 856 602 856 602 856 625 c 256,738,739
 856 648 856 648 887 636 c 0,740,741
 917 625 917 625 917 625 c 1,742,743
 940 648 940 648 940 654 c 0,744,745
 940 659 940 659 917 671 c 0,746,747
 907 676 907 676 927 669 c 0,748,749
 947 663 947 663 947 686 c 0,750,751
 947 702 947 702 945 708 c 256,752,753
 943 714 943 714 940 715 c 0,754,755
 935 718 935 718 934 717 c 0,756,757
 933 717 933 717 947 747 c 0,758,759
 955 763 955 763 963 769 c 0,760,761
 971 774 971 774 978 775 c 0,762,763
 991 776 991 776 1000 769 c 0,764,765
 1008 762 1008 762 1008 777 c 0,766,767
 1008 784 1008 784 1010 790 c 0,768,769
 1012 797 1012 797 1015 803 c 1,770,771
 1028 805 1028 805 1042 806 c 0,772,773
 1055 807 1055 807 1069 807 c 0,774,775
 1095 807 1095 807 1119 804 c 0,776,777
 1144 800 1144 800 1167 794 c 1,778,779
 1165 770 1165 770 1156 739 c 0,780,781
 1146 709 1146 709 1168 709 c 256,782,783
 1190 709 1190 709 1221 728 c 0,784,785
 1251 747 1251 747 1228 769 c 1,786,787
 1241 764 1241 764 1255 756 c 256,788,789
 1269 748 1269 748 1282 739 c 1,790,791
 1270 738 1270 738 1249 732 c 256,792,793
 1228 726 1228 726 1228 709 c 0,794,795
 1228 693 1228 693 1213 685 c 0,796,797
 1197 678 1197 678 1191 669 c 0,798,799
 1189 665 1189 665 1190 660 c 256,800,801
 1191 655 1191 655 1198 648 c 0,802,803
 1215 631 1215 631 1194 633 c 0,804,805
 1172 635 1172 635 1164 631 c 0,806,807
 1161 629 1161 629 1161 626 c 0,808,809
 1162 623 1162 623 1168 617 c 0,810,811
 1175 611 1175 611 1178 604 c 256,812,813
 1181 597 1181 597 1182 592 c 0,814,815
 1184 579 1184 579 1183 575 c 256,816,817
 1182 571 1182 571 1198 587 c 0,818,819
 1221 610 1221 610 1228 629 c 0,820,821
 1236 648 1236 648 1259 648 c 256,822,823
 1282 648 1282 648 1289 633 c 0,824,825
 1297 617 1297 617 1320 617 c 0,826,827
 1337 617 1337 617 1325 637 c 0,828,829
 1313 656 1313 656 1311 669 c 0,830,831
 1310 673 1310 673 1312 676 c 0,832,833
 1314 678 1314 678 1320 678 c 256,834,835
 1326 678 1326 678 1332 680 c 0,836,837
 1337 682 1337 682 1341 685 c 1,838,839
 1361 663 1361 663 1377 638 c 256,840,841
 1393 613 1393 613 1404 586 c 1,842,843
 1367 582 1367 582 1343 569 c 0,844,845
 1320 557 1320 557 1320 557 c 1,846,847
 1304 573 1304 573 1290 578 c 0,848,849
 1277 584 1277 584 1266 584 c 0,850,851
 1245 583 1245 583 1229 570 c 256,852,853
 1213 557 1213 557 1198 557 c 0,854,855
 1175 557 1175 557 1171 526 c 0,856,857
 1168 496 1168 496 1168 496 c 257,858,859
 1168 496 1168 496 1154 486 c 0,860,861
 1140 477 1140 477 1132 457 c 0,862,863
 1128 447 1128 447 1129 434 c 0,864,865
 1129 421 1129 421 1137 405 c 0,644,645
1069 950 m 0,866,867
 1067 950 1067 950 1066 948 c 0,868,869
 1064 947 1064 947 1064 945 c 256,870,871
 1064 943 1064 943 1066 942 c 0,872,873
 1067 940 1067 940 1069 940 c 0,874,875
 1141 940 1141 940 1207 921 c 0,876,877
 1274 901 1274 901 1331 866 c 0,878,879
 1437 800 1437 800 1502 688 c 0,880,881
 1566 577 1566 577 1566 443 c 0,882,883
 1566 371 1566 371 1547 305 c 0,884,885
 1527 238 1527 238 1492 181 c 0,886,887
 1426 75 1426 75 1314 10 c 0,888,889
 1203 -55 1203 -55 1069 -55 c 0,890,891
 997 -55 997 -55 931 -35 c 0,892,893
 864 -15 864 -15 807 20 c 0,894,895
 701 86 701 86 636 198 c 0,896,897
 572 309 572 309 572 443 c 0,898,899
 572 568 572 568 631 678 c 256,900,901
 690 788 690 788 794 857 c 1,902,903
 803 843 803 843 818 834 c 256,904,905
 833 825 833 825 852 825 c 0,906,907
 880 825 880 825 899 845 c 0,908,909
 919 865 919 865 919 893 c 0,910,911
 919 920 919 920 899 940 c 0,912,913
 880 960 880 960 852 960 c 256,914,915
 824 960 824 960 804 940 c 256,916,917
 784 920 784 920 784 893 c 0,918,919
 784 885 784 885 786 879 c 0,920,921
 787 872 787 872 790 866 c 1,922,923
 683 795 683 795 622 683 c 0,924,925
 562 571 562 571 562 443 c 0,926,927
 562 307 562 307 628 193 c 256,928,929
 694 79 694 79 802 12 c 0,930,931
 860 -24 860 -24 928 -44 c 256,932,933
 996 -64 996 -64 1069 -64 c 0,934,935
 1205 -64 1205 -64 1319 2 c 256,936,937
 1433 68 1433 68 1500 176 c 0,938,939
 1536 234 1536 234 1556 302 c 256,940,941
 1576 370 1576 370 1576 443 c 256,942,943
 1576 516 1576 516 1556 584 c 256,944,945
 1536 652 1536 652 1500 710 c 0,946,947
 1433 818 1433 818 1319 884 c 256,948,949
 1205 950 1205 950 1069 950 c 0,866,867
852 951 m 256,950,951
 876 951 876 951 893 933 c 0,952,953
 910 916 910 916 910 893 c 0,954,955
 910 869 910 869 893 852 c 256,956,957
 876 835 876 835 852 835 c 256,958,959
 828 835 828 835 811 852 c 256,960,961
 794 869 794 869 794 893 c 0,962,963
 794 916 794 916 811 934 c 0,964,965
 828 951 828 951 852 951 c 256,950,951
895 893 m 0,966,967
 895 875 895 875 882 862 c 0,968,969
 870 849 870 849 852 849 c 256,970,971
 834 849 834 849 821 862 c 256,972,973
 808 875 808 875 808 893 c 0,974,975
 808 910 808 910 821 923 c 256,976,977
 834 936 834 936 852 936 c 256,978,979
 870 936 870 936 882 923 c 0,980,981
 895 910 895 910 895 893 c 0,966,967
2601 771 m 1,982,983
 2614 771 2614 771 2639 771 c 1,984,985
 2639 622 2639 622 2639 325 c 1,986,987
 2627 325 2627 325 2601 325 c 1,988,989
 2601 474 2601 474 2601 771 c 1,982,983
2956 565 m 257,990,991
 2956 565 2956 565 2955 565 c 0,992,993
 2950 573 2950 573 2945 579 c 0,994,995
 2939 586 2939 586 2933 591 c 0,996,997
 2926 597 2926 597 2919 601 c 0,998,999
 2912 606 2912 606 2904 610 c 0,1000,1001
 2896 613 2896 613 2888 616 c 256,1002,1003
 2880 619 2880 619 2872 620 c 0,1004,1005
 2863 622 2863 622 2855 623 c 0,1006,1007
 2846 624 2846 624 2838 624 c 0,1008,1009
 2821 624 2821 624 2806 621 c 256,1010,1011
 2791 618 2791 618 2776 612 c 0,1012,1013
 2762 607 2762 607 2750 599 c 256,1014,1015
 2738 591 2738 591 2728 581 c 0,1016,1017
 2718 570 2718 570 2710 558 c 256,1018,1019
 2702 546 2702 546 2696 532 c 0,1020,1021
 2691 518 2691 518 2688 503 c 0,1022,1023
 2685 487 2685 487 2685 471 c 0,1024,1025
 2685 454 2685 454 2688 438 c 0,1026,1027
 2691 423 2691 423 2696 409 c 0,1028,1029
 2702 395 2702 395 2710 383 c 256,1030,1031
 2718 371 2718 371 2728 360 c 0,1032,1033
 2738 350 2738 350 2750 342 c 256,1034,1035
 2762 334 2762 334 2776 329 c 0,1036,1037
 2791 323 2791 323 2806 320 c 256,1038,1039
 2821 317 2821 317 2838 317 c 0,1040,1041
 2846 317 2846 317 2855 318 c 0,1042,1043
 2863 319 2863 319 2872 321 c 0,1044,1045
 2880 323 2880 323 2888 325 c 0,1046,1047
 2896 328 2896 328 2904 331 c 0,1048,1049
 2912 335 2912 335 2919 340 c 0,1050,1051
 2926 344 2926 344 2933 350 c 0,1052,1053
 2939 355 2939 355 2945 362 c 0,1054,1055
 2950 368 2950 368 2955 376 c 1,1056,1057
 2955 376 2955 376 2956 376 c 1,1058,1059
 2956 359 2956 359 2956 325 c 1,1060,1061
 2969 325 2969 325 2994 325 c 1,1062,1063
 2994 474 2994 474 2994 771 c 1,1064,1065
 2981 771 2981 771 2956 771 c 1,1066,1067
 2956 702 2956 702 2956 565 c 1,1068,1069
 2956 565 2956 565 2956 565 c 257,990,991
2950 424 m 0,1070,1071
 2946 413 2946 413 2939 404 c 0,1072,1073
 2933 394 2933 394 2925 386 c 0,1074,1075
 2916 378 2916 378 2907 372 c 0,1076,1077
 2897 366 2897 366 2886 361 c 256,1078,1079
 2875 356 2875 356 2863 354 c 0,1080,1081
 2851 351 2851 351 2838 351 c 256,1082,1083
 2825 351 2825 351 2813 354 c 0,1084,1085
 2801 356 2801 356 2790 361 c 0,1086,1087
 2780 366 2780 366 2770 372 c 0,1088,1089
 2761 378 2761 378 2754 386 c 0,1090,1091
 2746 394 2746 394 2740 404 c 0,1092,1093
 2735 413 2735 413 2731 424 c 256,1094,1095
 2727 435 2727 435 2725 447 c 0,1096,1097
 2723 458 2723 458 2723 471 c 0,1098,1099
 2723 483 2723 483 2725 494 c 0,1100,1101
 2727 506 2727 506 2731 517 c 256,1102,1103
 2735 528 2735 528 2740 537 c 0,1104,1105
 2746 547 2746 547 2754 555 c 0,1106,1107
 2761 563 2761 563 2770 569 c 0,1108,1109
 2780 576 2780 576 2790 580 c 0,1110,1111
 2801 585 2801 585 2813 587 c 0,1112,1113
 2825 590 2825 590 2838 590 c 256,1114,1115
 2851 590 2851 590 2863 587 c 0,1116,1117
 2875 585 2875 585 2886 580 c 0,1118,1119
 2897 576 2897 576 2907 569 c 0,1120,1121
 2916 563 2916 563 2925 555 c 0,1122,1123
 2933 547 2933 547 2939 537 c 0,1124,1125
 2946 528 2946 528 2950 517 c 0,1126,1127
 2955 506 2955 506 2957 494 c 0,1128,1129
 2960 483 2960 483 2960 471 c 0,1130,1131
 2960 458 2960 458 2957 447 c 0,1132,1133
 2955 435 2955 435 2950 424 c 0,1070,1071
3481 661 m 256,1134,1135
 3453 661 3453 661 3434 681 c 0,1136,1137
 3414 701 3414 701 3414 729 c 256,1138,1139
 3414 757 3414 757 3434 776 c 0,1140,1141
 3453 796 3453 796 3481 796 c 256,1142,1143
 3509 796 3509 796 3529 776 c 0,1144,1145
 3549 757 3549 757 3549 729 c 256,1146,1147
 3549 701 3549 701 3529 681 c 256,1148,1149
 3509 661 3509 661 3481 661 c 256,1134,1135
3481 787 m 256,1150,1151
 3457 787 3457 787 3440 770 c 256,1152,1153
 3423 753 3423 753 3423 729 c 256,1154,1155
 3423 705 3423 705 3440 688 c 256,1156,1157
 3457 671 3457 671 3481 671 c 256,1158,1159
 3505 671 3505 671 3522 688 c 256,1160,1161
 3539 705 3539 705 3539 729 c 256,1162,1163
 3539 753 3539 753 3522 770 c 256,1164,1165
 3505 787 3505 787 3481 787 c 256,1150,1151
3525 729 m 256,1166,1167
 3525 711 3525 711 3512 698 c 256,1168,1169
 3499 685 3499 685 3481 685 c 256,1170,1171
 3463 685 3463 685 3451 698 c 0,1172,1173
 3438 711 3438 711 3438 729 c 256,1174,1175
 3438 747 3438 747 3451 759 c 0,1176,1177
 3463 772 3463 772 3481 772 c 256,1178,1179
 3499 772 3499 772 3512 759 c 0,1180,1181
 3525 747 3525 747 3525 729 c 256,1166,1167
EndSplineSet
Validated: 37
EndChar

StartChar: unie628
Encoding: 58920 58920 43
Width: 1024
Flags: W
LayerCount: 2
Fore
SplineSet
93 757 m 0,0,1
 90 755 90 755 87 751 c 0,2,3
 85 747 85 747 85 742 c 0,4,5
 85 552 85 552 85 172 c 1,6,7
 190 277 190 277 399 486 c 1,8,9
 297 577 297 577 93 757 c 0,0,1
877 759 m 1,10,11
 633 759 633 759 146 759 c 1,12,13
 268 652 268 652 511 436 c 1,14,15
 633 544 633 544 877 759 c 1,10,11
938 741 m 0,16,17
 938 746 938 746 936 750 c 256,18,19
 934 754 934 754 930 757 c 1,20,21
 828 666 828 666 624 486 c 1,22,23
 729 381 729 381 938 172 c 1,24,25
 938 361 938 361 938 741 c 0,16,17
511 387 m 1,26,27
 483 412 483 412 427 462 c 1,28,29
 321 355 321 355 108 142 c 1,30,31
 377 142 377 142 915 142 c 1,32,33
 809 249 809 249 596 461 c 1,34,35
 568 437 568 437 511 387 c 1,26,27
EndSplineSet
Validated: 9
EndChar

StartChar: unie629
Encoding: 58921 58921 44
Width: 1024
Flags: W
LayerCount: 2
Fore
SplineSet
510 946 m 0,0,1
 377 946 377 946 266 882 c 0,2,3
 156 817 156 817 90 712 c 0,4,5
 55 656 55 656 36 590 c 0,6,7
 16 524 16 524 16 453 c 0,8,9
 16 320 16 320 81 209 c 0,10,11
 145 99 145 99 250 34 c 0,12,13
 307 -2 307 -2 373 -21 c 0,14,15
 438 -40 438 -40 510 -40 c 0,16,17
 642 -40 642 -40 753 24 c 256,18,19
 864 88 864 88 929 193 c 0,20,21
 964 250 964 250 983 316 c 0,22,23
 1003 382 1003 382 1003 453 c 256,24,25
 1003 524 1003 524 983 590 c 0,26,27
 964 656 964 656 929 712 c 0,28,29
 864 817 864 817 753 882 c 0,30,31
 642 946 642 946 510 946 c 0,0,1
510 -16 m 256,32,33
 384 -16 384 -16 278 45 c 0,34,35
 173 106 173 106 111 206 c 0,36,37
 77 260 77 260 59 322 c 0,38,39
 40 385 40 385 40 453 c 0,40,41
 40 579 40 579 101 684 c 0,42,43
 163 789 163 789 263 852 c 0,44,45
 316 885 316 885 379 904 c 0,46,47
 442 922 442 922 510 922 c 256,48,49
 578 922 578 922 640 904 c 0,50,51
 703 885 703 885 757 852 c 0,52,53
 857 789 857 789 918 684 c 256,54,55
 979 579 979 579 979 453 c 0,56,57
 979 385 979 385 960 322 c 0,58,59
 942 260 942 260 908 206 c 0,60,61
 846 106 846 106 741 45 c 256,62,63
 636 -16 636 -16 510 -16 c 256,32,33
548 564 m 1,64,65
 541 564 541 564 536 559 c 256,66,67
 531 554 531 554 531 546 c 0,68,69
 531 462 531 462 531 292 c 0,70,71
 531 285 531 285 536 280 c 256,72,73
 541 275 541 275 548 275 c 0,74,75
 553 275 553 275 562 275 c 1,76,77
 562 333 562 333 562 451 c 1,78,79
 570 451 570 451 585 451 c 1,80,81
 585 392 585 392 585 275 c 1,82,83
 588 275 588 275 593 275 c 1,84,85
 593 341 593 341 593 473 c 1,86,87
 601 473 601 473 616 473 c 1,88,89
 616 407 616 407 616 275 c 1,90,91
 618 275 618 275 624 275 c 1,92,93
 624 333 624 333 624 449 c 1,94,95
 631 449 631 449 646 449 c 1,96,97
 646 391 646 391 646 275 c 1,98,99
 649 275 649 275 654 275 c 1,100,101
 654 349 654 349 654 497 c 1,102,103
 662 497 662 497 677 497 c 1,104,105
 677 423 677 423 677 275 c 1,106,107
 680 275 680 275 685 275 c 1,108,109
 685 338 685 338 685 466 c 1,110,111
 692 466 692 466 708 466 c 1,112,113
 708 402 708 402 708 275 c 1,114,115
 710 275 710 275 715 275 c 1,116,117
 715 336 715 336 715 458 c 1,118,119
 723 458 723 458 738 458 c 1,120,121
 738 397 738 397 738 275 c 1,122,123
 741 275 741 275 746 275 c 1,124,125
 746 355 746 355 746 516 c 1,126,127
 754 516 754 516 769 516 c 1,128,129
 769 436 769 436 769 275 c 1,130,131
 771 275 771 275 777 275 c 1,132,133
 777 337 777 337 777 462 c 1,134,135
 784 462 784 462 799 462 c 1,136,137
 799 400 799 400 799 275 c 1,138,139
 802 275 802 275 807 275 c 1,140,141
 807 329 807 329 807 437 c 1,142,143
 815 437 815 437 830 437 c 1,144,145
 830 383 830 383 830 275 c 1,146,147
 833 275 833 275 838 275 c 1,148,149
 838 326 838 326 838 429 c 1,150,151
 845 429 845 429 861 429 c 1,152,153
 861 378 861 378 861 275 c 1,154,155
 863 275 863 275 868 275 c 1,156,157
 868 333 868 333 868 451 c 1,158,159
 876 451 876 451 891 451 c 1,160,161
 891 392 891 392 891 275 c 1,162,163
 894 275 894 275 899 275 c 1,164,165
 899 336 899 336 899 458 c 1,166,167
 907 458 907 458 922 458 c 1,168,169
 922 402 922 402 922 290 c 1,170,171
 924 295 924 295 926 300 c 0,172,173
 928 306 928 306 930 311 c 0,174,175
 930 366 930 366 930 477 c 1,176,177
 937 477 937 477 952 477 c 1,178,179
 951 499 951 499 948 521 c 256,180,181
 945 543 945 543 939 564 c 1,182,183
 809 564 809 564 548 564 c 1,184,185
 548 564 548 564 548 564 c 1,64,65
199 136 m 1,186,187
 200 137 200 137 203 140 c 0,188,189
 207 141 207 141 211 144 c 256,190,191
 215 147 215 147 219 147 c 0,192,193
 222 147 222 147 224 145 c 0,194,195
 227 143 227 143 228 143 c 0,196,197
 232 143 232 143 237 146 c 0,198,199
 243 148 243 148 247 148 c 0,200,201
 249 148 249 148 250 147 c 0,202,203
 252 147 252 147 253 146 c 1,204,205
 243 136 243 136 222 115 c 1,206,207
 224 114 224 114 225 113 c 256,208,209
 226 112 226 112 228 110 c 1,210,211
 238 121 238 121 260 142 c 0,212,213
 262 141 262 141 264 139 c 0,214,215
 266 138 266 138 268 138 c 0,216,217
 273 136 273 136 279 136 c 256,218,219
 285 136 285 136 290 136 c 0,220,221
 292 136 292 136 294 136 c 0,222,223
 296 135 296 135 298 135 c 1,224,225
 283 121 283 121 254 92 c 1,226,227
 255 91 255 91 257 89 c 0,228,229
 259 88 259 88 260 87 c 1,230,231
 276 103 276 103 307 135 c 1,232,233
 317 133 317 133 326 131 c 0,234,235
 336 129 336 129 345 127 c 1,236,237
 326 108 326 108 288 70 c 1,238,239
 289 69 289 69 291 68 c 0,240,241
 292 67 292 67 294 66 c 0,242,243
 314 86 314 86 352 125 c 1,244,245
 357 123 357 123 362 122 c 0,246,247
 366 121 366 121 371 119 c 0,248,249
 375 118 375 118 380 118 c 0,250,251
 384 117 384 117 389 116 c 1,252,253
 367 94 367 94 324 51 c 1,254,255
 325 50 325 50 327 49 c 256,256,257
 329 48 329 48 331 48 c 0,258,259
 353 70 353 70 397 114 c 1,260,261
 402 113 402 113 405 109 c 0,262,263
 408 106 408 106 413 104 c 256,264,265
 418 102 418 102 423 103 c 256,266,267
 428 104 428 104 432 104 c 1,268,269
 409 81 409 81 363 35 c 1,270,271
 364 34 364 34 366 33 c 0,272,273
 368 33 368 33 370 32 c 0,274,275
 393 55 393 55 439 101 c 1,276,277
 445 97 445 97 451 92 c 256,278,279
 457 87 457 87 466 86 c 0,280,281
 467 86 467 86 468 86 c 256,282,283
 469 86 469 86 470 86 c 1,284,285
 449 65 449 65 406 22 c 1,286,287
 408 21 408 21 410 21 c 256,288,289
 412 21 412 21 414 20 c 0,290,291
 437 43 437 43 482 88 c 1,292,293
 482 88 482 88 482 88 c 257,294,295
 482 88 482 88 483 88 c 0,296,297
 491 87 491 87 499 84 c 0,298,299
 508 80 508 80 517 77 c 1,300,301
 495 56 495 56 453 13 c 1,302,303
 455 12 455 12 457 12 c 256,304,305
 459 12 459 12 462 12 c 0,306,307
 483 33 483 33 525 75 c 1,308,309
 532 72 532 72 542 70 c 0,310,311
 552 67 552 67 561 66 c 1,312,313
 542 47 542 47 505 10 c 1,314,315
 506 10 506 10 507 10 c 0,316,317
 509 10 509 10 510 10 c 0,318,319
 512 10 512 10 513 10 c 256,320,321
 514 10 514 10 515 10 c 0,322,323
 533 28 533 28 570 65 c 0,324,325
 575 66 575 66 580 67 c 0,326,327
 586 68 586 68 591 68 c 0,328,329
 598 68 598 68 605 68 c 0,330,331
 611 67 611 67 618 68 c 1,332,333
 600 49 600 49 564 13 c 1,334,335
 566 13 566 13 569 14 c 0,336,337
 572 14 572 14 575 14 c 0,338,339
 594 33 594 33 631 71 c 1,340,341
 652 77 652 77 671 84 c 0,342,343
 691 92 691 92 709 103 c 1,344,345
 683 77 683 77 632 26 c 1,346,347
 636 27 636 27 639 28 c 0,348,349
 643 29 643 29 646 30 c 0,350,351
 670 54 670 54 716 100 c 1,352,353
 721 93 721 93 723 92 c 256,354,355
 725 91 725 91 733 91 c 0,356,357
 737 91 737 91 743 92 c 0,358,359
 749 92 749 92 754 93 c 1,360,361
 745 84 745 84 727 65 c 1,362,363
 734 69 734 69 740 73 c 256,364,365
 746 77 746 77 753 81 c 0,366,367
 757 85 757 85 765 93 c 1,368,369
 765 93 765 93 765 93 c 257,370,371
 765 93 765 93 765 93 c 1,372,373
 766 93 766 93 767 92 c 0,374,375
 769 92 769 92 769 92 c 1,376,377
 809 121 809 121 842 158 c 0,378,379
 875 194 875 194 898 237 c 1,380,381
 639 237 639 237 121 237 c 1,382,383
 136 210 136 210 156 184 c 0,384,385
 176 159 176 159 199 136 c 1,186,187
487 292 m 0,386,387
 487 300 487 300 487 315 c 1,388,389
 486 315 486 315 484 314 c 0,390,391
 482 314 482 314 480 314 c 0,392,393
 470 314 470 314 462 318 c 0,394,395
 454 321 454 321 450 328 c 1,396,397
 441 327 441 327 438 329 c 0,398,399
 434 332 434 332 431 336 c 0,400,401
 430 337 430 337 429 338 c 0,402,403
 427 340 427 340 426 341 c 0,404,405
 418 345 418 345 409 347 c 0,406,407
 399 349 399 349 389 351 c 0,408,409
 384 352 384 352 379 353 c 0,410,411
 373 354 373 354 368 355 c 0,412,413
 359 357 359 357 350 360 c 0,414,415
 341 362 341 362 332 365 c 0,416,417
 321 368 321 368 310 371 c 256,418,419
 299 374 299 374 289 375 c 0,420,421
 287 376 287 376 282 377 c 0,422,423
 265 380 265 380 247 384 c 0,424,425
 229 389 229 389 213 396 c 0,426,427
 210 395 210 395 208 395 c 0,428,429
 205 394 205 394 204 394 c 0,430,431
 197 394 197 394 191 395 c 0,432,433
 186 396 186 396 182 397 c 0,434,435
 175 399 175 399 170 399 c 0,436,437
 169 399 169 399 169 399 c 2,438,439
 162 399 162 399 151 393 c 0,440,441
 149 392 149 392 145 390 c 0,442,443
 138 386 138 386 130 383 c 0,444,445
 123 379 123 379 115 378 c 0,446,447
 109 377 109 377 104 378 c 256,448,449
 99 379 99 379 94 381 c 0,450,451
 89 382 89 382 85 383 c 0,452,453
 80 384 80 384 76 383 c 0,454,455
 75 383 75 383 74 382 c 0,456,457
 72 382 72 382 71 380 c 0,458,459
 75 353 75 353 83 326 c 0,460,461
 91 300 91 300 102 275 c 1,462,463
 225 275 225 275 470 275 c 0,464,465
 471 275 471 275 471 275 c 2,466,467
 478 275 478 275 482 280 c 0,468,469
 487 285 487 285 487 292 c 0,386,387
98 389 m 0,470,471
 102 387 102 387 107 386 c 0,472,473
 109 386 109 386 112 386 c 0,474,475
 113 386 113 386 115 386 c 0,476,477
 121 387 121 387 128 390 c 256,478,479
 135 393 135 393 142 397 c 0,480,481
 144 398 144 398 148 400 c 0,482,483
 162 407 162 407 170 407 c 0,484,485
 177 407 177 407 185 405 c 0,486,487
 189 404 189 404 193 404 c 0,488,489
 197 403 197 403 202 403 c 1,490,491
 200 405 200 405 198 406 c 0,492,493
 197 408 197 408 195 409 c 0,494,495
 192 413 192 413 188 415 c 0,496,497
 184 418 184 418 176 419 c 0,498,499
 173 419 173 419 170 419 c 256,500,501
 167 419 167 419 164 419 c 0,502,503
 154 419 154 419 144 422 c 0,504,505
 133 424 133 424 132 439 c 1,506,507
 127 439 127 439 122 439 c 0,508,509
 118 439 118 439 113 439 c 256,510,511
 108 439 108 439 102 439 c 0,512,513
 97 439 97 439 92 439 c 256,514,515
 87 439 87 439 82 441 c 0,516,517
 78 443 78 443 74 444 c 0,518,519
 72 445 72 445 70 446 c 0,520,521
 69 446 69 446 67 447 c 1,522,523
 67 432 67 432 69 417 c 0,524,525
 70 402 70 402 72 388 c 0,526,527
 73 388 73 388 75 389 c 0,528,529
 76 389 76 389 77 390 c 0,530,531
 81 392 81 392 87 391 c 256,532,533
 93 390 93 390 98 389 c 0,470,471
373 419 m 0,534,535
 366 420 366 420 359 421 c 256,536,537
 352 422 352 422 345 425 c 0,538,539
 341 427 341 427 338 430 c 256,540,541
 335 433 335 433 333 435 c 0,542,543
 330 438 330 438 328 439 c 0,544,545
 326 439 326 439 319 434 c 0,546,547
 317 432 317 432 315 429 c 0,548,549
 314 427 314 427 312 423 c 0,550,551
 311 420 311 420 309 416 c 256,552,553
 307 412 307 412 303 409 c 0,554,555
 302 408 302 408 300 407 c 0,556,557
 299 407 299 407 297 409 c 0,558,559
 293 412 293 412 290 415 c 256,560,561
 287 418 287 418 284 421 c 0,562,563
 278 427 278 427 274 429 c 0,564,565
 270 432 270 432 262 429 c 0,566,567
 257 428 257 428 255 425 c 0,568,569
 252 422 252 422 249 418 c 256,570,571
 246 414 246 414 244 411 c 0,572,573
 241 408 241 408 237 405 c 0,574,575
 236 405 236 405 233 404 c 0,576,577
 230 402 230 402 226 401 c 1,578,579
 240 395 240 395 254 392 c 0,580,581
 269 388 269 388 284 385 c 0,582,583
 286 385 286 385 291 384 c 0,584,585
 301 382 301 382 312 379 c 0,586,587
 324 376 324 376 334 372 c 0,588,589
 343 370 343 370 352 367 c 0,590,591
 361 365 361 365 370 363 c 0,592,593
 375 361 375 361 380 361 c 0,594,595
 385 360 385 360 390 359 c 0,596,597
 401 357 401 357 411 355 c 256,598,599
 421 353 421 353 429 349 c 0,600,601
 433 347 433 347 435 345 c 0,602,603
 436 343 436 343 438 341 c 0,604,605
 440 338 440 338 442 338 c 0,606,607
 444 337 444 337 451 338 c 0,608,609
 452 338 452 338 454 338 c 0,610,611
 455 337 455 337 456 335 c 0,612,613
 461 326 461 326 471 325 c 0,614,615
 479 324 479 324 484 324 c 0,616,617
 486 324 486 324 487 324 c 1,618,619
 487 336 487 336 487 359 c 1,620,621
 487 357 487 357 486 354 c 0,622,623
 478 356 478 356 469 361 c 0,624,625
 461 366 461 366 456 375 c 1,626,627
 455 374 455 374 455 374 c 2,628,629
 454 374 454 374 454 374 c 2,630,631
 453 373 453 373 451 372 c 0,632,633
 450 372 450 372 450 371 c 0,634,635
 448 370 448 370 446 368 c 1,636,637
 445 369 445 369 442 372 c 0,638,639
 441 374 441 374 440 376 c 0,640,641
 438 379 438 379 437 382 c 256,642,643
 436 385 436 385 434 388 c 0,644,645
 432 392 432 392 431 393 c 0,646,647
 430 393 430 393 428 393 c 0,648,649
 427 392 427 392 424 390 c 0,650,651
 423 389 423 389 421 388 c 256,652,653
 419 387 419 387 416 388 c 0,654,655
 415 388 415 388 414 389 c 0,656,657
 413 389 413 389 412 389 c 0,658,659
 405 391 405 391 399 395 c 0,660,661
 393 400 393 400 394 414 c 1,662,663
 389 417 389 417 384 418 c 256,664,665
 379 419 379 419 373 419 c 0,534,535
92 449 m 0,666,667
 97 448 97 448 102 448 c 0,668,669
 106 448 106 448 112 449 c 0,670,671
 118 449 118 449 124 449 c 256,672,673
 130 449 130 449 136 448 c 0,674,675
 138 448 138 448 140 447 c 0,676,677
 140 446 140 446 140 444 c 0,678,679
 140 433 140 433 146 431 c 256,680,681
 152 429 152 429 163 429 c 0,682,683
 167 429 167 429 170 429 c 256,684,685
 173 429 173 429 177 428 c 0,686,687
 187 427 187 427 192 424 c 0,688,689
 197 420 197 420 201 416 c 0,690,691
 204 414 204 414 207 412 c 0,692,693
 209 409 209 409 214 407 c 1,694,695
 214 407 214 407 214 406 c 1,696,697
 215 406 215 406 215 406 c 2,698,699
 220 408 220 408 226 411 c 0,700,701
 232 413 232 413 234 414 c 256,702,703
 236 415 236 415 238 418 c 0,704,705
 240 420 240 420 243 423 c 0,706,707
 246 428 246 428 250 432 c 0,708,709
 254 437 254 437 260 438 c 0,710,711
 272 442 272 442 279 438 c 0,712,713
 285 434 285 434 291 427 c 0,714,715
 293 425 293 425 295 423 c 256,716,717
 297 421 297 421 300 419 c 0,718,719
 301 420 301 420 302 422 c 256,720,721
 303 424 303 424 304 426 c 0,722,723
 305 430 305 430 307 434 c 256,724,725
 309 438 309 438 314 441 c 0,726,727
 324 449 324 449 329 447 c 0,728,729
 334 446 334 446 339 441 c 0,730,731
 341 439 341 439 343 437 c 0,732,733
 346 435 346 435 349 433 c 0,734,735
 355 430 355 430 361 429 c 0,736,737
 367 429 367 429 373 428 c 0,738,739
 380 428 380 428 387 427 c 256,740,741
 394 426 394 426 401 423 c 0,742,743
 402 422 402 422 404 422 c 1,744,745
 404 420 404 420 404 418 c 0,746,747
 402 407 402 407 405 404 c 0,748,749
 408 402 408 402 415 399 c 0,750,751
 416 399 416 399 417 399 c 2,752,753
 417 399 417 399 418 398 c 0,754,755
 419 398 419 398 419 398 c 2,756,757
 419 399 419 399 420 399 c 0,758,759
 422 401 422 401 426 402 c 0,760,761
 430 404 430 404 435 402 c 0,762,763
 438 400 438 400 440 396 c 0,764,765
 443 392 443 392 445 386 c 0,766,767
 446 385 446 385 446 384 c 0,768,769
 447 383 447 383 448 381 c 2,770,771
 448 381 448 381 449 382 c 1,772,773
 449 382 449 382 449 382 c 1,774,775
 450 383 450 383 452 384 c 0,776,777
 453 385 453 385 454 385 c 0,778,779
 456 387 456 387 459 391 c 1,780,781
 460 388 460 388 462 383 c 0,782,783
 464 375 464 375 472 370 c 0,784,785
 480 366 480 366 487 363 c 1,786,787
 487 424 487 424 487 546 c 0,788,789
 487 554 487 554 482 559 c 256,790,791
 477 564 477 564 470 564 c 0,792,793
 340 564 340 564 80 564 c 1,794,795
 73 538 73 538 70 512 c 0,796,797
 67 485 67 485 66 458 c 0,798,799
 69 457 69 457 71 456 c 0,800,801
 74 455 74 455 76 454 c 0,802,803
 80 452 80 452 84 451 c 0,804,805
 88 449 88 449 92 449 c 0,666,667
198 724 m 0,806,807
 202 724 202 724 205 723 c 256,808,809
 208 722 208 722 211 720 c 0,810,811
 229 731 229 731 265 754 c 0,812,813
 265 755 265 755 264 756 c 0,814,815
 264 757 264 757 264 758 c 0,816,817
 264 767 264 767 270 773 c 0,818,819
 277 779 277 779 285 779 c 0,820,821
 294 779 294 779 300 773 c 256,822,823
 306 767 306 767 306 758 c 1,824,825
 323 752 323 752 357 740 c 0,826,827
 359 743 359 743 363 745 c 0,828,829
 368 747 368 747 372 747 c 0,830,831
 381 747 381 747 387 741 c 0,832,833
 393 734 393 734 393 726 c 0,834,835
 393 725 393 725 393 725 c 257,836,837
 393 725 393 725 393 725 c 1,838,839
 410 717 410 717 445 701 c 0,840,841
 447 704 447 704 451 706 c 0,842,843
 455 707 455 707 459 707 c 0,844,845
 464 707 464 707 468 705 c 256,846,847
 472 703 472 703 475 700 c 0,848,849
 492 706 492 706 525 719 c 1,850,851
 526 727 526 727 532 733 c 256,852,853
 538 739 538 739 546 739 c 256,854,855
 554 739 554 739 560 734 c 0,856,857
 566 728 566 728 567 720 c 1,858,859
 584 716 584 716 616 707 c 1,860,861
 619 711 619 711 624 713 c 0,862,863
 628 716 628 716 633 716 c 0,864,865
 639 716 639 716 644 713 c 256,866,867
 649 710 649 710 651 705 c 1,868,869
 667 708 667 708 700 714 c 1,870,871
 701 722 701 722 707 726 c 0,872,873
 713 731 713 731 721 731 c 0,874,875
 728 731 728 731 734 727 c 0,876,877
 739 723 739 723 741 716 c 1,878,879
 757 715 757 715 789 712 c 1,880,881
 792 717 792 717 797 720 c 256,882,883
 802 723 802 723 808 723 c 0,884,885
 815 723 815 723 821 719 c 0,886,887
 827 714 827 714 829 706 c 1,888,889
 846 703 846 703 879 696 c 1,890,891
 820 786 820 786 722 841 c 0,892,893
 625 896 625 896 509 896 c 0,894,895
 395 896 395 896 298 843 c 0,896,897
 202 790 202 790 142 702 c 1,898,899
 154 703 154 703 177 707 c 1,900,901
 179 715 179 715 185 719 c 0,902,903
 191 724 191 724 198 724 c 0,806,807
891 679 m 1,904,905
 870 683 870 683 826 691 c 1,906,907
 824 687 824 687 819 684 c 256,908,909
 814 681 814 681 808 681 c 0,910,911
 801 681 801 681 796 686 c 0,912,913
 790 690 790 690 788 696 c 1,914,915
 772 698 772 698 740 701 c 1,916,917
 737 696 737 696 732 692 c 0,918,919
 727 689 727 689 721 689 c 0,920,921
 716 689 716 689 711 692 c 256,922,923
 706 695 706 695 703 699 c 1,924,925
 687 696 687 696 655 690 c 1,926,927
 653 683 653 683 647 678 c 0,928,929
 641 674 641 674 634 674 c 0,930,931
 626 674 626 674 620 679 c 0,932,933
 614 685 614 685 613 692 c 1,934,935
 596 697 596 697 564 705 c 0,936,937
 561 702 561 702 556 699 c 0,938,939
 552 697 552 697 547 697 c 256,940,941
 542 697 542 697 538 699 c 256,942,943
 534 701 534 701 531 704 c 0,944,945
 514 698 514 698 481 686 c 1,946,947
 480 677 480 677 474 671 c 256,948,949
 468 665 468 665 460 665 c 0,950,951
 451 665 451 665 445 671 c 0,952,953
 439 678 439 678 439 686 c 0,954,955
 439 687 439 687 439 687 c 257,956,957
 439 687 439 687 439 687 c 1,958,959
 422 695 422 695 387 710 c 0,960,961
 384 708 384 708 381 706 c 0,962,963
 377 704 377 704 373 704 c 0,964,965
 364 704 364 704 358 710 c 256,966,967
 352 716 352 716 352 725 c 1,968,969
 335 731 335 731 301 743 c 1,970,971
 299 739 299 739 294 737 c 0,972,973
 290 735 290 735 286 735 c 256,974,975
 282 735 282 735 279 737 c 0,976,977
 276 738 276 738 273 740 c 0,978,979
 255 728 255 728 219 705 c 1,980,981
 219 705 219 705 219 704 c 0,982,983
 220 703 220 703 220 702 c 0,984,985
 220 693 220 693 214 687 c 0,986,987
 207 681 207 681 199 681 c 0,988,989
 193 681 193 681 188 684 c 256,990,991
 183 687 183 687 181 692 c 1,992,993
 165 689 165 689 132 684 c 1,994,995
 120 664 120 664 110 643 c 0,996,997
 99 622 99 622 91 599 c 1,998,999
 371 599 371 599 929 599 c 1,1000,1001
 921 620 921 620 912 640 c 0,1002,1003
 902 661 902 661 891 679 c 1,904,905
EndSplineSet
Validated: 5
EndChar

